SplineFontDB: 3.2
FontName: Seshat-Bold
FullName: Seshat Bold
FamilyName: Seshat
Weight: Bold
Copyright: No Rights Reserved.
Version: 1.000;PS 001.000;hotconv 1.0.56;makeotf.lib2.0.21325
ItalicAngle: 0
UnderlinePosition: -204
UnderlineWidth: 102
Ascent: 1577
Descent: 471
InvalidEm: 0
sfntRevision: 0x00010000
LayerCount: 2
Layer: 0 1 "Sfondo" 1
Layer: 1 1 "Fore" 0
XUID: [1021 336 544108845 2291]
StyleMap: 0x0040
FSType: 4
OS2Version: 3
OS2_WeightWidthSlopeOnly: 0
OS2_UseTypoMetrics: 0
CreationTime: 1350057820
ModificationTime: 1780985592
PfmFamily: 81
TTFWeight: 700
TTFWidth: 5
LineGap: 0
VLineGap: 0
Panose: 0 0 5 0 0 0 0 0 0 0
OS2TypoAscent: 1577
OS2TypoAOffset: 0
OS2TypoDescent: -471
OS2TypoDOffset: 0
OS2TypoLinegap: 0
OS2WinAscent: 1772
OS2WinAOffset: 0
OS2WinDescent: 511
OS2WinDOffset: 0
HheadAscent: 1772
HheadAOffset: 0
HheadDescent: -511
HheadDOffset: 0
OS2SubXSize: 1331
OS2SubYSize: 1229
OS2SubXOff: 0
OS2SubYOff: 154
OS2SupXSize: 1331
OS2SupYSize: 1229
OS2SupXOff: 0
OS2SupYOff: 717
OS2StrikeYSize: 102
OS2StrikeYPos: 492
OS2CapHeight: 1352
OS2XHeight: 819
OS2Vendor: 'UKWN'
OS2CodePages: 20000001.00000000
OS2UnicodeRanges: 00000003.00000000.00000000.00000000
Lookup: 4 0 1 "'liga' Ligature standard in Latino lookup 0" { "'liga' Ligature standard in Latino lookup 0 subtable"  } ['liga' ('DFLT' <'dflt' > 'latn' <'dflt' > ) ]
Lookup: 257 0 0 "'cpsp' Spaziatura delle maiuscole in Latino lookup 0" { "'cpsp' Spaziatura delle maiuscole in Latino lookup 0 subtable"  } ['cpsp' ('DFLT' <'dflt' > 'latn' <'dflt' > ) ]
Lookup: 258 0 0 "'kern' Crenatura orizzontale in Latino lookup 1" { "'kern' Crenatura orizzontale in Latino lookup 1 per glyph data 0"  "'kern' Crenatura orizzontale in Latino lookup 1 kerning class 1"  } ['kern' ('DFLT' <'dflt' > 'latn' <'dflt' > ) ]
MarkAttachClasses: 1
DEI: 91125
KernClass2: 8+ 18 "'kern' Crenatura orizzontale in Latino lookup 1 kerning class 1"
 1 W
 8 N Ntilde
 37 E Egrave Eacute Ecircumflex Edieresis

StartChar: .notdef
Encoding: 65536 -1 0
Width: 634
GlyphClass: 1
Flags: W
LayerCount: 2
Fore
SplineSet
629 0 m 1,0,-1
 5 0 l 1,1,2
 5 682.5 5 682.5 5 1365 c 1,3,-1
 629 1365 l 1,4,5
 629 682.5 629 682.5 629 0 c 1,0,-1
481 1217 m 1,6,-1
 153 1217 l 1,7,8
 153 682.5 153 682.5 153 148 c 1,9,-1
 481 148 l 1,10,11
 481 682.5 481 682.5 481 1217 c 1,6,-1
EndSplineSet
Validated: 1
EndChar

StartChar: exclam
Encoding: 33 33 4
Width: 336
GlyphClass: 2
Flags: W
LayerCount: 2
Fore
SplineSet
168 -20 m 128,-1,1
 95.4423828125 -20 95.4423828125 -20 50.2216796875 25.2216796875 c 128,-1,2
 5 70.4423828125 5 70.4423828125 5 142.5 c 128,-1,3
 5 214.557617188 5 214.557617188 50.2216796875 259.778320312 c 128,-1,4
 95.4423828125 305 95.4423828125 305 168 305 c 128,-1,5
 240.557617188 305 240.557617188 305 285.778320312 259.778320312 c 128,-1,6
 331 214.557617188 331 214.557617188 331 142.5 c 128,-1,7
 331 70.4423828125 331 70.4423828125 285.778320312 25.2216796875 c 128,-1,0
 240.557617188 -20 240.557617188 -20 168 -20 c 128,-1,1
50.431640625 1318.6640625 m 1,8,9
 64.51171875 1283.67871094 64.51171875 1283.67871094 78.591796875 1328.69335938 c 2,10,11
 156.850585938 1356.56640625 156.850585938 1356.56640625 273.44921875 1363.91992188 c 2,12,13
 277.641601562 1324.18457031 277.641601562 1324.18457031 281.834960938 1364.44824219 c 1,14,15
 285.745117188 1323.02636719 285.745117188 1323.02636719 289.655273438 1361.60449219 c 1,16,17
 295.155273438 1319.60449219 295.155273438 1319.60449219 300.655273438 1357.60449219 c 1,18,19
 315.670898438 1312.14453125 315.670898438 1312.14453125 330.6875 1346.68359375 c 1,20,21
 328.685546875 1290.81738281 328.685546875 1290.81738281 326.68359375 1314.95117188 c 2,22,23
 272.897460938 888.641601562 272.897460938 888.641601562 250.966796875 349.349609375 c 2,24,25
 250.439453125 296.385742188 250.439453125 296.385742188 249.912109375 323.421875 c 1,26,27
 185.525390625 257.813476562 185.525390625 257.813476562 121.139648438 272.205078125 c 1,28,29
 113.14453125 236.202148438 113.14453125 236.202148438 105.150390625 280.19921875 c 1,30,31
 101.150390625 242.19921875 101.150390625 242.19921875 97.150390625 284.19921875 c 1,32,33
 86.13671875 249.706054688 86.13671875 249.706054688 75.123046875 295.213867188 c 1,34,35
 72.005859375 922.79296875 72.005859375 922.79296875 52.0595703125 1288.79296875 c 2,36,37
 51.24609375 1263.72851562 51.24609375 1263.72851562 50.431640625 1318.6640625 c 1,8,9
EndSplineSet
Validated: 37
EndChar

StartChar: quotedbl
Encoding: 34 34 5
Width: 452
GlyphClass: 2
Flags: W
LayerCount: 2
Fore
SplineSet
5 1430.86621094 m 1,0,1
 24.2939453125 1393.27832031 24.2939453125 1393.27832031 43.5869140625 1435.68945312 c 2,2,3
 78.0703125 1440 78.0703125 1440 114.08984375 1440 c 128,-1,4
 150.109375 1440 150.109375 1440 184.592773438 1435.68945312 c 2,5,6
 203.83203125 1393.28515625 203.83203125 1393.28515625 223.0703125 1430.87988281 c 1,7,8
 221.240234375 1381.43066406 221.240234375 1381.43066406 219.411132812 1397.21777344 c 2,9,10
 198.541992188 1205.26074219 198.541992188 1205.26074219 189.577148438 894.977539062 c 2,11,12
 189.086914062 835.489257812 189.086914062 835.489257812 188.59765625 776 c 1,13,-1
 40.5087890625 776 l 1,14,15
 40.0546875 835.52734375 40.0546875 835.52734375 39.6005859375 895.053710938 c 2,16,17
 31.6357421875 1193.06542969 31.6357421875 1193.06542969 8.7802734375 1397.11816406 c 2,18,19
 6.8896484375 1381.38085938 6.8896484375 1381.38085938 5 1430.86621094 c 1,0,1
229.109375 1430.87988281 m 1,20,21
 248.348632812 1393.28515625 248.348632812 1393.28515625 267.586914062 1435.68945312 c 2,22,23
 302.0703125 1440 302.0703125 1440 338.08984375 1440 c 128,-1,24
 374.109375 1440 374.109375 1440 408.592773438 1435.68945312 c 2,25,26
 427.88671875 1393.27832031 427.88671875 1393.27832031 447.1796875 1430.86621094 c 1,27,28
 445.290039062 1381.38085938 445.290039062 1381.38085938 443.400390625 1397.11816406 c 2,29,30
 420.543945312 1193.06542969 420.543945312 1193.06542969 412.579101562 895.053710938 c 2,31,32
 412.125 835.52734375 412.125 835.52734375 411.670898438 776 c 1,33,-1
 263.583007812 776 l 1,34,35
 263.092773438 835.489257812 263.092773438 835.489257812 262.602539062 894.977539062 c 2,36,37
 253.637695312 1205.26074219 253.637695312 1205.26074219 232.76953125 1397.21777344 c 2,38,39
 230.939453125 1381.43066406 230.939453125 1381.43066406 229.109375 1430.87988281 c 1,20,21
EndSplineSet
Validated: 1
EndChar

StartChar: numbersign
Encoding: 35 35 6
Width: 1164
GlyphClass: 2
Flags: W
LayerCount: 2
Fore
SplineSet
5 453.532226562 m 1,0,1
 38.0029296875 548.93359375 38.0029296875 548.93359375 71.0068359375 614.98828125 c 1,2,3
 182.513671875 626.9765625 182.513671875 626.9765625 299.96484375 614.98828125 c 1,4,5
 311.0546875 643.989257812 311.0546875 643.989257812 328.198242188 687.712890625 c 128,-1,6
 345.341796875 731.4375 345.341796875 731.4375 356.7890625 761.283203125 c 1,7,8
 254.48046875 758.23046875 254.48046875 758.23046875 80 749.310546875 c 1,9,-1
 143.702148438 910 l 1,10,-1
 413.926757812 910 l 1,11,-1
 611.15234375 1403.15136719 l 1,12,13
 626.521484375 1364.03320312 626.521484375 1364.03320312 641.890625 1404.9140625 c 2,14,15
 691.19921875 1407.74121094 691.19921875 1407.74121094 762.185546875 1420.22363281 c 2,16,17
 802.701171875 1387.34765625 802.701171875 1387.34765625 843.215820312 1434.47167969 c 1,18,19
 828.426757812 1368.04882812 828.426757812 1368.04882812 813.637695312 1371.49414062 c 2,20,21
 716.344726562 1164.34667969 716.344726562 1164.34667969 608.606445312 910 c 1,22,-1
 740.36328125 910 l 1,23,-1
 934.61328125 1403.15136719 l 1,24,25
 948.125976562 1364.03320312 948.125976562 1364.03320312 961.638671875 1404.9140625 c 2,26,27
 1004.99023438 1407.74121094 1004.99023438 1407.74121094 1067.40039062 1420.22363281 c 2,28,29
 1103.12890625 1387.36914062 1103.12890625 1387.36914062 1138.85839844 1434.51464844 c 1,30,31
 1125.72949219 1366.46679688 1125.72949219 1366.46679688 1112.59960938 1370.3828125 c 2,32,33
 1019.10546875 1142.03613281 1019.10546875 1142.03613281 932.883789062 903.677734375 c 1,34,35
 1012.4609375 906.98046875 1012.4609375 906.98046875 1158.72070312 915.314453125 c 1,36,-1
 1094.84960938 757 l 1,37,-1
 875.323242188 757 l 1,38,39
 852.454101562 697.694335938 852.454101562 697.694335938 818.2734375 604.677734375 c 1,40,41
 938.342773438 608.177734375 938.342773438 608.177734375 1086.30859375 616.397460938 c 1,42,-1
 1020.54492188 449 l 1,43,-1
 759.9375 449 l 1,44,-1
 564.981445312 -43.146484375 l 1,45,46
 549.565429688 -4.0302734375 549.565429688 -4.0302734375 534.149414062 -44.9140625 c 2,47,48
 484.83984375 -47.7412109375 484.83984375 -47.7412109375 413.854492188 -60.2236328125 c 2,49,50
 373.078125 -27.3935546875 373.078125 -27.3935546875 332.30078125 -74.5634765625 c 1,51,52
 347.396484375 -8.0263671875 347.396484375 -8.0263671875 362.491210938 -11.322265625 c 2,53,54
 451.006835938 174.104492188 451.006835938 174.104492188 567.430664062 449 c 1,55,-1
 433.500976562 449 l 1,56,-1
 240.046875 -43.064453125 l 1,57,58
 226.5390625 -3.9853515625 226.5390625 -3.9853515625 213.03125 -44.90625 c 2,59,60
 171.560546875 -47.734375 171.560546875 -47.734375 108.038085938 -60.24609375 c 2,61,62
 72.3271484375 -27.2802734375 72.3271484375 -27.2802734375 36.6171875 -74.3134765625 c 1,63,64
 49.798828125 -4.576171875 49.798828125 -4.576171875 62.98046875 -9.169921875 c 2,65,66
 133.587890625 165.302734375 133.587890625 165.302734375 241.551757812 465.291015625 c 1,67,68
 139.551757812 461.96484375 139.551757812 461.96484375 67.9130859375 457.475585938 c 2,69,70
 36.4560546875 473.251953125 36.4560546875 473.251953125 5 453.532226562 c 1,0,1
682.614257812 757 m 1,71,-1
 549.834960938 757 l 1,72,73
 519.487304688 679.99609375 519.487304688 679.99609375 491.123046875 603 c 1,74,-1
 626.473632812 603 l 1,75,-1
 682.614257812 757 l 1,71,-1
EndSplineSet
Validated: 33
EndChar

StartChar: dollar
Encoding: 36 36 7
Width: 940
GlyphClass: 2
Flags: W
LayerCount: 2
Fore
SplineSet
198.31640625 325.822265625 m 1,0,1
 196.46484375 288.106445312 196.46484375 288.106445312 196.46484375 283.915039062 c 0,2,3
 196.46484375 249.455078125 196.46484375 249.455078125 210.317382812 238.790039062 c 0,4,5
 240.53515625 213.947265625 240.53515625 213.947265625 300.221679688 198.8046875 c 0,6,7
 362.186523438 183.662109375 362.186523438 183.662109375 413.37890625 183.662109375 c 0,8,9
 514.9609375 183.662109375 514.9609375 183.662109375 574.849609375 231.958984375 c 128,-1,10
 634.739257812 280.256835938 634.739257812 280.256835938 634.739257812 350.734375 c 0,11,12
 634.739257812 428.858398438 634.739257812 428.858398438 589.405273438 472.504882812 c 128,-1,13
 544.072265625 516.150390625 544.072265625 516.150390625 420.725585938 551.716796875 c 0,14,15
 240.494140625 605.65625 240.494140625 605.65625 167.962890625 682.76953125 c 0,16,17
 91.7294921875 763.819335938 91.7294921875 763.819335938 91.7294921875 882.5 c 0,18,19
 91.7294921875 1025.46484375 91.7294921875 1025.46484375 196.184570312 1123.5703125 c 0,20,21
 297.529296875 1210.74511719 297.529296875 1210.74511719 476.396484375 1235.07226562 c 1,22,23
 495.984375 1291.21679688 495.984375 1291.21679688 515.572265625 1411.15136719 c 1,24,25
 528.9453125 1378.86621094 528.9453125 1378.86621094 542.31640625 1418.69042969 c 2,26,27
 583.927734375 1430.42089844 583.927734375 1430.42089844 667.223632812 1462.00292969 c 2,28,29
 707.60546875 1439.64160156 707.60546875 1439.64160156 743.919921875 1497.28027344 c 1,30,31
 716.83203125 1336.65917969 716.83203125 1336.65917969 689.745117188 1240.83984375 c 1,32,33
 751.584960938 1232.7578125 751.584960938 1232.7578125 805.760742188 1210.91601562 c 0,34,35
 881.321289062 1180.45410156 881.321289062 1180.45410156 919.254882812 1140.83886719 c 2,36,37
 927.2734375 1110.75097656 927.2734375 1110.75097656 935.29296875 1124.08886719 c 1,38,39
 931.426757812 1092.52050781 931.426757812 1092.52050781 927.560546875 1102.65332031 c 2,40,41
 897.37109375 1018.96679688 897.37109375 1018.96679688 879.881835938 939.180664062 c 2,42,43
 875.592773438 907.516601562 875.592773438 907.516601562 871.303710938 900.046875 c 1,44,45
 802.603515625 904.997070312 802.603515625 904.997070312 733.90234375 933.903320312 c 1,46,47
 736.53125 937.401367188 736.53125 937.401367188 739.159179688 967.922851562 c 2,48,49
 740.861328125 978.936523438 740.861328125 978.936523438 740.861328125 988.399414062 c 0,50,51
 740.861328125 1013.09960938 740.861328125 1013.09960938 729.255859375 1026.2265625 c 0,52,53
 703.334960938 1051.38183594 703.334960938 1051.38183594 653.603515625 1067.95507812 c 0,54,55
 600.793945312 1084.52734375 600.793945312 1084.52734375 540.569335938 1084.52734375 c 0,56,57
 466.143554688 1084.52734375 466.143554688 1084.52734375 420.194335938 1046.82226562 c 128,-1,58
 374.244140625 1009.11816406 374.244140625 1009.11816406 374.244140625 951.248046875 c 128,-1,59
 374.244140625 893.377929688 374.244140625 893.377929688 416.048828125 858.563476562 c 0,60,61
 462.743164062 819.677734375 462.743164062 819.677734375 582.06640625 787.443359375 c 0,62,63
 762.102539062 735.680664062 762.102539062 735.680664062 837.986328125 657.973632812 c 0,64,65
 917.729492188 576.315429688 917.729492188 576.315429688 917.729492188 440.01953125 c 0,66,67
 917.729492188 286.611328125 917.729492188 286.611328125 797.375976562 172.75390625 c 0,68,69
 690.267578125 71.4267578125 690.267578125 71.4267578125 509.134765625 40.07421875 c 1,70,71
 490.319335938 -24.1396484375 490.319335938 -24.1396484375 471.504882812 -152.313476562 c 1,72,73
 455.72265625 -118.9296875 455.72265625 -118.9296875 439.94140625 -158.473632812 c 2,74,75
 390.080078125 -168.206054688 390.080078125 -168.206054688 315.54296875 -193.666015625 c 2,76,77
 273.375 -168.750976562 273.375 -168.750976562 234.772460938 -223.8359375 c 1,78,79
 260.813476562 -65.576171875 260.813476562 -65.576171875 290.419921875 27.703125 c 1,80,81
 225.9140625 32.4306640625 225.9140625 32.4306640625 167.711914062 45.2529296875 c 0,82,83
 82.7412109375 63.9736328125 82.7412109375 63.9736328125 29.7470703125 97.34375 c 2,84,85
 17.373046875 128.418945312 17.373046875 128.418945312 5 112.926757812 c 1,86,87
 9.173828125 148.79296875 9.173828125 148.79296875 13.3486328125 140.024414062 c 2,88,89
 42.482421875 234.591796875 42.482421875 234.591796875 53.078125 310.919921875 c 2,90,91
 55.84765625 343.931640625 55.84765625 343.931640625 58.6181640625 350.829101562 c 1,92,93
 128.467773438 351.044921875 128.467773438 351.044921875 198.31640625 325.822265625 c 1,0,1
EndSplineSet
Validated: 33
EndChar

StartChar: percent
Encoding: 37 37 8
Width: 1477
GlyphClass: 2
Flags: W
LayerCount: 2
Fore
SplineSet
82.07421875 650.033203125 m 0,0,1
 5 767.010742188 5 767.010742188 5 938 c 0,2,3
 5 1042.40625 5 1042.40625 40.7060546875 1135.79199219 c 128,-1,4
 76.4130859375 1229.17773438 76.4130859375 1229.17773438 155.55859375 1294.08886719 c 128,-1,5
 234.705078125 1359 234.705078125 1359 350.151367188 1359 c 0,6,7
 437.791015625 1359 437.791015625 1359 506.081054688 1323.84667969 c 128,-1,8
 574.37109375 1288.69433594 574.37109375 1288.69433594 614.669921875 1227.03710938 c 0,9,10
 690.024414062 1111.74511719 690.024414062 1111.74511719 690.024414062 946 c 0,11,12
 690.024414062 841.59375 690.024414062 841.59375 651.12890625 748.208007812 c 128,-1,13
 612.231445312 654.822265625 612.231445312 654.822265625 526.015625 589.911132812 c 128,-1,14
 439.797851562 525 439.797851562 525 322.91796875 525 c 0,15,16
 250.0625 525 250.0625 525 195.920898438 549.731445312 c 0,17,18
 127.599609375 580.938476562 127.599609375 580.938476562 82.07421875 650.033203125 c 0,0,1
268.01953125 1136.24804688 m 0,19,20
 245 1072.52734375 245 1072.52734375 245 956 c 0,21,22
 245 825.758789062 245 825.758789062 275.3203125 744.088867188 c 0,23,24
 298.383789062 683 298.383789062 683 334.900390625 683 c 0,25,26
 352.877929688 683 352.877929688 683 366.08203125 690.771484375 c 0,27,28
 390.374023438 705.069335938 390.374023438 705.069335938 406.138671875 747.751953125 c 0,29,30
 429.672851562 811.47265625 429.672851562 811.47265625 429.672851562 928 c 0,31,32
 429.672851562 1058.24121094 429.672851562 1058.24121094 398.837890625 1139.91113281 c 0,33,34
 375.774414062 1201 375.774414062 1201 339.2578125 1201 c 0,35,36
 321.280273438 1201 321.280273438 1201 308.076171875 1193.22851562 c 0,37,38
 283.784179688 1178.93066406 283.784179688 1178.93066406 268.01953125 1136.24804688 c 0,19,20
1066.24511719 1352 m 1,39,-1
 1093.07910156 1352 l 2,40,41
 1131.33496094 1352 1131.33496094 1352 1222.98828125 1359.82714844 c 2,42,43
 1262.22265625 1323.45117188 1262.22265625 1323.45117188 1301.18945312 1367.07617188 c 1,44,45
 1281.3359375 1298.96972656 1281.3359375 1298.96972656 1261.48242188 1303.27929688 c 2,46,47
 1067.86914062 1013.0703125 1067.86914062 1013.0703125 823.126953125 619.583007812 c 0,48,49
 614.330078125 284.823242188 614.330078125 284.823242188 410.889648438 -70 c 1,50,-1
 383.920898438 -70 l 2,51,52
 341.40625 -70 341.40625 -70 254.208007812 -77.8095703125 c 2,53,54
 214.568359375 -41.6494140625 214.568359375 -41.6494140625 175.212890625 -85.48828125 c 1,55,56
 195.404296875 -17.1357421875 195.404296875 -17.1357421875 215.595703125 -21.173828125 c 2,57,58
 386.284179688 232.965820312 386.284179688 232.965820312 652.75390625 662.357421875 c 0,59,60
 856.1640625 989.642578125 856.1640625 989.642578125 1066.24511719 1352 c 1,39,-1
870.469726562 47.9248046875 m 0,61,62
 785.885742188 164.940429688 785.885742188 164.940429688 785.885742188 336 c 0,63,64
 785.885742188 440.40625 785.885742188 440.40625 824.782226562 533.791992188 c 128,-1,65
 863.678710938 627.177734375 863.678710938 627.177734375 949.895507812 692.088867188 c 128,-1,66
 1036.11230469 757 1036.11230469 757 1153.14746094 757 c 0,67,68
 1266.57714844 757 1266.57714844 757 1339.50195312 695.650390625 c 128,-1,69
 1412.42675781 634.30078125 1412.42675781 634.30078125 1442.21289062 544.389648438 c 128,-1,70
 1472 454.477539062 1472 454.477539062 1472 347.036132812 c 128,-1,71
 1472 239.59375 1472 239.59375 1436.29394531 146.208007812 c 128,-1,72
 1400.58691406 52.822265625 1400.58691406 52.822265625 1321.44140625 -12.0888671875 c 128,-1,73
 1242.29492188 -77 1242.29492188 -77 1126.84863281 -77 c 0,74,75
 1053.94921875 -77 1053.94921875 -77 994.875976562 -52.2822265625 c 0,76,77
 920.366210938 -21.10546875 920.366210938 -21.10546875 870.469726562 47.9248046875 c 0,61,62
1070.86132812 534.248046875 m 0,78,79
 1047.32714844 470.52734375 1047.32714844 470.52734375 1047.32714844 354 c 0,80,81
 1047.32714844 223.758789062 1047.32714844 223.758789062 1078.16210938 142.088867188 c 0,82,83
 1101.22558594 81 1101.22558594 81 1137.7421875 81 c 0,84,85
 1155.71972656 81 1155.71972656 81 1168.92382812 88.771484375 c 0,86,87
 1193.21582031 103.069335938 1193.21582031 103.069335938 1208.98046875 145.751953125 c 0,88,89
 1232 209.47265625 1232 209.47265625 1232 326 c 0,90,91
 1232 456.241210938 1232 456.241210938 1201.6796875 537.911132812 c 0,92,93
 1178.61621094 599 1178.61621094 599 1142.09960938 599 c 0,94,95
 1124.12207031 599 1124.12207031 599 1110.91796875 591.228515625 c 0,96,97
 1086.62597656 576.930664062 1086.62597656 576.930664062 1070.86132812 534.248046875 c 0,78,79
EndSplineSet
Validated: 33
EndChar

StartChar: ampersand
Encoding: 38 38 9
Width: 1633
GlyphClass: 2
Flags: W
LayerCount: 2
Fore
SplineSet
67.1142578125 148.754882812 m 128,-1,1
 5 239.571289062 5 239.571289062 5 353.928710938 c 0,2,3
 5 436.474609375 5 436.474609375 32.1259765625 505.642578125 c 128,-1,4
 59.2509765625 574.810546875 59.2509765625 574.810546875 115.306640625 631.951171875 c 128,-1,5
 171.361328125 689.092773438 171.361328125 689.092773438 236.540039062 733.87109375 c 0,6,7
 291.336914062 769.546875 291.336914062 769.546875 369.995117188 811.297851562 c 1,8,9
 327.729492188 877.524414062 327.729492188 877.524414062 307.795898438 927.274414062 c 0,10,11
 282.224609375 991.091796875 282.224609375 991.091796875 282.224609375 1051.54394531 c 0,12,13
 282.224609375 1190.11035156 282.224609375 1190.11035156 398.044921875 1285.0546875 c 128,-1,14
 513.865234375 1380 513.865234375 1380 680.377929688 1380 c 0,15,16
 813.333984375 1380 813.333984375 1380 898.046875 1311.5546875 c 128,-1,17
 982.758789062 1243.10839844 982.758789062 1243.10839844 982.758789062 1139.46875 c 128,-1,18
 982.758789062 1035.83007812 982.758789062 1035.83007812 901.682617188 947.232421875 c 0,19,20
 834.666992188 874.000976562 834.666992188 874.000976562 702.499023438 800.967773438 c 1,21,22
 867.895507812 597.623046875 867.895507812 597.623046875 1014.43847656 449.94140625 c 1,23,24
 1040.76953125 500.836914062 1040.76953125 500.836914062 1061.81542969 568.409179688 c 0,25,26
 1073.14941406 604.185546875 1073.14941406 604.185546875 1073.14941406 643.516601562 c 0,27,28
 1073.14941406 645.959960938 1073.14941406 645.959960938 1072.22851562 647.264648438 c 0,29,30
 1068.60058594 652.403320312 1068.60058594 652.403320312 1053.16015625 657.38671875 c 0,31,32
 1023.13769531 667.077148438 1023.13769531 667.077148438 965.671875 668.169921875 c 2,33,34
 944.622070312 667.752929688 944.622070312 667.752929688 923.573242188 668.969726562 c 1,35,36
 923.573242188 685.716796875 923.573242188 685.716796875 923.573242188 706.075195312 c 1,37,38
 923.573242188 725.313476562 923.573242188 725.313476562 923.573242188 752.51953125 c 1,39,40
 923.573242188 766.901367188 923.573242188 766.901367188 923.573242188 793.825195312 c 1,41,42
 946.954101562 784.803710938 946.954101562 784.803710938 970.334960938 790.293945312 c 2,43,44
 1043.81054688 784.747070312 1043.81054688 784.747070312 1193.375 784.747070312 c 128,-1,45
 1342.94140625 784.747070312 1342.94140625 784.747070312 1396.45898438 790.192382812 c 2,46,47
 1418.72949219 785.297851562 1418.72949219 785.297851562 1441 794.971679688 c 1,48,49
 1441 767.444335938 1441 767.444335938 1441 752.51953125 c 1,50,51
 1441 725.313476562 1441 725.313476562 1441 706.075195312 c 1,52,53
 1441 685.770507812 1441 685.770507812 1441 669.081054688 c 1,54,55
 1421.5 667.806640625 1421.5 667.806640625 1402 668.171875 c 2,56,57
 1303.91796875 666.015625 1303.91796875 666.015625 1292.12109375 629.374023438 c 0,58,59
 1291.97460938 630.190429688 1291.97460938 630.190429688 1291.83007812 628.5078125 c 1,60,61
 1253.39355469 519.201171875 1253.39355469 519.201171875 1219.23535156 452.2890625 c 128,-1,62
 1185.07617188 385.376953125 1185.07617188 385.376953125 1138.39160156 326.1640625 c 1,63,64
 1258.86230469 212.8203125 1258.86230469 212.8203125 1315.7109375 175.564453125 c 128,-1,65
 1372.56054688 138.309570312 1372.56054688 138.309570312 1410 138.309570312 c 0,66,67
 1452.32324219 138.309570312 1452.32324219 138.309570312 1478.41699219 149.551757812 c 128,-1,68
 1504.50976562 160.793945312 1504.50976562 160.793945312 1545.69726562 197.287109375 c 2,69,70
 1554.66015625 228.573242188 1554.66015625 228.573242188 1563.62402344 213.170898438 c 1,71,72
 1575.13964844 232.338867188 1575.13964844 232.338867188 1586.65527344 205.232421875 c 1,73,74
 1592.15527344 226.779296875 1592.15527344 226.779296875 1597.65527344 201.44140625 c 1,75,76
 1612.79296875 220.037109375 1612.79296875 220.037109375 1627.9296875 191.005859375 c 1,77,78
 1619.35742188 157.674804688 1619.35742188 157.674804688 1610.78417969 69.8544921875 c 1,79,80
 1605.69628906 95.89453125 1605.69628906 95.89453125 1600.60839844 60.6484375 c 2,81,82
 1530.3984375 -2.8759765625 1530.3984375 -2.8759765625 1470.36523438 -32.1103515625 c 128,-1,83
 1410.33300781 -61.34375 1410.33300781 -61.34375 1311.58691406 -74.1923828125 c 1,84,85
 1309.30371094 -34.052734375 1309.30371094 -34.052734375 1307.02050781 -73.912109375 c 2,86,87
 1198.00585938 -67.232421875 1198.00585938 -67.232421875 1112.8046875 -16.1328125 c 0,88,89
 1040.80957031 27.046875 1040.80957031 27.046875 938.475585938 136.143554688 c 1,90,91
 833.67578125 48.4951171875 833.67578125 48.4951171875 727.006835938 8.8447265625 c 0,92,93
 603.674804688 -37 603.674804688 -37 449.018554688 -37 c 0,94,95
 329.91015625 -37 329.91015625 -37 226.770507812 10.46875 c 0,96,0
 129.227539062 57.9384765625 129.227539062 57.9384765625 67.1142578125 148.754882812 c 128,-1,1
337.6796875 631.186523438 m 0,97,98
 271.463867188 552.844726562 271.463867188 552.844726562 271.463867188 450 c 0,99,100
 271.463867188 341.42578125 271.463867188 341.42578125 354.256835938 263.618164062 c 0,101,102
 436.84765625 186 436.84765625 186 573.844726562 186 c 128,-1,103
 711.016601562 186 711.016601562 186 824.793945312 266.725585938 c 1,104,105
 675.723632812 441.459960938 675.723632812 441.459960938 459.859375 728.2109375 c 1,106,107
 382.98828125 684.790039062 382.98828125 684.790039062 337.6796875 631.186523438 c 0,97,98
566.791992188 1186.87304688 m 128,-1,109
 542.638671875 1161.74609375 542.638671875 1161.74609375 542.638671875 1117 c 0,110,111
 542.638671875 1052.515625 542.638671875 1052.515625 561.962890625 998.642578125 c 0,112,113
 577.409179688 955.577148438 577.409179688 955.577148438 610.581054688 899.19140625 c 1,114,115
 668.897460938 932.525390625 668.897460938 932.525390625 702.1484375 974.630859375 c 0,116,117
 742.791015625 1026.09472656 742.791015625 1026.09472656 742.791015625 1087.04003906 c 128,-1,118
 742.791015625 1147.98535156 742.791015625 1147.98535156 709.913085938 1179.9921875 c 128,-1,119
 677.036132812 1212 677.036132812 1212 624.420898438 1212 c 0,120,108
 590.947265625 1212 590.947265625 1212 566.791992188 1186.87304688 c 128,-1,109
EndSplineSet
Validated: 1
EndChar

StartChar: quotesingle
Encoding: 39 39 10
Width: 228
GlyphClass: 2
Flags: W
LayerCount: 2
Fore
SplineSet
5 1430.86621094 m 1,0,1
 24.2939453125 1393.27832031 24.2939453125 1393.27832031 43.5869140625 1435.68945312 c 2,2,3
 78.0703125 1440 78.0703125 1440 114.08984375 1440 c 128,-1,4
 150.109375 1440 150.109375 1440 184.592773438 1435.68945312 c 2,5,6
 203.83203125 1393.28515625 203.83203125 1393.28515625 223.0703125 1430.87988281 c 1,7,8
 221.240234375 1381.43066406 221.240234375 1381.43066406 219.411132812 1397.21777344 c 2,9,10
 198.541992188 1205.26074219 198.541992188 1205.26074219 189.577148438 894.977539062 c 2,11,12
 189.086914062 835.489257812 189.086914062 835.489257812 188.59765625 776 c 1,13,-1
 40.5087890625 776 l 1,14,15
 40.0546875 835.52734375 40.0546875 835.52734375 39.6005859375 895.053710938 c 2,16,17
 31.6357421875 1193.06542969 31.6357421875 1193.06542969 8.7802734375 1397.11816406 c 2,18,19
 6.8896484375 1381.38085938 6.8896484375 1381.38085938 5 1430.86621094 c 1,0,1
EndSplineSet
Validated: 1
EndChar

StartChar: parenleft
Encoding: 40 40 11
Width: 557
GlyphClass: 2
Flags: W
LayerCount: 2
Fore
SplineSet
5 629 m 128,-1,1
 5 883.913085938 5 883.913085938 125.658203125 1105.15039062 c 0,2,3
 246.31640625 1325.73632812 246.31640625 1325.73632812 446.852539062 1454.0234375 c 2,4,5
 462.360351562 1431.08007812 462.360351562 1431.08007812 477.868164062 1474.70117188 c 1,6,7
 489.278320312 1444.11035156 489.278320312 1444.11035156 500.688476562 1453.96875 c 1,8,9
 514.188476562 1412.03613281 514.188476562 1412.03613281 527.688476562 1418.96875 c 1,10,11
 539.60546875 1366.4609375 539.60546875 1366.4609375 551.5234375 1381.42089844 c 1,12,13
 536.3359375 1338.03613281 536.3359375 1338.03613281 521.1484375 1356.81933594 c 2,14,15
 194 1102.69335938 194 1102.69335938 194 628.5 c 128,-1,16
 194 154.306640625 194 154.306640625 521.1484375 -99.8193359375 c 2,17,18
 536.3359375 -81.0361328125 536.3359375 -81.0361328125 551.5234375 -124.420898438 c 1,19,20
 539.60546875 -109.4609375 539.60546875 -109.4609375 527.688476562 -161.96875 c 1,21,22
 514.188476562 -155.036132812 514.188476562 -155.036132812 500.688476562 -196.96875 c 1,23,24
 489.278320312 -187.110351562 489.278320312 -187.110351562 477.868164062 -217.701171875 c 1,25,26
 462.360351562 -174.080078125 462.360351562 -174.080078125 446.852539062 -197.0234375 c 2,27,28
 246.299804688 -68.7294921875 246.299804688 -68.7294921875 125.650390625 152.33203125 c 0,29,0
 5 374.079101562 5 374.079101562 5 629 c 128,-1,1
EndSplineSet
Validated: 1
EndChar

StartChar: parenright
Encoding: 41 41 12
Width: 557
GlyphClass: 2
Flags: W
LayerCount: 2
Fore
SplineSet
551.5234375 629 m 128,-1,1
 551.5234375 374.079101562 551.5234375 374.079101562 430.873046875 152.33203125 c 0,2,3
 310.22265625 -68.7294921875 310.22265625 -68.7294921875 109.670898438 -197.0234375 c 2,4,5
 94.1630859375 -174.080078125 94.1630859375 -174.080078125 78.6552734375 -217.701171875 c 1,6,7
 67.2451171875 -187.110351562 67.2451171875 -187.110351562 55.8349609375 -196.96875 c 1,8,9
 42.3349609375 -155.036132812 42.3349609375 -155.036132812 28.8349609375 -161.96875 c 1,10,11
 16.9169921875 -109.4609375 16.9169921875 -109.4609375 5 -124.420898438 c 1,12,13
 20.1875 -81.029296875 20.1875 -81.029296875 35.375 -99.8154296875 c 2,14,15
 362.5234375 154.2421875 362.5234375 154.2421875 362.5234375 628.465820312 c 128,-1,16
 362.5234375 1102.69335938 362.5234375 1102.69335938 35.375 1356.81933594 c 2,17,18
 20.1875 1338.03613281 20.1875 1338.03613281 5 1381.42089844 c 1,19,20
 16.9169921875 1366.4609375 16.9169921875 1366.4609375 28.8349609375 1418.96875 c 1,21,22
 42.3349609375 1412.03613281 42.3349609375 1412.03613281 55.8349609375 1453.96875 c 1,23,24
 67.2451171875 1444.11035156 67.2451171875 1444.11035156 78.6552734375 1474.70117188 c 1,25,26
 94.1630859375 1431.08007812 94.1630859375 1431.08007812 109.670898438 1454.0234375 c 2,27,28
 310.206054688 1325.73632812 310.206054688 1325.73632812 430.865234375 1105.15039062 c 0,29,0
 551.5234375 883.913085938 551.5234375 883.913085938 551.5234375 629 c 128,-1,1
EndSplineSet
Validated: 1
EndChar

StartChar: asterisk
Encoding: 42 42 13
Width: 1210
GlyphClass: 2
Flags: W
LayerCount: 2
Fore
SplineSet
604.9296875 1106 m 128,-1,1
 649.458007812 1106 649.458007812 1106 678.215820312 1107.99902344 c 2,2,3
 705.072265625 1069.87304688 705.072265625 1069.87304688 731.9296875 1111.52832031 c 1,4,5
 729.186523438 1100.25292969 729.186523438 1100.25292969 726.444335938 1099.8125 c 2,6,7
 701.43359375 885.258789062 701.43359375 885.258789062 688.7890625 700.47265625 c 1,8,9
 886.30859375 768.502929688 886.30859375 768.502929688 1091.80371094 855.611328125 c 2,10,-1
 1135.6640625 838.38671875 l 1,11,-1
 1146.83300781 828.334960938 l 2,12,13
 1163.04589844 760.620117188 1163.04589844 760.620117188 1185.71386719 707.727539062 c 2,14,-1
 1204.859375 663.055664062 l 1,15,-1
 1157.32714844 652.884765625 l 2,16,17
 947.920898438 608.34375 947.920898438 608.34375 739.123046875 559.40234375 c 1,18,19
 866.881835938 433.615234375 866.881835938 433.615234375 1028.80761719 278.186523438 c 2,20,21
 1045.89160156 287.30078125 1045.89160156 287.30078125 1062.9765625 248.705078125 c 1,22,23
 1040.15917969 272.329101562 1040.15917969 272.329101562 1017.34277344 224.975585938 c 2,24,25
 971.529296875 199.428710938 971.529296875 199.428710938 909.504882812 146.991210938 c 2,26,27
 888.897460938 161.376953125 888.897460938 161.376953125 868.291015625 115.306640625 c 1,28,29
 854.614257812 150.196289062 854.614257812 150.196289062 840.938476562 147.04296875 c 2,30,31
 729.748046875 307.6015625 729.748046875 307.6015625 604.9296875 472.505859375 c 1,32,33
 480.109375 307.603515625 480.109375 307.603515625 368.920898438 147.04296875 c 2,34,35
 355.245117188 150.196289062 355.245117188 150.196289062 341.568359375 115.306640625 c 1,36,37
 320.961914062 161.376953125 320.961914062 161.376953125 300.354492188 146.991210938 c 2,38,39
 238.330078125 199.428710938 238.330078125 199.428710938 192.515625 224.975585938 c 2,40,41
 169.69921875 272.329101562 169.69921875 272.329101562 146.8828125 248.705078125 c 1,42,43
 163.967773438 287.30078125 163.967773438 287.30078125 181.051757812 278.186523438 c 2,44,45
 342.977539062 433.615234375 342.977539062 433.615234375 470.736328125 559.40234375 c 1,46,47
 261.938476562 608.34375 261.938476562 608.34375 52.5322265625 652.884765625 c 2,48,-1
 5 663.055664062 l 1,49,-1
 24.1455078125 707.727539062 l 2,50,51
 46.8134765625 760.620117188 46.8134765625 760.620117188 63.0263671875 828.334960938 c 2,52,-1
 74.1943359375 838.38671875 l 1,53,-1
 118.055664062 855.611328125 l 2,54,55
 323.541015625 768.506835938 323.541015625 768.506835938 521.052734375 700.478515625 c 1,56,57
 508.408203125 869.993164062 508.408203125 869.993164062 477.952148438 1111.52734375 c 1,58,59
 504.797851562 1069.87207031 504.797851562 1069.87207031 531.643554688 1107.99902344 c 2,60,0
 560.401367188 1106 560.401367188 1106 604.9296875 1106 c 128,-1,1
EndSplineSet
Validated: 1
EndChar

StartChar: plus
Encoding: 43 43 14
Width: 1084
GlyphClass: 2
Flags: W
LayerCount: 2
Fore
SplineSet
66.28515625 594.963867188 m 2,0,1
 208.435546875 589 208.435546875 589 447.639648438 589 c 2,2,-1
 448.798828125 589 l 1,3,-1
 448.798828125 630.788085938 l 2,4,5
 448.798828125 823.509765625 448.798828125 823.509765625 441.884765625 952.64453125 c 2,6,7
 440.99609375 934.4296875 440.99609375 934.4296875 440.106445312 985.849609375 c 1,8,9
 545.682617188 957.9296875 545.682617188 957.9296875 651.256835938 1010.00976562 c 1,10,11
 649.694335938 953.3515625 649.694335938 953.3515625 648.130859375 965.92578125 c 2,12,13
 636.615234375 803.544921875 636.615234375 803.544921875 636.610351562 631.008789062 c 2,14,-1
 636.610351562 589 l 1,15,-1
 637.76953125 589 l 2,16,17
 852.502929688 589 852.502929688 589 1030.3203125 598.936523438 c 2,18,-1
 1078.625 601.635742188 l 1,19,-1
 1055.40722656 427.502929688 l 1,20,-1
 1018.87988281 429.036132812 l 2,21,22
 876.729492188 435 876.729492188 435 637.76953125 435 c 2,23,-1
 636.610351562 435 l 1,24,-1
 636.610351562 393.211914062 l 2,25,26
 636.610351562 200.490234375 636.610351562 200.490234375 643.525390625 71.35546875 c 2,27,28
 644.4140625 89.5703125 644.4140625 89.5703125 645.302734375 38.150390625 c 1,29,30
 539.728515625 66.0703125 539.728515625 66.0703125 434.15234375 13.990234375 c 1,31,32
 435.715820312 70.6484375 435.715820312 70.6484375 437.279296875 58.07421875 c 2,33,34
 448.795898438 220.455078125 448.795898438 220.455078125 448.798828125 392.991210938 c 2,35,-1
 448.798828125 435 l 1,36,-1
 447.639648438 435 l 2,37,38
 231.655273438 435 231.655273438 435 53.8447265625 425.063476562 c 2,39,-1
 5 422.333984375 l 1,40,-1
 30.154296875 596.48046875 l 1,41,-1
 66.28515625 594.963867188 l 2,0,1
EndSplineSet
Validated: 33
EndChar

StartChar: comma
Encoding: 44 44 15
Width: 391
GlyphClass: 2
Flags: W
LayerCount: 2
Fore
SplineSet
142.573242188 -124.510742188 m 0,0,1
 175 -89.5048828125 175 -89.5048828125 175 -53.6396484375 c 0,2,3
 175 -48.9462890625 175 -48.9462890625 172.875976562 -46.3857421875 c 128,-1,4
 170.610351562 -43.65625 170.610351562 -43.65625 165.006835938 -40.9970703125 c 0,5,6
 148.114257812 -32.9794921875 148.114257812 -32.9794921875 112.740234375 -30.5458984375 c 2,7,8
 105.748046875 -32.416015625 105.748046875 -32.416015625 98.7568359375 -29.583984375 c 1,9,10
 67.8203125 -10.8046875 67.8203125 -10.8046875 36.8837890625 20.232421875 c 1,11,12
 38.0849609375 17.6484375 38.0849609375 17.6484375 39.2861328125 37.271484375 c 2,13,14
 46.6025390625 89.1650390625 46.6025390625 89.1650390625 105.129882812 151.6484375 c 0,15,16
 121.984375 171.358398438 121.984375 171.358398438 143.694335938 182.908203125 c 0,17,18
 172.641601562 201 172.641601562 201 208.65625 201 c 128,-1,19
 244.669921875 201 244.669921875 201 275.087890625 188.729492188 c 0,20,21
 314.279296875 175.159179688 314.279296875 175.159179688 341.235351562 145.049804688 c 0,22,23
 386 95.0458984375 386 95.0458984375 386 22.443359375 c 0,24,25
 386 -143.271484375 386 -143.271484375 126.586914062 -296.008789062 c 2,26,27
 118.661132812 -261.4453125 118.661132812 -261.4453125 110.734375 -306.8828125 c 1,28,29
 57.8671875 -250.75390625 57.8671875 -250.75390625 5 -274.625 c 1,30,31
 5 -229.846679688 5 -229.846679688 5 -249.409179688 c 1,32,33
 5 -215.854492188 5 -215.854492188 5 -241.748046875 c 1,34,35
 5 -205.009765625 5 -205.009765625 5 -223.92578125 c 1,36,37
 13.625 -193.092773438 13.625 -193.092773438 22.2509765625 -213.748046875 c 2,38,39
 105.303710938 -164.745117188 105.303710938 -164.745117188 142.573242188 -124.510742188 c 0,0,1
EndSplineSet
Validated: 37
EndChar

StartChar: hyphen
Encoding: 45 45 16
Width: 757
GlyphClass: 2
Flags: W
LayerCount: 2
Fore
SplineSet
5 462.333984375 m 1,0,1
 17.5771484375 509.407226562 17.5771484375 509.407226562 30.154296875 556.48046875 c 1,2,3
 208.435546875 549 208.435546875 549 361.74609375 549 c 0,4,5
 525.448242188 549 525.448242188 549 703.3203125 558.936523438 c 2,6,7
 727.47265625 520.286132812 727.47265625 520.286132812 751.625 561.635742188 c 1,8,9
 740.016601562 514.569335938 740.016601562 514.569335938 728.407226562 467.502929688 c 1,10,11
 549.729492188 395 549.729492188 395 396.392578125 395 c 0,12,13
 231.716796875 395 231.716796875 395 53.8447265625 465.063476562 c 2,14,15
 29.421875 503.698242188 29.421875 503.698242188 5 462.333984375 c 1,0,1
EndSplineSet
Validated: 1
EndChar

StartChar: period
Encoding: 46 46 17
Width: 336
GlyphClass: 2
Flags: W
LayerCount: 2
Fore
SplineSet
168 -100 m 128,-1,1
 95.4423828125 -100 95.4423828125 -100 50.2216796875 -54.7783203125 c 128,-1,2
 5 -9.5576171875 5 -9.5576171875 5 62.5 c 128,-1,3
 5 134.557617188 5 134.557617188 50.2216796875 179.778320312 c 128,-1,4
 95.4423828125 225 95.4423828125 225 168 225 c 128,-1,5
 240.557617188 225 240.557617188 225 285.778320312 179.778320312 c 128,-1,6
 331 134.557617188 331 134.557617188 331 62.5 c 128,-1,7
 331 -9.5576171875 331 -9.5576171875 285.778320312 -54.7783203125 c 128,-1,0
 240.557617188 -100 240.557617188 -100 168 -100 c 128,-1,1
EndSplineSet
Validated: 1
EndChar

StartChar: slash
Encoding: 47 47 18
Width: 821
GlyphClass: 2
Flags: W
LayerCount: 2
Fore
SplineSet
30.1123046875 -33.1142578125 m 2,0,1
 160.831054688 311.658203125 160.831054688 311.658203125 309.2578125 710.036132812 c 0,2,3
 487.698242188 1093.54492188 487.698242188 1093.54492188 602.206054688 1395.51074219 c 1,4,5
 616.34375 1356.31054688 616.34375 1356.31054688 630.481445312 1396.99902344 c 2,6,7
 684.516601562 1399.98242188 684.516601562 1399.98242188 745.62109375 1413 c 2,8,9
 780.924804688 1380.97167969 780.924804688 1380.97167969 816.227539062 1427.34277344 c 1,10,11
 803.671875 1389.59667969 803.671875 1389.59667969 791.116210938 1385.11425781 c 2,12,13
 660.397460938 1040.34179688 660.397460938 1040.34179688 511.970703125 641.963867188 c 0,14,15
 333.529296875 258.455078125 333.529296875 258.455078125 219.022460938 -43.5107421875 c 1,16,17
 204.884765625 -4.310546875 204.884765625 -4.310546875 190.74609375 -44.9990234375 c 2,18,19
 136.711914062 -47.982421875 136.711914062 -47.982421875 75.6064453125 -61 c 2,20,21
 40.3037109375 -28.9716796875 40.3037109375 -28.9716796875 5 -75.3427734375 c 1,22,23
 17.5556640625 -37.5966796875 17.5556640625 -37.5966796875 30.1123046875 -33.1142578125 c 2,0,1
EndSplineSet
Validated: 33
EndChar

StartChar: zero
Encoding: 48 48 19
Width: 977
GlyphClass: 2
Flags: W
LayerCount: 2
Fore
SplineSet
111.944335938 137.172851562 m 0,0,1
 5 300.399414062 5 300.399414062 5 628.842773438 c 0,2,3
 5 820.3125 5 820.3125 55.43359375 973.862304688 c 128,-1,4
 105.8671875 1127.41113281 105.8671875 1127.41113281 210.98046875 1221.43359375 c 0,5,6
 334.073242188 1319 334.073242188 1319 513.146484375 1319 c 0,7,8
 621.21875 1319 621.21875 1319 709.029296875 1282.50976562 c 0,9,10
 802.936523438 1239.63769531 802.936523438 1239.63769531 865.055664062 1144.82714844 c 0,11,12
 972 981.600585938 972 981.600585938 972 653.157226562 c 0,13,14
 972 461.6875 972 461.6875 921.56640625 308.137695312 c 128,-1,15
 871.1328125 154.588867188 871.1328125 154.588867188 766.01953125 60.56640625 c 0,16,17
 642.926757812 -37 642.926757812 -37 463.853515625 -37 c 0,18,19
 355.78125 -37 355.78125 -37 267.970703125 -0.509765625 c 0,20,21
 174.063476562 42.3623046875 174.063476562 42.3623046875 111.944335938 137.172851562 c 0,0,1
324.669921875 964.306640625 m 0,22,23
 294.331054688 840.131835938 294.331054688 840.131835938 294.331054688 641 c 0,24,25
 294.331054688 398.673828125 294.331054688 398.673828125 357.887695312 255.182617188 c 0,26,27
 384.319335938 195.508789062 384.319335938 195.508789062 420.009765625 163.254882812 c 128,-1,28
 455.700195312 131 455.700195312 131 502.326171875 131 c 0,29,30
 529.087890625 131 529.087890625 131 549.87890625 142.376953125 c 0,31,32
 617.310546875 179.274414062 617.310546875 179.274414062 651.127929688 317.693359375 c 0,33,34
 681.466796875 441.868164062 681.466796875 441.868164062 681.466796875 641 c 0,35,36
 681.466796875 883.326171875 681.466796875 883.326171875 617.91015625 1026.81738281 c 0,37,38
 591.478515625 1086.49121094 591.478515625 1086.49121094 555.788085938 1118.74511719 c 128,-1,39
 520.09765625 1151 520.09765625 1151 473.471679688 1151 c 0,40,41
 446.709960938 1151 446.709960938 1151 425.918945312 1139.62304688 c 0,42,43
 358.487304688 1102.72558594 358.487304688 1102.72558594 324.669921875 964.306640625 c 0,22,23
EndSplineSet
Validated: 1
EndChar

StartChar: one
Encoding: 49 49 20
Width: 881
GlyphClass: 2
Flags: W
LayerCount: 2
Fore
SplineSet
403.509765625 1019.91210938 m 1,0,1
 188.154296875 953.798828125 188.154296875 953.798828125 5 922.622070312 c 1,2,3
 5 979.666015625 5 979.666015625 5 1074.87890625 c 1,4,5
 19.9443359375 1054.77148438 19.9443359375 1054.77148438 34.888671875 1082.21679688 c 2,6,7
 215.166015625 1126.48046875 215.166015625 1126.48046875 351.4765625 1178.59667969 c 0,8,9
 497.295898438 1230.71289062 497.295898438 1230.71289062 619.697265625 1314.42871094 c 2,10,11
 630.370117188 1282.20996094 630.370117188 1282.20996094 638.8203125 1329.99121094 c 1,12,13
 649.791992188 1286.61523438 649.791992188 1286.61523438 660.763671875 1323.23925781 c 1,14,15
 680.263671875 1277.23925781 680.263671875 1277.23925781 699.763671875 1311.23925781 c 1,16,17
 716.900390625 1265.96679688 716.900390625 1265.96679688 734.036132812 1300.69433594 c 1,18,19
 730.661132812 1247.47753906 730.661132812 1247.47753906 727.286132812 1267.53808594 c 2,20,21
 709.802734375 1181.65820312 709.802734375 1181.65820312 705.901367188 1111.02148438 c 128,-1,22
 702 1040.38574219 702 1040.38574219 702 842.912109375 c 2,23,24
 702 762.58984375 702 762.58984375 702 694.297851562 c 2,25,26
 702 294.075195312 702 294.075195312 717.75390625 152.013671875 c 0,27,28
 718.33984375 147.485351562 718.33984375 147.485351562 720.926757812 144.143554688 c 0,29,30
 727.283203125 135.930664062 727.283203125 135.930664062 746.271484375 129.580078125 c 0,31,32
 778.495117188 118.802734375 778.495117188 118.802734375 836.813476562 117.705078125 c 2,33,34
 856.407226562 150.009765625 856.407226562 150.009765625 876 116.967773438 c 1,35,36
 876 132.319335938 876 132.319335938 876 80.0888671875 c 1,37,38
 876 93.2998046875 876 93.2998046875 876 34 c 1,39,40
 876 52.5888671875 876 52.5888671875 876 -8.8212890625 c 1,41,42
 854.622070312 32.6357421875 854.622070312 32.6357421875 833.244140625 -5.90625 c 2,43,44
 746.6171875 0 746.6171875 0 554.264648438 0 c 0,45,46
 330.82421875 0 330.82421875 0 185.885742188 -5.9560546875 c 2,47,48
 164.943359375 33.0693359375 164.943359375 33.0693359375 144 -7.904296875 c 1,49,50
 144 53.0478515625 144 53.0478515625 144 34 c 1,51,52
 144 93.3515625 144 93.3515625 144 80.1181640625 c 1,53,54
 144 132.513671875 144 132.513671875 144 117.219726562 c 1,55,56
 163.702148438 150.229492188 163.702148438 150.229492188 183.404296875 117.762695312 c 2,57,58
 300 119.225585938 300 119.225585938 358.346679688 137.215820312 c 0,59,60
 384.74609375 145.35546875 384.74609375 145.35546875 385.717773438 152.25390625 c 0,61,62
 406.921875 303.831054688 406.921875 303.831054688 406.920898438 694.71875 c 0,63,64
 406.920898438 899.130859375 406.920898438 899.130859375 403.509765625 1019.91210938 c 1,0,1
EndSplineSet
Validated: 37
EndChar

StartChar: two
Encoding: 50 50 21
Width: 1053
GlyphClass: 2
Flags: W
LayerCount: 2
Fore
SplineSet
213.477539062 282.162109375 m 0,0,1
 293.580078125 364.127929688 293.580078125 364.127929688 433.137695312 509.901367188 c 0,2,3
 595.143554688 680.521484375 595.143554688 680.521484375 649.750976562 772.118164062 c 128,-1,4
 704.356445312 863.71484375 704.356445312 863.71484375 704.356445312 955.22265625 c 128,-1,5
 704.356445312 1046.73046875 704.356445312 1046.73046875 655.443359375 1095.83496094 c 0,6,7
 610.453125 1141 610.453125 1141 520.256835938 1141 c 128,-1,8
 430.05859375 1141 430.05859375 1141 355.473632812 1054.95507812 c 0,9,10
 315.0546875 1003.36914062 315.0546875 1003.36914062 295.678710938 890.16796875 c 2,11,12
 292.897460938 833.918945312 292.897460938 833.918945312 290.116210938 857.669921875 c 1,13,14
 203.987304688 813.698242188 203.987304688 813.698242188 123.565429688 849.7265625 c 1,15,16
 126.204101562 833.125976562 126.204101562 833.125976562 128.842773438 896.524414062 c 2,17,18
 143.674804688 1028.03222656 143.674804688 1028.03222656 149.221679688 1175.57324219 c 1,19,20
 155.013671875 1141.16992188 155.013671875 1141.16992188 160.805664062 1186.765625 c 2,21,22
 225.751953125 1249.50976562 225.751953125 1249.50976562 328.817382812 1284.25488281 c 0,23,24
 436.125976562 1319 436.125976562 1319 556.989257812 1319 c 0,25,26
 772.557617188 1319 772.557617188 1319 885.953125 1234.50878906 c 0,27,28
 998.588867188 1147.24121094 998.588867188 1147.24121094 998.588867188 997.365234375 c 0,29,30
 998.588867188 901.442382812 998.588867188 901.442382812 932.579101562 793.357421875 c 128,-1,31
 866.569335938 685.271484375 866.569335938 685.271484375 680.662109375 494.084960938 c 0,32,33
 576.646484375 393.423828125 576.646484375 393.423828125 515.775390625 323.494140625 c 0,34,35
 474.583007812 276.172851562 474.583007812 276.172851562 430.594726562 218.657226562 c 1,36,37
 590.28515625 220.165039062 590.28515625 220.165039062 723.123046875 227.604492188 c 0,38,39
 809.609375 232.778320312 809.609375 232.778320312 843.20703125 247.0390625 c 0,40,41
 872.038085938 259.276367188 872.038085938 259.276367188 896.568359375 296.59375 c 2,42,43
 902.04296875 324.783203125 902.04296875 324.783203125 907.516601562 313.25 c 1,44,45
 977.895507812 336.375976562 977.895507812 336.375976562 1048.27441406 321.176757812 c 1,46,47
 1042.44628906 317.032226562 1042.44628906 317.032226562 1036.61816406 272.233398438 c 2,48,49
 1006.17480469 144.409179688 1006.17480469 144.409179688 994.413085938 26.072265625 c 2,50,51
 992.635742188 44.8984375 992.635742188 44.8984375 990.857421875 -9.7001953125 c 1,52,53
 971.796875 31.1708984375 971.796875 31.1708984375 952.735351562 -7.9580078125 c 2,54,55
 774.615234375 0 774.615234375 0 539.446289062 0 c 0,56,57
 244.358398438 0 244.358398438 0 63.1123046875 -15.8466796875 c 2,58,59
 46.5263671875 22.703125 46.5263671875 22.703125 29.9404296875 -18.7470703125 c 1,60,61
 25.4921875 37.2685546875 25.4921875 37.2685546875 21.04296875 13.28515625 c 1,62,63
 16.04296875 66.3291015625 16.04296875 66.3291015625 11.04296875 46.900390625 c 1,64,65
 8.021484375 91.5078125 8.021484375 91.5078125 5 67.21484375 c 1,66,67
 139.721679688 200.349609375 139.721679688 200.349609375 213.477539062 282.162109375 c 0,0,1
EndSplineSet
Validated: 37
EndChar

StartChar: three
Encoding: 51 51 22
Width: 963
GlyphClass: 2
Flags: W
LayerCount: 2
Fore
SplineSet
232.016601562 159.626953125 m 0,0,1
 295.340820312 139 295.340820312 139 372.50390625 139 c 0,2,3
 488.967773438 139 488.967773438 139 577.083007812 201.315429688 c 128,-1,4
 665.198242188 263.630859375 665.198242188 263.630859375 665.198242188 368.159179688 c 0,5,6
 665.198242188 487.55859375 665.198242188 487.55859375 586.060546875 544.279296875 c 128,-1,7
 506.923828125 601 506.923828125 601 327.752929688 601 c 2,8,-1
 266.568359375 601 l 1,9,-1
 311.254882812 757 l 1,10,-1
 349.5234375 757 l 2,11,12
 431.853515625 757 431.853515625 757 494.018554688 776.166992188 c 128,-1,13
 556.184570312 795.334960938 556.184570312 795.334960938 591.859375 826.627929688 c 128,-1,14
 627.53515625 857.920898438 627.53515625 857.920898438 646.323242188 896.612304688 c 128,-1,15
 665.198242188 935.477539062 665.198242188 935.477539062 665.198242188 977.981445312 c 0,16,17
 665.198242188 1054.43164062 665.198242188 1054.43164062 625.447265625 1093.97460938 c 0,18,19
 578.17578125 1141 578.17578125 1141 463.21484375 1141 c 0,20,21
 369.411132812 1141 369.411132812 1141 292.2578125 1054.88867188 c 0,22,23
 251.752929688 1005.35058594 251.752929688 1005.35058594 235.0078125 890.258789062 c 2,24,25
 232.66015625 833.956054688 232.66015625 833.956054688 230.3125 857.654296875 c 1,26,27
 149.268554688 813.700195312 149.268554688 813.700195312 68.224609375 849.747070312 c 1,28,29
 70.9560546875 833.20703125 70.9560546875 833.20703125 73.6875 896.66796875 c 2,30,31
 90.49609375 1041.01953125 90.49609375 1041.01953125 94.978515625 1175.50488281 c 1,32,33
 100.806640625 1141.13574219 100.806640625 1141.13574219 106.634765625 1186.765625 c 2,34,35
 171.55078125 1249.48144531 171.55078125 1249.48144531 265.314453125 1284.24023438 c 0,36,37
 375.671875 1319 375.671875 1319 500.708984375 1319 c 0,38,39
 725.698242188 1319 725.698242188 1319 836.23828125 1233.56835938 c 0,40,41
 950.41796875 1145.32324219 950.41796875 1145.32324219 950.41796875 1001.02148438 c 0,42,43
 950.41796875 889.224609375 950.41796875 889.224609375 870.643554688 799.005859375 c 0,44,45
 820.061523438 741.80078125 820.061523438 741.80078125 735.693359375 699.401367188 c 1,46,47
 822.529296875 664.486328125 822.529296875 664.486328125 875.557617188 604.920898438 c 0,48,49
 958.41796875 511.844726562 958.41796875 511.844726562 958.41796875 390.541015625 c 0,50,51
 958.41796875 311.859375 958.41796875 311.859375 921.09375 240.899414062 c 128,-1,52
 883.76953125 169.938476562 883.76953125 169.938476562 824.499023438 120.68359375 c 128,-1,53
 765.228515625 71.4287109375 765.228515625 71.4287109375 688.259765625 35.3564453125 c 0,54,55
 600.262695312 -0.7216796875 600.262695312 -0.7216796875 509.361328125 -18.3251953125 c 0,56,57
 418.368164062 -37 418.368164062 -37 335.009765625 -37 c 0,58,59
 175.95703125 -37 175.95703125 -37 73.052734375 2.6611328125 c 2,60,61
 61.59765625 47.076171875 61.59765625 47.076171875 50.142578125 11.4912109375 c 1,62,63
 48.8857421875 63.673828125 48.8857421875 63.673828125 47.6298828125 35.857421875 c 2,64,65
 37.8740234375 130.490234375 37.8740234375 130.490234375 15.3955078125 230.176757812 c 2,66,67
 10.1982421875 293.228515625 10.1982421875 293.228515625 5 276.280273438 c 1,68,69
 80.4814453125 320.533203125 80.4814453125 320.533203125 155.962890625 284.78515625 c 1,70,71
 160.059570312 308.891601562 160.059570312 308.891601562 164.15625 252.998046875 c 2,72,73
 183.837890625 176.630859375 183.837890625 176.630859375 232.016601562 159.626953125 c 0,0,1
EndSplineSet
Validated: 37
EndChar

StartChar: four
Encoding: 52 52 23
Width: 1050
GlyphClass: 2
Flags: W
LayerCount: 2
Fore
SplineSet
5 425.223632812 m 1,0,1
 5 448.256835938 5 448.256835938 5 443.946289062 c 1,2,3
 5 460.594726562 5 460.594726562 5 451.467773438 c 1,4,5
 5 470.258789062 5 470.258789062 5 464.502929688 c 1,6,7
 176.689453125 669.2421875 176.689453125 669.2421875 321.8828125 855.881835938 c 0,8,9
 479.723632812 1042.52148438 479.723632812 1042.52148438 669.645507812 1292.75292969 c 1,10,11
 777.044921875 1266.67773438 777.044921875 1266.67773438 872.034179688 1320.6015625 c 1,12,13
 868.32421875 1257.66601562 868.32421875 1257.66601562 864.615234375 1269.53808594 c 2,14,15
 841 1107.00390625 841 1107.00390625 841 932.030273438 c 2,16,17
 841 706.55859375 841 706.55859375 841 510.422851562 c 1,18,19
 943.047851562 507.134765625 943.047851562 507.134765625 1045.09472656 510.422851562 c 1,20,21
 1037.88085938 435.904296875 1037.88085938 435.904296875 1030.66601562 368.390625 c 1,22,23
 1020.7578125 363.131835938 1020.7578125 363.131835938 1010.84960938 358.875 c 1,24,25
 1006.84960938 356.717773438 1006.84960938 356.717773438 1002.84960938 355.033203125 c 1,26,-1
 994.450195312 351 l 1,27,-1
 843.796875 351 l 1,28,29
 847.247070312 218.068359375 847.247070312 218.068359375 856.75390625 143.625976562 c 0,30,31
 857.575195312 137.057617188 857.575195312 137.057617188 860.486328125 132.73828125 c 128,-1,32
 863.397460938 128.418945312 863.397460938 128.418945312 870.575195312 125.181640625 c 0,33,34
 894.188476562 114.53125 894.188476562 114.53125 947.310546875 113.008789062 c 2,35,36
 966.655273438 139.182617188 966.655273438 139.182617188 986 111.901367188 c 1,37,38
 986 123.421875 986 123.421875 986 77.509765625 c 1,39,40
 986 88.8359375 986 88.8359375 986 34 c 1,41,42
 986 52.2109375 986 52.2109375 986 -9.5771484375 c 1,43,44
 964.272460938 32.28515625 964.272460938 32.28515625 942.544921875 -5.8525390625 c 2,45,46
 874.264648438 0 874.264648438 0 702.387695312 0 c 0,47,48
 517.715820312 0 517.715820312 0 440.177734375 -5.84375 c 2,49,50
 414.682617188 32.234375 414.682617188 32.234375 389.1875 -9.6865234375 c 1,51,52
 389.1875 52.15625 389.1875 52.15625 389.1875 34 c 1,53,54
 389.1875 93.26953125 389.1875 93.26953125 389.1875 80.072265625 c 1,55,56
 389.1875 132.169921875 389.1875 132.169921875 389.1875 116.74609375 c 1,57,58
 412.001953125 149.844726562 412.001953125 149.844726562 434.81640625 117.669921875 c 2,59,60
 475.04296875 118.484375 475.04296875 118.484375 497.377929688 123.806640625 c 128,-1,61
 519.712890625 129.129882812 519.712890625 129.129882812 528.265625 135.184570312 c 128,-1,62
 536.815429688 141.239257812 536.815429688 141.239257812 538.184570312 150.270507812 c 0,63,64
 550.244140625 236.723632812 550.244140625 236.723632812 554.41796875 369.502929688 c 1,65,66
 405.89453125 368.5546875 405.89453125 368.5546875 153.368164062 362.052734375 c 1,67,68
 151.48046875 380.328125 151.48046875 380.328125 149.592773438 362.625976562 c 2,69,70
 77.8427734375 373.506835938 77.8427734375 373.506835938 20.9287109375 413.9140625 c 2,71,72
 12.96484375 434.137695312 12.96484375 434.137695312 5 425.223632812 c 1,0,1
557.772460938 515.126953125 m 1,73,-1
 557.772460938 754 l 2,74,75
 557.772460938 823.404296875 557.772460938 823.404296875 562.693359375 888.657226562 c 1,76,77
 494.109375 806.102539062 494.109375 806.102539062 432.72265625 726.21875 c 128,-1,78
 371.3359375 646.334960938 371.3359375 646.334960938 287.108398438 523.833007812 c 1,79,80
 386.182617188 516.079101562 386.182617188 516.079101562 557.772460938 515.126953125 c 1,73,-1
EndSplineSet
Validated: 37
EndChar

StartChar: five
Encoding: 53 53 24
Width: 967
GlyphClass: 2
Flags: W
LayerCount: 2
Fore
SplineSet
232.016601562 159.626953125 m 0,0,1
 295.275390625 139 295.275390625 139 372.326171875 139 c 0,2,3
 488.57421875 139 488.57421875 139 560.883789062 199.771484375 c 128,-1,4
 633.193359375 260.54296875 633.193359375 260.54296875 633.193359375 356.57421875 c 0,5,6
 633.193359375 418.75390625 633.193359375 418.75390625 607.366210938 464.301757812 c 128,-1,7
 581.538085938 509.850585938 581.538085938 509.850585938 539.4765625 535.274414062 c 128,-1,8
 497.416015625 560.697265625 497.416015625 560.697265625 446.561523438 573.848632812 c 128,-1,9
 395.706054688 587 395.706054688 587 339.717773438 587 c 0,10,11
 244.872070312 587 244.872070312 587 150.947265625 556.004882812 c 2,12,-1
 90.6650390625 536.111328125 l 1,13,-1
 98.744140625 598.446289062 l 2,14,15
 113.577148438 707.638671875 113.577148438 707.638671875 126.754882812 908.345703125 c 128,-1,16
 139.931640625 1109.05273438 139.931640625 1109.05273438 139.931640625 1189.77539062 c 0,17,18
 139.931640625 1205.98339844 139.931640625 1205.98339844 137.78515625 1258.6640625 c 1,19,20
 350.341796875 1251 350.341796875 1251 505.17578125 1251 c 0,21,22
 794.396484375 1251 794.396484375 1251 902.397460938 1261.79980469 c 2,23,24
 932.026367188 1224.76269531 932.026367188 1224.76269531 961.65625 1267.72558594 c 1,25,26
 953.219726562 1199.19042969 953.219726562 1199.19042969 944.783203125 1210.65527344 c 2,27,28
 911.66015625 1098.61914062 911.66015625 1098.61914062 893.067382812 958.690429688 c 2,29,30
 890.919921875 902.5234375 890.919921875 902.5234375 888.771484375 926.357421875 c 1,31,32
 813.185546875 881.108398438 813.185546875 881.108398438 737.599609375 915.859375 c 1,33,34
 742.41796875 972.47265625 742.41796875 972.47265625 742.41796875 986.197265625 c 128,-1,35
 742.41796875 999.920898438 742.41796875 999.920898438 739.092773438 1005.46289062 c 0,36,37
 734.484375 1009.83984375 734.484375 1009.83984375 718.094726562 1012.49804688 c 0,38,39
 616.051757812 1026 616.051757812 1026 481.021484375 1026 c 2,40,-1
 334.616210938 1026 l 1,41,42
 322.196289062 975.522460938 322.196289062 975.522460938 313.958984375 900.439453125 c 0,43,44
 305.720703125 824.861328125 305.720703125 824.861328125 305.086914062 772.9921875 c 1,45,46
 356.31640625 779 356.31640625 779 410.973632812 779 c 0,47,48
 663.780273438 779 663.780273438 779 799.301757812 679.76953125 c 0,49,50
 929.41796875 577.749023438 929.41796875 577.749023438 929.41796875 393.87890625 c 0,51,52
 929.41796875 265.252929688 929.41796875 265.252929688 853.481445312 165.063476562 c 128,-1,53
 777.544921875 64.8740234375 777.544921875 64.8740234375 646.291015625 13.9375 c 0,54,55
 502.231445312 -37 502.231445312 -37 331.325195312 -37 c 0,56,57
 175.95703125 -37 175.95703125 -37 73.052734375 2.6611328125 c 2,58,59
 61.59765625 47.076171875 61.59765625 47.076171875 50.142578125 11.4912109375 c 1,60,61
 48.8857421875 63.673828125 48.8857421875 63.673828125 47.6298828125 35.857421875 c 2,62,63
 37.8740234375 130.490234375 37.8740234375 130.490234375 15.3955078125 230.176757812 c 2,64,65
 10.1982421875 293.228515625 10.1982421875 293.228515625 5 276.280273438 c 1,66,67
 80.4814453125 320.533203125 80.4814453125 320.533203125 155.962890625 284.78515625 c 1,68,69
 160.059570312 308.891601562 160.059570312 308.891601562 164.15625 252.998046875 c 2,70,71
 183.837890625 176.630859375 183.837890625 176.630859375 232.016601562 159.626953125 c 0,0,1
EndSplineSet
Validated: 37
EndChar

StartChar: six
Encoding: 54 54 25
Width: 991
GlyphClass: 2
Flags: W
LayerCount: 2
Fore
SplineSet
122.4921875 100.623046875 m 0,0,1
 5 236.73046875 5 236.73046875 5 445.809570312 c 0,2,3
 5 603.004882812 5 603.004882812 62.0751953125 745.521484375 c 128,-1,4
 119.078125 887.858398438 119.078125 887.858398438 221.749023438 1000.15625 c 0,5,6
 338.811523438 1112.453125 338.811523438 1112.453125 503.07421875 1197.40234375 c 128,-1,7
 667.3359375 1282.35058594 667.3359375 1282.35058594 844.870117188 1336.79199219 c 2,8,9
 856.3671875 1300.79101562 856.3671875 1300.79101562 867.865234375 1344.79003906 c 1,10,11
 912.932617188 1269.70996094 912.932617188 1269.70996094 958 1264.54882812 c 1,12,13
 958 1224.57910156 958 1224.57910156 958 1248.46679688 c 1,14,15
 958 1213.53125 958 1213.53125 958 1240.97070312 c 1,16,17
 958 1197.86816406 958 1197.86816406 958 1215.03808594 c 1,18,19
 945.047851562 1181.42871094 945.047851562 1181.42871094 932.095703125 1205.88476562 c 2,20,21
 696.7734375 1125.23535156 696.7734375 1125.23535156 534.5703125 989.947265625 c 0,22,23
 383.78125 862.526367188 383.78125 862.526367188 327.354492188 686.41015625 c 1,24,25
 348.375 698.619140625 348.375 698.619140625 371.243164062 708.250976562 c 0,26,27
 467.99609375 749 467.99609375 749 582.1640625 749 c 0,28,29
 780.427734375 749 780.427734375 749 883.213867188 643.696289062 c 128,-1,30
 986 538.391601562 986 538.391601562 986 383.55078125 c 0,31,32
 986 203.127929688 986 203.127929688 847.276367188 82.0634765625 c 0,33,34
 702.362304688 -39 702.362304688 -39 467.409179688 -39 c 0,35,36
 243.017578125 -39 243.017578125 -39 122.4921875 100.623046875 c 0,0,1
360.392578125 193.208984375 m 0,37,38
 391.448242188 160.3359375 391.448242188 160.3359375 432.038085938 146.236328125 c 0,39,40
 464.383789062 135 464.383789062 135 505.311523438 135 c 0,41,42
 596.424804688 135 596.424804688 135 650.780273438 186.189453125 c 0,43,44
 708.873046875 240.899414062 708.873046875 240.899414062 708.873046875 330.103515625 c 0,45,46
 708.873046875 428.04296875 708.873046875 428.04296875 651.11328125 491.147460938 c 0,47,48
 622.325195312 522.59765625 622.325195312 522.59765625 578.34375 536.416015625 c 0,49,50
 541.470703125 548 541.470703125 548 492.51171875 548 c 0,51,52
 419.161132812 548 419.161132812 548 363.416015625 501.41796875 c 128,-1,53
 307.672851562 454.834960938 307.672851562 454.834960938 300.05859375 360.9140625 c 1,54,55
 300.37109375 256.745117188 300.37109375 256.745117188 360.392578125 193.208984375 c 0,37,38
EndSplineSet
Validated: 5
EndChar

StartChar: seven
Encoding: 55 55 26
Width: 1111
GlyphClass: 2
Flags: W
LayerCount: 2
Fore
SplineSet
720.452148438 1026 m 1,0,-1
 519.248046875 1026 l 2,1,2
 379.194335938 1026 379.194335938 1026 281.559570312 1012.52832031 c 0,3,4
 210.770507812 1001.20019531 210.770507812 1001.20019531 163.461914062 935.631835938 c 2,5,6
 157.87109375 887.8828125 157.87109375 887.8828125 152.280273438 920.134765625 c 1,7,8
 80.4287109375 876.0859375 80.4287109375 876.0859375 8.578125 912.038085938 c 1,9,10
 14.8388671875 898.186523438 14.8388671875 898.186523438 21.099609375 964.334960938 c 2,11,12
 54.341796875 1103.16992188 54.341796875 1103.16992188 63.1064453125 1224.90820312 c 2,13,14
 64.58203125 1205.40234375 64.58203125 1205.40234375 66.0576171875 1265.89648438 c 1,15,16
 86.541015625 1223.84863281 86.541015625 1223.84863281 107.0234375 1261.79980469 c 2,17,18
 215.0234375 1251 215.0234375 1251 491.341796875 1251 c 0,19,20
 773.0703125 1251 773.0703125 1251 1105.94628906 1258.83984375 c 1,21,22
 1085.25 1193.15039062 1085.25 1193.15039062 1064.5546875 1199.05273438 c 2,23,24
 815.809570312 848.170898438 815.809570312 848.170898438 550.9296875 430.6171875 c 0,25,26
 428.201171875 237.629882812 428.201171875 237.629882812 342.979492188 33.525390625 c 2,27,28
 337.838867188 58.0673828125 337.838867188 58.0673828125 332.698242188 8.9033203125 c 1,29,30
 316.7890625 48.4619140625 316.7890625 48.4619140625 300.877929688 8.0205078125 c 2,31,32
 204.12109375 5.142578125 204.12109375 5.142578125 105.826171875 -17.021484375 c 2,33,34
 95.6025390625 20.6728515625 95.6025390625 20.6728515625 85.37890625 -21.6328125 c 1,35,36
 45.189453125 47.40625 45.189453125 47.40625 5 46.9892578125 c 1,37,38
 17.0791015625 91.8974609375 17.0791015625 91.8974609375 29.158203125 74.14453125 c 2,39,40
 189.140625 253.971679688 189.140625 253.971679688 335.681640625 466.984375 c 0,41,42
 335.79296875 469.62109375 335.79296875 469.62109375 335.904296875 467.28515625 c 1,43,44
 491.345703125 675.232421875 491.345703125 675.232421875 720.452148438 1026 c 1,0,-1
EndSplineSet
Validated: 37
EndChar

StartChar: eight
Encoding: 56 56 27
Width: 968
GlyphClass: 2
Flags: W
LayerCount: 2
Fore
SplineSet
113.397460938 49.0146484375 m 0,0,1
 5 137.185546875 5 137.185546875 5 282.7265625 c 0,2,3
 5 418.5078125 5 418.5078125 101.995117188 522.509765625 c 0,4,5
 157.7734375 582.317382812 157.7734375 582.317382812 245.120117188 630.634765625 c 1,6,7
 161.984375 682.044921875 161.984375 682.044921875 115.943359375 742.76171875 c 0,8,9
 52 827.0859375 52 827.0859375 52 941.984375 c 0,10,11
 52 1023.4609375 52 1023.4609375 89.41796875 1094.56933594 c 128,-1,12
 126.836914062 1165.67773438 126.836914062 1165.67773438 187.734375 1214.23730469 c 128,-1,13
 248.6328125 1262.79589844 248.6328125 1262.79589844 343.7265625 1290.08203125 c 0,14,15
 439.217773438 1319 439.217773438 1319 540.728515625 1319 c 0,16,17
 739.982421875 1319 739.982421875 1319 841.272460938 1235.57421875 c 0,18,19
 945 1150.14160156 945 1150.14160156 945 1006.44042969 c 0,20,21
 945 846.212890625 945 846.212890625 737.256835938 701.28125 c 1,22,23
 842.46484375 639.032226562 842.46484375 639.032226562 895.162109375 571.854492188 c 0,24,25
 963 485.375 963 485.375 963 375.4765625 c 128,-1,26
 963 265.578125 963 265.578125 893.01953125 170.87890625 c 128,-1,27
 823.040039062 76.1796875 823.040039062 76.1796875 702.228515625 19.58984375 c 0,28,29
 559.516601562 -37 559.516601562 -37 397.096679688 -37 c 0,30,31
 219.14453125 -37 219.14453125 -37 113.397460938 49.0146484375 c 0,0,1
632.940429688 468.166992188 m 128,-1,33
 570.657226562 528.16015625 570.657226562 528.16015625 441.775390625 584.076171875 c 1,34,35
 253.463867188 482.586914062 253.463867188 482.586914062 253.463867188 347 c 0,36,37
 253.463867188 258.12890625 253.463867188 258.12890625 318.053710938 197.564453125 c 128,-1,38
 382.641601562 137 382.641601562 137 481.5859375 137 c 0,39,40
 573.0703125 137 573.0703125 137 634.147460938 190.458984375 c 128,-1,41
 695.224609375 243.91796875 695.224609375 243.91796875 695.224609375 323 c 0,42,32
 695.224609375 408.174804688 695.224609375 408.174804688 632.940429688 468.166992188 c 128,-1,33
367.12890625 1098.61328125 m 128,-1,44
 315.020507812 1056.22753906 315.020507812 1056.22753906 315.020507812 980 c 0,45,46
 315.020507812 914.250976562 315.020507812 914.250976562 373.48046875 860.020507812 c 128,-1,47
 431.94140625 805.791015625 431.94140625 805.791015625 552.4609375 749.825195312 c 1,48,49
 618.31640625 789.125976562 618.31640625 789.125976562 655.748046875 837.53515625 c 0,50,51
 697.638671875 891.7109375 697.638671875 891.7109375 697.638671875 951 c 0,52,53
 697.638671875 1032.29785156 697.638671875 1032.29785156 640.333984375 1088.10351562 c 0,54,55
 586.017578125 1141 586.017578125 1141 491.2421875 1141 c 0,56,43
 419.236328125 1141 419.236328125 1141 367.12890625 1098.61328125 c 128,-1,44
EndSplineSet
Validated: 1
EndChar

StartChar: nine
Encoding: 57 57 28
Width: 991
GlyphClass: 2
Flags: W
LayerCount: 2
Fore
SplineSet
107.786132812 636.303710938 m 128,-1,1
 5 741.608398438 5 741.608398438 5 896.44921875 c 0,2,3
 5 1076.87207031 5 1076.87207031 143.723632812 1197.93652344 c 0,4,5
 288.637695312 1319 288.637695312 1319 523.590820312 1319 c 0,6,7
 747.982421875 1319 747.982421875 1319 868.5078125 1179.37695312 c 0,8,9
 986 1043.26953125 986 1043.26953125 986 834.190429688 c 0,10,11
 986 676.995117188 986 676.995117188 928.924804688 534.478515625 c 128,-1,12
 871.921875 392.141601562 871.921875 392.141601562 769.250976562 279.84375 c 0,13,14
 652.188476562 167.546875 652.188476562 167.546875 487.92578125 82.59765625 c 128,-1,15
 323.6640625 -2.3505859375 323.6640625 -2.3505859375 146.129882812 -56.7919921875 c 2,16,17
 134.5234375 -20.8291015625 134.5234375 -20.8291015625 122.916992188 -64.8662109375 c 1,18,19
 78.4580078125 10.3349609375 78.4580078125 10.3349609375 34 15.6328125 c 1,20,21
 34 55.5009765625 34 55.5009765625 34 31.529296875 c 1,22,23
 34 66.4619140625 34 66.4619140625 34 39.025390625 c 1,24,25
 34 82.1376953125 34 82.1376953125 34 64.986328125 c 1,26,27
 46.970703125 98.583984375 46.970703125 98.583984375 59.9423828125 74.125 c 2,28,29
 294.891601562 154.35546875 294.891601562 154.35546875 456.775390625 289.569335938 c 0,30,31
 607.42578125 417.052734375 607.42578125 417.052734375 663.760742188 593.657226562 c 1,32,33
 642.688476562 581.407226562 642.688476562 581.407226562 619.756835938 571.749023438 c 0,34,35
 523.00390625 531 523.00390625 531 408.8359375 531 c 0,36,0
 210.572265625 531 210.572265625 531 107.786132812 636.303710938 c 128,-1,1
341.415039062 1093.81054688 m 0,37,38
 283.322265625 1039.10058594 283.322265625 1039.10058594 283.322265625 949.896484375 c 0,39,40
 283.322265625 851.95703125 283.322265625 851.95703125 341.08203125 788.852539062 c 0,41,42
 369.87109375 757.40234375 369.87109375 757.40234375 413.8515625 743.583984375 c 0,43,44
 450.724609375 732 450.724609375 732 499.68359375 732 c 0,45,46
 572.911132812 732 572.911132812 732 628.1171875 778.538085938 c 128,-1,47
 683.322265625 825.075195312 683.322265625 825.075195312 690.94140625 919.0859375 c 1,48,49
 690.62890625 1023.25488281 690.62890625 1023.25488281 630.607421875 1086.79101562 c 0,50,51
 599.551757812 1119.6640625 599.551757812 1119.6640625 558.961914062 1133.76367188 c 0,52,53
 526.616210938 1145 526.616210938 1145 485.985351562 1145 c 0,54,55
 395.770507812 1145 395.770507812 1145 341.415039062 1093.81054688 c 0,37,38
EndSplineSet
Validated: 5
EndChar

StartChar: colon
Encoding: 58 58 29
Width: 336
GlyphClass: 2
Flags: W
LayerCount: 2
Fore
SplineSet
168 -20 m 128,-1,1
 95.4423828125 -20 95.4423828125 -20 50.2216796875 25.2216796875 c 128,-1,2
 5 70.4423828125 5 70.4423828125 5 142.5 c 128,-1,3
 5 214.557617188 5 214.557617188 50.2216796875 259.778320312 c 128,-1,4
 95.4423828125 305 95.4423828125 305 168 305 c 128,-1,5
 240.557617188 305 240.557617188 305 285.778320312 259.778320312 c 128,-1,6
 331 214.557617188 331 214.557617188 331 142.5 c 128,-1,7
 331 70.4423828125 331 70.4423828125 285.778320312 25.2216796875 c 128,-1,0
 240.557617188 -20 240.557617188 -20 168 -20 c 128,-1,1
50.2216796875 538.221679688 m 128,-1,9
 5 583.442382812 5 583.442382812 5 656 c 128,-1,10
 5 728.557617188 5 728.557617188 50.2216796875 773.778320312 c 128,-1,11
 95.4423828125 819 95.4423828125 819 168 819 c 128,-1,12
 240.557617188 819 240.557617188 819 285.778320312 773.778320312 c 128,-1,13
 331 728.557617188 331 728.557617188 331 656 c 128,-1,14
 331 583.442382812 331 583.442382812 285.778320312 538.221679688 c 128,-1,15
 240.557617188 493 240.557617188 493 168 493 c 128,-1,8
 95.4423828125 493 95.4423828125 493 50.2216796875 538.221679688 c 128,-1,9
EndSplineSet
Validated: 1
EndChar

StartChar: semicolon
Encoding: 59 59 30
Width: 401
GlyphClass: 2
Flags: W
LayerCount: 2
Fore
SplineSet
142.573242188 -110.959960938 m 0,0,1
 175 -72.7939453125 175 -72.7939453125 175 -33.6904296875 c 0,2,3
 175 -28.5732421875 175 -28.5732421875 172.875976562 -25.7822265625 c 128,-1,4
 170.610351562 -22.8056640625 170.610351562 -22.8056640625 165.006835938 -19.90625 c 0,5,6
 148.114257812 -11.1650390625 148.114257812 -11.1650390625 112.740234375 -8.5126953125 c 2,7,8
 105.748046875 9.9365234375 105.748046875 9.9365234375 98.7568359375 -7.4638671875 c 1,9,10
 67.8203125 35.625 67.8203125 35.625 36.8837890625 46.8505859375 c 1,11,12
 38.0849609375 69.447265625 38.0849609375 69.447265625 39.2861328125 65.427734375 c 2,13,14
 46.6025390625 122.004882812 46.6025390625 122.004882812 105.129882812 190.12890625 c 0,15,16
 121.984375 211.618164062 121.984375 211.618164062 143.694335938 224.2109375 c 0,17,18
 172.641601562 241 172.641601562 241 208.65625 241 c 128,-1,19
 244.669921875 241 244.669921875 241 275.087890625 229.580078125 c 0,20,21
 314.279296875 214.866210938 314.279296875 214.866210938 341.235351562 182.21875 c 0,22,23
 386 128.001953125 386 128.001953125 386 49.2802734375 c 0,24,25
 386 -130.400390625 386 -130.400390625 126.586914062 -296.008789062 c 2,26,27
 118.661132812 -261.4453125 118.661132812 -261.4453125 110.734375 -306.8828125 c 1,28,29
 57.8671875 -250.75390625 57.8671875 -250.75390625 5 -274.625 c 1,30,31
 5 -224.748046875 5 -224.748046875 5 -247.1328125 c 1,32,33
 5 -208.116210938 5 -208.116210938 5 -238.780273438 c 1,34,35
 5 -195.224609375 5 -195.224609375 5 -219.349609375 c 1,36,37
 13.625 -181.05859375 13.625 -181.05859375 22.2509765625 -208.251953125 c 2,38,39
 105.303710938 -154.826171875 105.303710938 -154.826171875 142.573242188 -110.959960938 c 0,0,1
115.221679688 538.221679688 m 128,-1,41
 70 583.442382812 70 583.442382812 70 656 c 128,-1,42
 70 728.557617188 70 728.557617188 115.221679688 773.778320312 c 128,-1,43
 160.442382812 819 160.442382812 819 233 819 c 128,-1,44
 305.557617188 819 305.557617188 819 350.778320312 773.778320312 c 128,-1,45
 396 728.557617188 396 728.557617188 396 656 c 128,-1,46
 396 583.442382812 396 583.442382812 350.778320312 538.221679688 c 128,-1,47
 305.557617188 493 305.557617188 493 233 493 c 128,-1,40
 160.442382812 493 160.442382812 493 115.221679688 538.221679688 c 128,-1,41
EndSplineSet
Validated: 37
EndChar

StartChar: less
Encoding: 60 60 31
Width: 974
GlyphClass: 2
Flags: W
LayerCount: 2
Fore
SplineSet
5 504 m 1,0,-1
 5 520 l 1,1,-1
 5 544.25 l 1,2,3
 478.1640625 753.7890625 478.1640625 753.7890625 903.7265625 963.025390625 c 2,4,5
 936.362304688 947.810546875 936.362304688 947.810546875 968.997070312 1001.50976562 c 1,6,7
 961.66015625 855.81640625 961.66015625 855.81640625 954.32421875 781.436523438 c 1,8,9
 943.579101562 740.169921875 943.579101562 740.169921875 932.833984375 771.44140625 c 2,10,11
 605.926757812 646.373046875 605.926757812 646.373046875 299.212890625 515.790039062 c 1,12,13
 463.08984375 434.525390625 463.08984375 434.525390625 605.737304688 369.602539062 c 0,14,15
 744.126953125 319.407226562 744.126953125 319.407226562 944.3203125 246.314453125 c 1,16,17
 951.690429688 172.294921875 951.690429688 172.294921875 959.060546875 27.1337890625 c 1,18,19
 926.342773438 80.951171875 926.342773438 80.951171875 893.625976562 65.974609375 c 2,20,21
 479.27734375 270.41015625 479.27734375 270.41015625 5 479.72265625 c 1,22,-1
 5 504 l 1,0,-1
EndSplineSet
Validated: 33
EndChar

StartChar: equal
Encoding: 61 61 32
Width: 1093
GlyphClass: 2
Flags: W
LayerCount: 2
Fore
SplineSet
66.2841796875 480.963867188 m 2,0,1
 208.434570312 475 208.434570312 475 447.134765625 475 c 2,2,-1
 636.778320312 475 l 2,3,4
 833.204101562 475 833.204101562 475 1030.32128906 485.9375 c 2,5,6
 1054.4375 527.283203125 1054.4375 527.283203125 1078.55371094 488.629882812 c 1,7,8
 1067.00683594 441.06640625 1067.00683594 441.06640625 1055.45996094 313.501953125 c 1,9,10
 852.73046875 322 852.73046875 322 636.778320312 322 c 2,11,-1
 447.134765625 322 l 2,12,13
 249.715820312 322 249.715820312 322 53.84375 311.0625 c 2,14,15
 29.421875 349.69921875 29.421875 349.69921875 5 308.3359375 c 1,16,17
 17.5771484375 435.408203125 17.5771484375 435.408203125 30.154296875 482.48046875 c 1,18,19
 48.2197265625 521.72265625 48.2197265625 521.72265625 66.2841796875 480.963867188 c 2,0,1
37.7041015625 710.498046875 m 1,20,21
 240.434570312 702 240.434570312 702 456.385742188 702 c 2,22,-1
 646.029296875 702 l 2,23,24
 843.448242188 702 843.448242188 702 1039.32128906 712.9375 c 2,25,26
 1063.74316406 674.30078125 1063.74316406 674.30078125 1088.1640625 715.6640625 c 1,27,28
 1075.58691406 588.591796875 1075.58691406 588.591796875 1063.00976562 541.51953125 c 1,29,30
 1044.9453125 502.27734375 1044.9453125 502.27734375 1026.87988281 543.036132812 c 2,31,32
 884.729492188 549 884.729492188 549 646.029296875 549 c 2,33,-1
 456.385742188 549 l 2,34,35
 259.959960938 549 259.959960938 549 62.84375 538.0625 c 2,36,37
 38.7265625 496.716796875 38.7265625 496.716796875 14.6103515625 535.370117188 c 1,38,39
 26.1572265625 582.93359375 26.1572265625 582.93359375 37.7041015625 710.498046875 c 1,20,21
EndSplineSet
Validated: 1
EndChar

StartChar: greater
Encoding: 62 62 33
Width: 973
GlyphClass: 2
Flags: W
LayerCount: 2
Fore
SplineSet
968 520 m 1,0,-1
 968 504 l 1,1,-1
 968 479.733398438 l 1,2,3
 505.623046875 274.842773438 505.623046875 274.842773438 70.2919921875 60.974609375 c 2,4,5
 37.6455078125 76.1484375 37.6455078125 76.1484375 5 22.4306640625 c 1,6,7
 12.3388671875 168.161132812 12.3388671875 168.161132812 19.6767578125 242.579101562 c 1,8,9
 30.427734375 283.848632812 30.427734375 283.848632812 41.177734375 252.5703125 c 2,10,11
 364.194335938 376.188476562 364.194335938 376.188476562 673.758789062 508.155273438 c 1,12,13
 507.887695312 590.266601562 507.887695312 590.266601562 366.1171875 654.8046875 c 0,14,15
 228.830078125 704.686523438 228.830078125 704.686523438 29.67578125 777.780273438 c 1,16,17
 22.30859375 851.7578125 22.30859375 851.7578125 14.9423828125 996.83203125 c 1,18,19
 47.6533203125 943.026367188 47.6533203125 943.026367188 80.3642578125 958.025390625 c 2,20,21
 503.259765625 749.893554688 503.259765625 749.893554688 968 544.268554688 c 1,22,-1
 968 520 l 1,0,-1
EndSplineSet
Validated: 33
EndChar

StartChar: question
Encoding: 63 63 34
Width: 908
GlyphClass: 2
Flags: W
LayerCount: 2
Fore
SplineSet
218.061523438 1349.41308594 m 0,0,1
 339.665039062 1380 339.665039062 1380 462.65625 1380 c 0,2,3
 683.654296875 1380 683.654296875 1380 790.962890625 1296.59960938 c 0,4,5
 902.947265625 1209.56542969 902.947265625 1209.56542969 902.947265625 1060 c 0,6,7
 902.947265625 954.552734375 902.947265625 954.552734375 847.790039062 856.135742188 c 128,-1,8
 792.6328125 757.717773438 792.6328125 757.717773438 676.85546875 653.413085938 c 0,9,10
 576.18359375 576.301757812 576.18359375 576.301757812 541.831054688 531.037109375 c 128,-1,11
 507.479492188 485.771484375 507.479492188 485.771484375 507.479492188 437 c 0,12,13
 507.479492188 404.349609375 507.479492188 404.349609375 520.002929688 373.3359375 c 2,14,15
 526.241210938 317.88671875 526.241210938 317.88671875 532.479492188 342.4375 c 1,16,17
 430.506835938 255.537109375 430.506835938 255.537109375 328.533203125 248.635742188 c 1,18,19
 316.625976562 213.41796875 316.625976562 213.41796875 304.71875 258.19921875 c 1,20,21
 299.73828125 220.19921875 299.73828125 220.19921875 294.7578125 262.19921875 c 1,22,23
 291.646484375 223.44921875 291.646484375 223.44921875 288.53515625 264.698242188 c 1,24,25
 285.958984375 226.591796875 285.958984375 226.591796875 283.383789062 268.484375 c 2,26,27
 216.947265625 323.391601562 216.947265625 323.391601562 216.947265625 393.512695312 c 128,-1,28
 216.947265625 463.633789062 216.947265625 463.633789062 263.091796875 532.4140625 c 0,29,30
 312.185546875 594.452148438 312.185546875 594.452148438 415.703125 684.525390625 c 128,-1,31
 519.219726562 774.59765625 519.219726562 774.59765625 573.11328125 866.288085938 c 128,-1,32
 627.006835938 957.977539062 627.006835938 957.977539062 627.006835938 1035 c 0,33,34
 627.006835938 1118.28808594 627.006835938 1118.28808594 575.077148438 1163.14453125 c 128,-1,35
 523.147460938 1208 523.147460938 1208 419.079101562 1208 c 0,36,37
 346.139648438 1208 346.139648438 1208 289.454101562 1176.70019531 c 0,38,39
 236.311523438 1145.40039062 236.311523438 1145.40039062 214.678710938 1085.6953125 c 0,40,41
 195.904296875 1031.11132812 195.904296875 1031.11132812 181.485351562 936.908203125 c 2,42,43
 179.002929688 880.686523438 179.002929688 880.686523438 176.51953125 904.46484375 c 1,44,45
 90.759765625 860.736328125 90.759765625 860.736328125 5 897.0078125 c 1,46,47
 7.5986328125 880.24609375 7.5986328125 880.24609375 10.1962890625 943.485351562 c 2,48,49
 28.03515625 1103.04199219 28.03515625 1103.04199219 33.634765625 1246.40332031 c 1,50,51
 39.90625 1212.05761719 39.90625 1212.05761719 46.177734375 1257.71289062 c 2,52,53
 113.958984375 1318.82617188 113.958984375 1318.82617188 218.061523438 1349.41308594 c 0,0,1
439 -20 m 128,-1,55
 348.66015625 -20 348.66015625 -20 292.35546875 25.2216796875 c 0,56,57
 238.947265625 70.4423828125 238.947265625 70.4423828125 238.947265625 142.5 c 128,-1,58
 238.947265625 214.557617188 238.947265625 214.557617188 292.35546875 259.778320312 c 0,59,60
 348.66015625 305 348.66015625 305 439 305 c 128,-1,61
 529.33984375 305 529.33984375 305 585.642578125 259.778320312 c 128,-1,62
 641.947265625 214.557617188 641.947265625 214.557617188 641.947265625 142.5 c 128,-1,63
 641.947265625 70.4423828125 641.947265625 70.4423828125 585.642578125 25.2216796875 c 128,-1,54
 529.33984375 -20 529.33984375 -20 439 -20 c 128,-1,55
EndSplineSet
Validated: 37
EndChar

StartChar: at
Encoding: 64 64 35
Width: 1485
GlyphClass: 2
Flags: W
LayerCount: 2
Fore
SplineSet
178.151367188 -65.7841796875 m 0,0,1
 5 85.4306640625 5 85.4306640625 5 313.435546875 c 0,2,3
 5 447.181640625 5 447.181640625 52.9892578125 568.694335938 c 128,-1,4
 100.915039062 690.047851562 100.915039062 690.047851562 183.962890625 782.489257812 c 0,5,6
 268.44921875 874.930664062 268.44921875 874.930664062 385.24609375 943.352539062 c 128,-1,7
 502.04296875 1011.77441406 502.04296875 1011.77441406 637.315429688 1047.28027344 c 0,8,9
 772.46875 1085 772.46875 1085 909.591796875 1085 c 0,10,11
 1034.87597656 1085 1034.87597656 1085 1146.34570312 1043.53222656 c 0,12,13
 1255.78613281 1002.109375 1255.78613281 1002.109375 1326.77929688 933.310546875 c 128,-1,14
 1397.77246094 864.510742188 1397.77246094 864.510742188 1438.88574219 772.419921875 c 128,-1,15
 1480 680.329101562 1480 680.329101562 1480 582 c 0,16,17
 1480 471.3515625 1480 471.3515625 1438.37304688 375.68359375 c 128,-1,18
 1396.74609375 280.015625 1396.74609375 280.015625 1328.12792969 216.116210938 c 128,-1,19
 1259.50976562 152.216796875 1259.50976562 152.216796875 1165.26464844 115.608398438 c 0,20,21
 1068.78125 79 1068.78125 79 965.107421875 79 c 0,22,23
 846.375 79 846.375 79 799.247070312 147.720703125 c 0,24,25
 789.161132812 162.428710938 789.161132812 162.428710938 782.938476562 178.604492188 c 1,26,27
 679.098632812 93 679.098632812 93 562.345703125 93 c 0,28,29
 485.42578125 93 485.42578125 93 428.092773438 141.766601562 c 128,-1,30
 370.76171875 190.534179688 370.76171875 190.534179688 370.76171875 264 c 0,31,32
 370.76171875 360.676757812 370.76171875 360.676757812 415.217773438 450.5234375 c 128,-1,33
 459.672851562 540.370117188 459.672851562 540.370117188 528.895507812 602.331054688 c 128,-1,34
 598.118164062 664.291992188 598.118164062 664.291992188 684.708984375 702.146484375 c 128,-1,35
 771.30078125 740 771.30078125 740 856.252929688 740 c 0,36,37
 917.75390625 740 917.75390625 740 957.327148438 710.745117188 c 1,38,-1
 973.107421875 739.145507812 l 1,39,-1
 984.622070312 759.869140625 l 1,40,-1
 1009.84667969 760.955078125 l 2,41,42
 1076.08984375 763.807617188 1076.08984375 763.807617188 1141.32910156 776.174804688 c 2,43,-1
 1156.13378906 778.981445312 l 1,44,-1
 1169.59082031 772.80078125 l 1,45,-1
 1178.29882812 768.80078125 l 1,46,-1
 1218.96679688 750.12109375 l 1,47,-1
 1196.98632812 713.662109375 l 2,48,49
 1120.15820312 586.229492188 1120.15820312 586.229492188 1039.66210938 389.033203125 c 0,50,51
 1014.62109375 327.379882812 1014.62109375 327.379882812 1014.62304688 289.702148438 c 0,52,53
 1014.62304688 279.10546875 1014.62304688 279.10546875 1016.11621094 271.569335938 c 128,-1,54
 1017.61035156 264.033203125 1017.61035156 264.033203125 1020.59765625 259.55859375 c 1,55,56
 1028.14550781 253 1028.14550781 253 1045.66015625 253 c 0,57,58
 1158.8125 253 1158.8125 253 1240.91992188 341.458984375 c 0,59,60
 1320 433.537109375 1320 433.537109375 1320 563.697265625 c 0,61,62
 1320 635.974609375 1320 635.974609375 1293.1640625 701.6953125 c 128,-1,63
 1266.34960938 767.360351562 1266.34960938 767.360351562 1215.38183594 818.712890625 c 0,64,65
 1161.57226562 870.064453125 1161.57226562 870.064453125 1074.81054688 901.032226562 c 128,-1,66
 988.049804688 932 988.049804688 932 880.201171875 932 c 0,67,68
 760.514648438 932 760.514648438 932 644.5390625 890.826171875 c 128,-1,69
 528.565429688 849.65234375 528.565429688 849.65234375 436.239257812 776.954101562 c 128,-1,70
 343.912109375 704.256835938 343.912109375 704.256835938 287.130859375 594.03125 c 0,71,72
 232 483.78515625 232 483.78515625 232 355.770507812 c 0,73,74
 232 237.943359375 232 237.943359375 295.1171875 149.432617188 c 0,75,76
 359.7734375 61.0849609375 359.7734375 61.0849609375 473.178710938 14.0419921875 c 128,-1,77
 586.58203125 -33 586.58203125 -33 731.0703125 -33 c 0,78,79
 962.33203125 -33 962.33203125 -33 1134.02734375 76.8466796875 c 2,80,81
 1144.08105469 123.279296875 1144.08105469 123.279296875 1154.13574219 89.7119140625 c 1,82,83
 1165.32714844 125.141601562 1165.32714844 125.141601562 1176.51855469 80.572265625 c 1,84,85
 1181.41699219 118.572265625 1181.41699219 118.572265625 1186.31542969 76.572265625 c 1,86,87
 1201.87890625 110.217773438 1201.87890625 110.217773438 1217.44433594 63.86328125 c 1,88,89
 1205.77539062 42.841796875 1205.77539062 42.841796875 1194.10546875 -58.1787109375 c 1,90,91
 1186.05175781 -22.9306640625 1186.05175781 -22.9306640625 1177.99804688 -67.681640625 c 2,92,93
 1054.62011719 -140.470703125 1054.62011719 -140.470703125 926.237304688 -178.735351562 c 128,-1,94
 797.854492188 -217 797.854492188 -217 633.1015625 -217 c 0,95,96
 360.206054688 -217 360.206054688 -217 178.151367188 -65.7841796875 c 0,0,1
651.888671875 448.157226562 m 128,-1,98
 625.481445312 386.40625 625.481445312 386.40625 625.481445312 317 c 0,99,100
 625.481445312 300.403320312 625.481445312 300.403320312 635.206054688 288.580078125 c 0,101,102
 638.655273438 284.384765625 638.655273438 284.384765625 641.583984375 283.192382812 c 128,-1,103
 644.51171875 282 644.51171875 282 648.340820312 282 c 0,104,105
 689.293945312 282 689.293945312 282 744.404296875 336.272460938 c 0,106,107
 806.950195312 397.868164062 806.950195312 397.868164062 854.004882812 504.056640625 c 0,108,109
 866.887695312 533.149414062 866.887695312 533.149414062 866.887695312 554.23046875 c 0,110,111
 866.887695312 564.948242188 866.887695312 564.948242188 863.427734375 573.318359375 c 128,-1,112
 860.01953125 581.561523438 860.01953125 581.561523438 854.680664062 584.28125 c 128,-1,113
 849.342773438 587 849.342773438 587 838.8359375 587 c 0,114,115
 778.456054688 587 778.456054688 587 728.376953125 548.454101562 c 128,-1,97
 678.295898438 509.908203125 678.295898438 509.908203125 651.888671875 448.157226562 c 128,-1,98
EndSplineSet
Validated: 33
EndChar

StartChar: A
Encoding: 65 65 36
Width: 1524
GlyphClass: 2
Flags: W
LayerCount: 2
Fore
SplineSet
5 -9.8037109375 m 1,0,1
 5 52.0986328125 5 52.0986328125 5 34 c 1,2,3
 5 93.623046875 5 93.623046875 5 80.2734375 c 1,4,5
 5 132.819335938 5 132.819335938 5 117.012695312 c 1,6,7
 24.435546875 150.6484375 24.435546875 150.6484375 43.87109375 118.032226562 c 2,8,9
 82.580078125 119.047851562 82.580078125 119.047851562 109.158203125 132.274414062 c 0,10,11
 140.565429688 147.904296875 140.565429688 147.904296875 157.55078125 182.723632812 c 0,12,13
 281.586914062 435.970703125 281.586914062 435.970703125 428.764648438 756.723632812 c 128,-1,14
 575.966796875 1077.52929688 575.966796875 1077.52929688 702.458984375 1391.53613281 c 1,15,16
 774.900390625 1355.05078125 774.900390625 1355.05078125 847.342773438 1398.56445312 c 1,17,18
 852.455078125 1343.90039062 852.455078125 1343.90039062 857.568359375 1369.23535156 c 2,19,20
 1119.19140625 661.286132812 1119.19140625 661.286132812 1369.15039062 168.109375 c 0,21,22
 1382.68847656 142.552734375 1382.68847656 142.552734375 1410.89257812 130.78125 c 128,-1,23
 1439.09667969 119.009765625 1439.09667969 119.009765625 1480.10839844 117.955078125 c 2,24,25
 1499.5546875 150.475585938 1499.5546875 150.475585938 1519 116.954101562 c 1,26,27
 1519 132.6796875 1519 132.6796875 1519 80.23046875 c 1,28,29
 1519 93.546875 1519 93.546875 1519 34 c 1,30,31
 1519 53.6328125 1519 53.6328125 1519 -6.734375 c 1,32,33
 1423.62988281 -5 1423.62988281 -5 1375 -5 c 0,34,35
 1224.66210938 -5 1224.66210938 -5 1121.00390625 -11.8955078125 c 2,36,37
 1103.46875 26.9384765625 1103.46875 26.9384765625 1085.93359375 -14.2275390625 c 1,38,39
 996.529296875 247.51953125 996.529296875 247.51953125 915.9765625 448.635742188 c 1,40,41
 822.752929688 452 822.752929688 452 710.447265625 452 c 128,-1,42
 598.140625 452 598.140625 452 484.515625 446.97265625 c 1,43,44
 415.6015625 292.69921875 415.6015625 292.69921875 355.123046875 138.370117188 c 0,45,46
 353.481445312 134.2265625 353.481445312 134.2265625 353.481445312 131.719726562 c 0,47,48
 353.571289062 130.56640625 353.571289062 130.56640625 356.73046875 128.702148438 c 0,49,50
 377.088867188 116.682617188 377.088867188 116.682617188 431.448242188 115.208007812 c 2,51,52
 452.434570312 144.102539062 452.434570312 144.102539062 473.420898438 114.068359375 c 1,53,54
 473.420898438 127.452148438 473.420898438 127.452148438 473.420898438 78.720703125 c 1,55,56
 473.420898438 90.9140625 473.420898438 90.9140625 473.420898438 34 c 1,57,58
 473.420898438 51.6982421875 473.420898438 51.6982421875 473.420898438 -10.603515625 c 1,59,60
 449.348632812 31.81640625 449.348632812 31.81640625 425.275390625 -5.7626953125 c 2,61,62
 367.967773438 0 367.967773438 0 235.818359375 0 c 0,63,64
 112.838867188 0 112.838867188 0 48.6611328125 -5.833984375 c 2,65,66
 26.830078125 32.1806640625 26.830078125 32.1806640625 5 -9.8037109375 c 1,0,1
717.750976562 953.907226562 m 1,67,68
 622.063476562 761.961914062 622.063476562 761.961914062 554.954101562 610.375 c 1,69,70
 607.946289062 609 607.946289062 609 698.112304688 609 c 128,-1,71
 788.280273438 609 788.280273438 609 855.671875 610.75 c 1,72,73
 783.48046875 799.15234375 783.48046875 799.15234375 717.750976562 953.907226562 c 1,67,68
EndSplineSet
Validated: 37
Position2: "'cpsp' Spaziatura delle maiuscole in Latino lookup 0 subtable" dx=10 dy=0 dh=20 dv=0
EndChar

StartChar: B
Encoding: 66 66 37
Width: 1114
GlyphClass: 2
Flags: W
LayerCount: 2
Fore
SplineSet
44.091796875 1234.24023438 m 2,0,1
 24.7470703125 1202.05175781 24.7470703125 1202.05175781 5.40234375 1235.41503906 c 1,2,3
 4.59765625 280.772460938 4.59765625 280.772460938 5.40234375 1318 c 2,4,5
 5.40234375 1299.7890625 5.40234375 1299.7890625 5.40234375 1361.57714844 c 1,6,7
 27.1298828125 1319.71484375 27.1298828125 1319.71484375 48.857421875 1357.85253906 c 2,8,9
 117.137695312 1352 117.137695312 1352 199.40234375 1352 c 0,10,11
 238.651367188 1352 238.651367188 1352 353.5390625 1366 c 0,12,13
 470.244140625 1380 470.244140625 1380 551.681640625 1380 c 0,14,15
 807.874023438 1380 807.874023438 1380 944.524414062 1293.23925781 c 0,16,17
 1020.25390625 1242.45117188 1020.25390625 1242.45117188 1054.02148438 1163.19140625 c 0,18,19
 1080.40234375 1101.26855469 1080.40234375 1101.26855469 1080.40234375 1022.99902344 c 0,20,21
 1080.40234375 893.65234375 1080.40234375 893.65234375 993.587890625 799.4140625 c 0,22,23
 947.879882812 749.797851562 947.879882812 749.797851562 880.223632812 718.25390625 c 1,24,25
 945.81640625 693.71875 945.81640625 693.71875 993.134765625 654.924804688 c 0,26,27
 1109.40234375 559.602539062 1109.40234375 559.602539062 1109.40234375 385.49609375 c 0,28,29
 1109.40234375 256.560546875 1109.40234375 256.560546875 1032.38769531 161.323242188 c 128,-1,30
 955.374023438 66.0859375 955.374023438 66.0859375 825.137695312 19.9013671875 c 0,31,32
 681.131835938 -29 681.131835938 -29 502.2265625 -29 c 0,33,34
 437.250976562 -29 437.250976562 -29 341.784179688 -14.5 c 0,35,36
 246.896484375 0 246.896484375 0 182.069335938 0 c 128,-1,37
 117.241210938 0 117.241210938 0 53.0634765625 -5.833984375 c 2,38,39
 31.2333984375 32.1806640625 31.2333984375 32.1806640625 9.40234375 -9.8037109375 c 1,40,41
 9.40234375 52.0986328125 9.40234375 52.0986328125 9.40234375 34 c 1,42,43
 9.40234375 93.3642578125 9.40234375 93.3642578125 9.40234375 80.1259765625 c 1,44,45
 9.40234375 132.216796875 9.40234375 132.216796875 9.40234375 116.545898438 c 1,46,47
 28.7255859375 149.9296875 28.7255859375 149.9296875 48.048828125 117.758789062 c 2,48,49
 98.9189453125 119.35546875 98.9189453125 119.35546875 121.361328125 130.4375 c 0,50,51
 128.069335938 133.75 128.069335938 133.75 130.923828125 138.368164062 c 128,-1,52
 133.779296875 142.986328125 133.779296875 142.986328125 134.635742188 150.112304688 c 0,53,54
 150.40234375 291.9296875 150.40234375 291.9296875 150.40234375 675.856445312 c 128,-1,55
 150.40234375 1059.78222656 150.40234375 1059.78222656 134.635742188 1201.88671875 c 0,56,57
 133.806640625 1208.77636719 133.806640625 1208.77636719 130.90625 1213.33984375 c 128,-1,58
 128.004882812 1217.90429688 128.004882812 1217.90429688 120.827148438 1221.3359375 c 0,59,60
 97.2138671875 1232.62695312 97.2138671875 1232.62695312 44.091796875 1234.24023438 c 2,0,1
507.3828125 156.422851562 m 128,-1,62
 540.796875 146 540.796875 146 574.684570312 146 c 0,63,64
 685.696289062 146 685.696289062 146 758.495117188 203.893554688 c 128,-1,65
 831.163085938 261.684570312 831.163085938 261.684570312 831.163085938 366.990234375 c 0,66,67
 831.163085938 488.834960938 831.163085938 488.834960938 741.857421875 548.67578125 c 0,68,69
 648.844726562 611 648.844726562 611 473.473632812 611 c 0,70,71
 444.791015625 611 444.791015625 611 420.60546875 610.077148438 c 1,72,73
 421.166992188 361.369140625 421.166992188 361.369140625 429.416992188 286.651367188 c 128,-1,74
 437.666992188 211.932617188 437.666992188 211.932617188 460.098632812 181.999023438 c 0,75,61
 473.967773438 166.845703125 473.967773438 166.845703125 507.3828125 156.422851562 c 128,-1,62
420.614257812 777.29296875 m 1,76,77
 457.6953125 775 457.6953125 775 483.82421875 775 c 0,78,79
 615.67578125 775 615.67578125 775 706.7421875 840.302734375 c 128,-1,80
 797.80859375 905.60546875 797.80859375 905.60546875 797.80859375 991.787109375 c 0,81,82
 797.80859375 1111.46386719 797.80859375 1111.46386719 711.237304688 1161.90917969 c 0,83,84
 639.002929688 1204 639.002929688 1204 502.2265625 1204 c 0,85,86
 464.86328125 1204 464.86328125 1204 431.577148438 1198.8671875 c 1,87,88
 421.286132812 1014.97167969 421.286132812 1014.97167969 420.614257812 777.29296875 c 1,76,77
EndSplineSet
Validated: 37
Position2: "'cpsp' Spaziatura delle maiuscole in Latino lookup 0 subtable" dx=10 dy=0 dh=20 dv=0
EndChar

StartChar: C
Encoding: 67 67 38
Width: 1383
GlyphClass: 2
Flags: W
LayerCount: 2
Fore
SplineSet
98.9814453125 290.088867188 m 128,-1,1
 5 444.505859375 5 444.505859375 5 637.4765625 c 0,2,3
 5 855.903320312 5 855.903320312 109.905273438 1030.6875 c 128,-1,4
 214.811523438 1205.47167969 214.811523438 1205.47167969 417.393554688 1303.23535156 c 0,5,6
 623.563476562 1401 623.563476562 1401 882.348632812 1401 c 0,7,8
 1025.86132812 1401 1025.86132812 1401 1159.02246094 1366.68261719 c 0,9,10
 1282.56445312 1332.36621094 1282.56445312 1332.36621094 1353.95996094 1275.25 c 2,11,12
 1365.76269531 1225.80664062 1365.76269531 1225.80664062 1377.56640625 1256.36425781 c 1,13,14
 1371.73632812 1202.4609375 1371.73632812 1202.4609375 1365.90625 1228.55859375 c 2,15,16
 1315.37304688 1108.05664062 1315.37304688 1108.05664062 1294.15039062 1006.76855469 c 2,17,18
 1290.55273438 949.595703125 1290.55273438 949.595703125 1286.95410156 972.421875 c 1,19,20
 1207.50683594 938.533203125 1207.50683594 938.533203125 1127.68652344 984.64453125 c 1,21,22
 1132.99414062 967.123046875 1132.99414062 967.123046875 1137.92871094 1029.60253906 c 2,23,24
 1146 1066.37011719 1146 1066.37011719 1146 1081.54980469 c 128,-1,25
 1146 1096.72949219 1146 1096.72949219 1137.22070312 1109.64453125 c 0,26,27
 1101.30078125 1148.203125 1101.30078125 1148.203125 1007.43554688 1177.1015625 c 128,-1,28
 913.571289062 1206 913.571289062 1206 807.557617188 1206 c 0,29,30
 650.06640625 1206 650.06640625 1206 530.047851562 1140.47265625 c 0,31,32
 409.813476562 1074.82617188 409.813476562 1074.82617188 345.81640625 959.483398438 c 128,-1,33
 281.8203125 844.140625 281.8203125 844.140625 281.8203125 695.568359375 c 0,34,35
 281.8203125 535.935546875 281.8203125 535.935546875 357.09375 416.682617188 c 128,-1,36
 432.368164062 297.4296875 432.368164062 297.4296875 560.36328125 235.71484375 c 128,-1,37
 688.358398438 174 688.358398438 174 852.65234375 174 c 0,38,39
 953.529296875 174 953.529296875 174 1071.43652344 214.258789062 c 0,40,41
 1184.12011719 254.518554688 1184.12011719 254.518554688 1256.09375 324.646484375 c 2,42,43
 1267.12792969 375.3984375 1267.12792969 375.3984375 1278.16308594 346.149414062 c 1,44,45
 1291.34960938 378.237304688 1291.34960938 378.237304688 1304.53710938 330.325195312 c 1,46,47
 1309.53710938 367.325195312 1309.53710938 367.325195312 1314.53710938 324.325195312 c 1,48,49
 1327.13964844 356.763671875 1327.13964844 356.763671875 1339.7421875 309.202148438 c 1,50,51
 1320.11523438 267.310546875 1320.11523438 267.310546875 1300.48828125 145.41796875 c 1,52,53
 1251.55371094 149.571289062 1251.55371094 149.571289062 1202.61914062 73.7236328125 c 2,54,55
 1136.75292969 25.421875 1136.75292969 25.421875 1014.48144531 -5.7890625 c 0,56,57
 891.71484375 -37 891.71484375 -37 781.161132812 -37 c 0,58,59
 554.353515625 -37 554.353515625 -37 370.772460938 49.3359375 c 0,60,0
 192.962890625 135.671875 192.962890625 135.671875 98.9814453125 290.088867188 c 128,-1,1
EndSplineSet
Validated: 37
Position2: "'cpsp' Spaziatura delle maiuscole in Latino lookup 0 subtable" dx=10 dy=0 dh=20 dv=0
EndChar

StartChar: D
Encoding: 68 68 39
Width: 1499
GlyphClass: 2
Flags: W
LayerCount: 2
Fore
SplineSet
44.091796875 1234.24023438 m 2,0,1
 24.7470703125 1202.05175781 24.7470703125 1202.05175781 5.40234375 1235.41503906 c 1,2,3
 4.59765625 280.772460938 4.59765625 280.772460938 5.40234375 1318 c 2,4,5
 5.40234375 1299.7890625 5.40234375 1299.7890625 5.40234375 1361.57714844 c 1,6,7
 27.1298828125 1319.71484375 27.1298828125 1319.71484375 48.857421875 1357.85253906 c 2,8,9
 117.137695312 1352 117.137695312 1352 205.111328125 1352 c 0,10,11
 296.775390625 1352 296.775390625 1352 445.647460938 1367.76269531 c 0,12,13
 567.6015625 1380 567.6015625 1380 648.270507812 1380 c 0,14,15
 1056.58300781 1380 1056.58300781 1380 1281.62988281 1213.42578125 c 0,16,17
 1494.40234375 1044.37109375 1494.40234375 1044.37109375 1494.40234375 731.1953125 c 0,18,19
 1494.40234375 546.631835938 1494.40234375 546.631835938 1426.27734375 400.500976562 c 128,-1,20
 1358.15234375 254.370117188 1358.15234375 254.370117188 1236.47558594 161.376953125 c 0,21,22
 1105.25488281 68.384765625 1105.25488281 68.384765625 933.963867188 21.0849609375 c 0,23,24
 762.672851562 -29 762.672851562 -29 561.297851562 -29 c 0,25,26
 484.14453125 -29 484.14453125 -29 373.428710938 -13.5810546875 c 0,27,28
 267.90625 0 267.90625 0 223.40234375 0 c 0,29,30
 117.241210938 0 117.241210938 0 53.0634765625 -5.833984375 c 2,31,32
 31.2333984375 32.1806640625 31.2333984375 32.1806640625 9.40234375 -9.8037109375 c 1,33,34
 9.40234375 52.0986328125 9.40234375 52.0986328125 9.40234375 34 c 1,35,36
 9.40234375 93.3642578125 9.40234375 93.3642578125 9.40234375 80.1259765625 c 1,37,38
 9.40234375 132.216796875 9.40234375 132.216796875 9.40234375 116.545898438 c 1,39,40
 28.7255859375 149.9296875 28.7255859375 149.9296875 48.048828125 117.758789062 c 2,41,42
 98.9189453125 119.35546875 98.9189453125 119.35546875 121.361328125 130.4375 c 0,43,44
 128.069335938 133.75 128.069335938 133.75 130.923828125 138.368164062 c 128,-1,45
 133.779296875 142.986328125 133.779296875 142.986328125 134.635742188 150.112304688 c 0,46,47
 150.40234375 291.9296875 150.40234375 291.9296875 150.40234375 675.856445312 c 128,-1,48
 150.40234375 1059.78222656 150.40234375 1059.78222656 134.635742188 1201.88671875 c 0,49,50
 133.806640625 1208.77636719 133.806640625 1208.77636719 130.90625 1213.33984375 c 128,-1,51
 128.004882812 1217.90429688 128.004882812 1217.90429688 120.827148438 1221.3359375 c 0,52,53
 97.2138671875 1232.62695312 97.2138671875 1232.62695312 44.091796875 1234.24023438 c 2,0,1
461.583007812 184.366210938 m 0,54,55
 506.458984375 146 506.458984375 146 628.702148438 146 c 0,56,57
 775.649414062 146 775.649414062 146 885.830078125 189.673828125 c 128,-1,58
 996.01171875 233.346679688 996.01171875 233.346679688 1061.09960938 309.112304688 c 128,-1,59
 1126.18847656 384.87890625 1126.18847656 384.87890625 1159.5625 481.450195312 c 128,-1,60
 1192.93652344 578.022460938 1192.93652344 578.022460938 1192.93652344 696.55078125 c 128,-1,61
 1192.93652344 815.080078125 1192.93652344 815.080078125 1159.453125 906.595703125 c 128,-1,62
 1125.97070312 998.111328125 1125.97070312 998.111328125 1056.80761719 1064.00097656 c 128,-1,63
 987.643554688 1129.88964844 987.643554688 1129.88964844 869.188476562 1164.94433594 c 128,-1,64
 750.735351562 1200 750.735351562 1200 584.127929688 1200 c 0,65,66
 509.130859375 1200 509.130859375 1200 421.635742188 1187.34082031 c 1,67,68
 411.270507812 979.655273438 411.270507812 979.655273438 411.270507812 730.263671875 c 128,-1,69
 411.270507812 480.87109375 411.270507812 480.87109375 419.774414062 366.37109375 c 128,-1,70
 428.27734375 251.872070312 428.27734375 251.872070312 437.49609375 224.475585938 c 128,-1,71
 446.71484375 197.078125 446.71484375 197.078125 461.583007812 184.366210938 c 0,54,55
EndSplineSet
Validated: 37
Position2: "'cpsp' Spaziatura delle maiuscole in Latino lookup 0 subtable" dx=10 dy=0 dh=20 dv=0
EndChar

StartChar: E
Encoding: 69 69 40
Width: 1117
GlyphClass: 2
Flags: W
LayerCount: 2
Fore
SplineSet
44.091796875 1234.24023438 m 2,0,1
 24.7470703125 1202.05175781 24.7470703125 1202.05175781 5.40234375 1235.41503906 c 1,2,3
 4.59765625 280.772460938 4.59765625 280.772460938 5.40234375 1318 c 2,4,5
 5.40234375 1299.7890625 5.40234375 1299.7890625 5.40234375 1361.57714844 c 1,6,7
 27.1298828125 1319.71484375 27.1298828125 1319.71484375 48.857421875 1357.85253906 c 2,8,9
 117.137695312 1352 117.137695312 1352 277.932617188 1352 c 0,10,11
 666.586914062 1352 666.586914062 1352 1004.58789062 1365.95996094 c 2,12,13
 1031.35546875 1327.15722656 1031.35546875 1327.15722656 1058.12207031 1368.35351562 c 1,14,15
 1051.67578125 1302.35449219 1051.67578125 1302.35449219 1045.23046875 1316.35546875 c 2,16,17
 1015.87207031 1197.9453125 1015.87207031 1197.9453125 1001.16308594 1063.60546875 c 2,18,19
 999.3203125 1006.7734375 999.3203125 1006.7734375 997.477539062 1029.94140625 c 1,20,21
 919.713867188 985.62109375 919.713867188 985.62109375 838.28515625 1021.30078125 c 1,22,23
 842.864257812 1005.87109375 842.864257812 1005.87109375 847.442382812 1070.44140625 c 2,24,25
 853.745117188 1104.25390625 853.745117188 1104.25390625 853.745117188 1128 c 2,26,27
 853.745117188 1088.33886719 853.745117188 1088.33886719 853.745117188 1128.67773438 c 2,28,29
 853.873046875 1132.01171875 853.873046875 1132.01171875 853.873046875 1134.51855469 c 0,30,31
 853.873046875 1163.5625 853.873046875 1163.5625 839.08203125 1172.15820312 c 0,32,33
 832.677734375 1175.88085938 832.677734375 1175.88085938 821.9453125 1177.55273438 c 0,34,35
 718.124023438 1192 718.124023438 1192 596.295898438 1192 c 0,36,37
 555.586914062 1192 555.586914062 1192 431.072265625 1189.30957031 c 1,38,39
 421.172851562 1009.28613281 421.172851562 1009.28613281 420.498046875 776.447265625 c 1,40,41
 464.123046875 775 464.123046875 775 533.293945312 775 c 128,-1,42
 602.465820312 775 602.465820312 775 641.69921875 777.5625 c 128,-1,43
 680.931640625 780.125 680.931640625 780.125 693.526367188 783.348632812 c 0,44,45
 721.302734375 790.533203125 721.302734375 790.533203125 737.251953125 809.366210938 c 128,-1,46
 753.201171875 828.19921875 753.201171875 828.19921875 759.822265625 876.75390625 c 2,47,-1
 764.627929688 912 l 1,48,-1
 930.30859375 912 l 1,49,-1
 925.134765625 867.354492188 l 2,50,51
 898.274414062 635.5546875 898.274414062 635.5546875 890.340820312 491.765625 c 2,52,-1
 888.2578125 454 l 1,53,-1
 714.90234375 454 l 1,54,-1
 719.46484375 497.661132812 l 2,55,56
 721.572265625 517.838867188 721.572265625 517.838867188 721.572265625 535 c 0,57,58
 721.572265625 587.504882812 721.572265625 587.504882812 707.20703125 600.942382812 c 0,59,60
 701.823242188 605.978515625 701.823242188 605.978515625 690.217773438 608.928710938 c 128,-1,61
 678.612304688 611.879882812 678.612304688 611.879882812 639.889648438 614.439453125 c 128,-1,62
 601.166992188 617 601.166992188 617 532.52734375 617 c 128,-1,63
 463.887695312 617 463.887695312 617 420.711914062 615.547851562 c 1,64,65
 423.142578125 361.120117188 423.142578125 361.120117188 441.310546875 252.55078125 c 0,66,67
 445.405273438 228.078125 445.405273438 228.078125 449.205078125 218.809570312 c 0,68,69
 456.927734375 199.961914062 456.927734375 199.961914062 472.083007812 188.12890625 c 0,70,71
 513.62109375 160 513.62109375 160 631.924804688 160 c 0,72,73
 793.534179688 160 793.534179688 160 870.990234375 171.489257812 c 0,74,75
 896.564453125 175.423828125 896.564453125 175.423828125 912.569335938 192.68359375 c 0,76,77
 932.171875 213.82421875 932.171875 213.82421875 951.4453125 271.642578125 c 2,78,79
 955.75 324.557617188 955.75 324.557617188 960.0546875 297.47265625 c 1,80,81
 1036.15820312 341.586914062 1036.15820312 341.586914062 1112.26171875 305.700195312 c 1,82,83
 1107.47851562 320.591796875 1107.47851562 320.591796875 1102.69628906 255.482421875 c 2,84,85
 1079.28710938 132.588867188 1079.28710938 132.588867188 1076.38378906 36.7685546875 c 2,86,87
 1075.79101562 57.1962890625 1075.79101562 57.1962890625 1075.19726562 -2.376953125 c 1,88,89
 823.63671875 0 823.63671875 0 277.932617188 0 c 0,90,91
 115.241210938 0 115.241210938 0 51.0634765625 -5.833984375 c 2,92,93
 29.2333984375 32.1806640625 29.2333984375 32.1806640625 7.40234375 -9.8037109375 c 1,94,95
 7.40234375 52.0986328125 7.40234375 52.0986328125 7.40234375 34 c 1,96,97
 7.40234375 93.3642578125 7.40234375 93.3642578125 7.40234375 80.1259765625 c 1,98,99
 7.40234375 132.356445312 7.40234375 132.356445312 7.40234375 116.842773438 c 1,100,101
 26.8896484375 150.073242188 26.8896484375 150.073242188 46.376953125 117.767578125 c 2,102,103
 80.7373046875 118.583007812 80.7373046875 118.583007812 99.8154296875 123.913085938 c 128,-1,104
 118.893554688 129.2421875 118.893554688 129.2421875 126.184570312 135.29296875 c 128,-1,105
 133.475585938 141.34375 133.475585938 141.34375 134.655273438 150.284179688 c 0,106,107
 150.40234375 292.87109375 150.40234375 292.87109375 150.40234375 676.327148438 c 128,-1,108
 150.40234375 1059.78222656 150.40234375 1059.78222656 134.635742188 1201.88671875 c 0,109,110
 133.806640625 1208.77636719 133.806640625 1208.77636719 130.90625 1213.33984375 c 128,-1,111
 128.004882812 1217.90429688 128.004882812 1217.90429688 120.827148438 1221.3359375 c 0,112,113
 97.2138671875 1232.62695312 97.2138671875 1232.62695312 44.091796875 1234.24023438 c 2,0,1
EndSplineSet
Validated: 37
Position2: "'cpsp' Spaziatura delle maiuscole in Latino lookup 0 subtable" dx=10 dy=0 dh=20 dv=0
EndChar

StartChar: F
Encoding: 70 70 41
Width: 1063
GlyphClass: 2
Flags: W
LayerCount: 2
Fore
SplineSet
44.091796875 1234.24023438 m 2,0,1
 24.7470703125 1202.05175781 24.7470703125 1202.05175781 5.40234375 1235.41503906 c 1,2,3
 4.59765625 280.772460938 4.59765625 280.772460938 5.40234375 1318 c 2,4,5
 5.40234375 1299.7890625 5.40234375 1299.7890625 5.40234375 1361.57714844 c 1,6,7
 27.1298828125 1319.71484375 27.1298828125 1319.71484375 48.857421875 1357.85253906 c 2,8,9
 117.137695312 1352 117.137695312 1352 278.330078125 1352 c 0,10,11
 672.66015625 1352 672.66015625 1352 1004.58789062 1365.95996094 c 2,12,13
 1031.35546875 1327.15722656 1031.35546875 1327.15722656 1058.12207031 1368.35351562 c 1,14,15
 1051.67578125 1302.35449219 1051.67578125 1302.35449219 1045.23046875 1316.35546875 c 2,16,17
 1015.87207031 1197.9453125 1015.87207031 1197.9453125 1001.16308594 1063.60546875 c 2,18,19
 999.3203125 1006.7734375 999.3203125 1006.7734375 997.477539062 1029.94140625 c 1,20,21
 919.713867188 985.62109375 919.713867188 985.62109375 841.951171875 1021.30078125 c 1,22,23
 845.935546875 1005.87109375 845.935546875 1005.87109375 849.918945312 1070.44140625 c 2,24,25
 855.40234375 1104.25390625 855.40234375 1104.25390625 855.40234375 1128 c 2,26,27
 855.40234375 1088.33886719 855.40234375 1088.33886719 855.40234375 1128.67773438 c 2,28,29
 855.513671875 1132.01171875 855.513671875 1132.01171875 855.513671875 1134.51855469 c 0,30,31
 855.513671875 1163.5625 855.513671875 1163.5625 842.64453125 1172.15820312 c 0,32,33
 837.072265625 1175.88085938 837.072265625 1175.88085938 827.734375 1177.55273438 c 0,34,35
 724.950195312 1192 724.950195312 1192 601.342773438 1192 c 0,36,37
 560.0390625 1192 560.0390625 1192 433.706054688 1189.30957031 c 1,38,39
 423.662109375 1009.28613281 423.662109375 1009.28613281 422.977539062 776.447265625 c 1,40,41
 467.240234375 775 467.240234375 775 537.420898438 775 c 128,-1,42
 607.602539062 775 607.602539062 775 647.409179688 777.5625 c 128,-1,43
 687.21484375 780.125 687.21484375 780.125 699.993164062 783.348632812 c 0,44,45
 728.17578125 790.533203125 728.17578125 790.533203125 744.357421875 809.366210938 c 128,-1,46
 760.540039062 828.19921875 760.540039062 828.19921875 767.2578125 876.75390625 c 2,47,-1
 772.133789062 912 l 1,48,-1
 930.30859375 912 l 1,49,-1
 925.134765625 867.354492188 l 2,50,51
 898.274414062 635.5546875 898.274414062 635.5546875 890.340820312 491.765625 c 2,52,-1
 888.2578125 454 l 1,53,-1
 721.681640625 454 l 1,54,-1
 726.310546875 497.661132812 l 2,55,56
 728.44921875 517.838867188 728.44921875 517.838867188 728.44921875 535 c 0,57,58
 728.44921875 587.504882812 728.44921875 587.504882812 713.874023438 600.942382812 c 0,59,60
 708.411132812 605.978515625 708.411132812 605.978515625 696.635742188 608.928710938 c 128,-1,61
 684.861328125 611.879882812 684.861328125 611.879882812 645.573242188 614.439453125 c 128,-1,62
 606.28515625 617 606.28515625 617 536.565429688 617 c 128,-1,63
 466.844726562 617 466.844726562 617 422.977539062 615.515625 c 1,64,65
 423.924804688 284.302734375 423.924804688 284.302734375 442.46484375 149.532226562 c 0,66,67
 443.422851562 142.610351562 443.422851562 142.610351562 446.817382812 138.057617188 c 128,-1,68
 450.211914062 133.505859375 450.211914062 133.505859375 458.58203125 130.09375 c 0,69,70
 486.118164062 118.869140625 486.118164062 118.869140625 548.063476562 117.265625 c 2,71,72
 570.622070312 148.8046875 570.622070312 148.8046875 593.1796875 116.09765625 c 1,73,74
 593.1796875 131.299804688 593.1796875 131.299804688 593.1796875 79.853515625 c 1,75,76
 593.1796875 92.88671875 593.1796875 92.88671875 593.1796875 34 c 1,77,78
 593.1796875 52.2109375 593.1796875 52.2109375 593.1796875 -9.5771484375 c 1,79,80
 567.842773438 32.28515625 567.842773438 32.28515625 542.506835938 -5.8525390625 c 2,81,82
 462.884765625 0 462.884765625 0 278.942382812 0 c 0,83,84
 117.188476562 0 117.188476562 0 50.95703125 -5.84375 c 2,85,86
 29.1796875 32.234375 29.1796875 32.234375 7.40234375 -9.6865234375 c 1,87,88
 7.40234375 52.15625 7.40234375 52.15625 7.40234375 34 c 1,89,90
 7.40234375 93.3642578125 7.40234375 93.3642578125 7.40234375 80.1259765625 c 1,91,92
 7.40234375 132.356445312 7.40234375 132.356445312 7.40234375 116.842773438 c 1,93,94
 26.8896484375 150.073242188 26.8896484375 150.073242188 46.376953125 117.767578125 c 2,95,96
 80.7373046875 118.583007812 80.7373046875 118.583007812 99.8154296875 123.913085938 c 128,-1,97
 118.893554688 129.2421875 118.893554688 129.2421875 126.184570312 135.29296875 c 128,-1,98
 133.475585938 141.34375 133.475585938 141.34375 134.655273438 150.284179688 c 0,99,100
 150.40234375 292.87109375 150.40234375 292.87109375 150.40234375 676.327148438 c 128,-1,101
 150.40234375 1059.78222656 150.40234375 1059.78222656 134.635742188 1201.88671875 c 0,102,103
 133.806640625 1208.77636719 133.806640625 1208.77636719 130.90625 1213.33984375 c 128,-1,104
 128.004882812 1217.90429688 128.004882812 1217.90429688 120.827148438 1221.3359375 c 0,105,106
 97.2138671875 1232.62695312 97.2138671875 1232.62695312 44.091796875 1234.24023438 c 2,0,1
EndSplineSet
Validated: 37
Position2: "'cpsp' Spaziatura delle maiuscole in Latino lookup 0 subtable" dx=10 dy=0 dh=20 dv=0
EndChar

StartChar: G
Encoding: 71 71 42
Width: 1389
GlyphClass: 2
Flags: W
LayerCount: 2
Fore
SplineSet
55.8212890625 374.641601562 m 128,-1,1
 5 498.450195312 5 498.450195312 5 641.310546875 c 0,2,3
 5 804.391601562 5 804.391601562 66.58984375 945.375 c 128,-1,4
 128.1796875 1086.35742188 128.1796875 1086.35742188 237.715820312 1186.16113281 c 0,5,6
 356.598632812 1285.78320312 356.598632812 1285.78320312 525.016601562 1341.70214844 c 0,7,8
 693.434570312 1401 693.434570312 1401 888.517578125 1401 c 0,9,10
 1031.93261719 1401 1031.93261719 1401 1165.02246094 1366.68261719 c 0,11,12
 1288.56445312 1332.36621094 1288.56445312 1332.36621094 1359.95996094 1275.25 c 2,13,14
 1371.76269531 1225.80664062 1371.76269531 1225.80664062 1383.56640625 1256.36425781 c 1,15,16
 1377.73632812 1202.4609375 1377.73632812 1202.4609375 1371.90625 1228.55859375 c 2,17,18
 1321.37304688 1108.05664062 1321.37304688 1108.05664062 1300.15039062 1006.76855469 c 2,19,20
 1296.55273438 949.595703125 1296.55273438 949.595703125 1292.95410156 972.421875 c 1,21,22
 1213.50683594 938.533203125 1213.50683594 938.533203125 1133.68945312 984.64453125 c 1,23,24
 1138.99414062 967.123046875 1138.99414062 967.123046875 1143.92871094 1029.60253906 c 2,25,26
 1152 1066.37011719 1152 1066.37011719 1152 1081.54980469 c 128,-1,27
 1152 1096.72949219 1152 1096.72949219 1143.22070312 1109.64453125 c 0,28,29
 1107.32128906 1148.203125 1107.32128906 1148.203125 1013.51953125 1177.1015625 c 128,-1,30
 919.71875 1206 919.71875 1206 813.776367188 1206 c 0,31,32
 647.438476562 1206 647.438476562 1206 526.311523438 1140.7109375 c 128,-1,33
 405.375 1075.52441406 405.375 1075.52441406 343.586914062 961.97265625 c 128,-1,34
 281.799804688 848.420898438 281.799804688 848.420898438 281.799804688 698.586914062 c 0,35,36
 281.799804688 444.041015625 281.799804688 444.041015625 446.680664062 299.020507812 c 128,-1,37
 611.560546875 154 611.560546875 154 909.400390625 154 c 0,38,39
 1008.17578125 154 1008.17578125 154 1078.04882812 192.127929688 c 1,40,41
 1074.39746094 307.201171875 1074.39746094 307.201171875 1063.57128906 402.337890625 c 0,42,43
 1061.16796875 418.893554688 1061.16796875 418.893554688 1047.28710938 429.6171875 c 128,-1,44
 1033.40820312 440.340820312 1033.40820312 440.340820312 1002.75976562 448.22265625 c 128,-1,45
 972.112304688 456.104492188 972.112304688 456.104492188 919.548828125 457.006835938 c 2,46,47
 897.987304688 497.376953125 897.987304688 497.376953125 876.426757812 457.747070312 c 1,48,49
 876.426757812 568.984375 876.426757812 568.984375 876.426757812 600.221679688 c 1,50,51
 899.612304688 639.081054688 899.612304688 639.081054688 922.798828125 597.94140625 c 2,52,53
 1043.6015625 592 1043.6015625 592 1196 592 c 0,54,55
 1256.90722656 592 1256.90722656 592 1291.93261719 599.184570312 c 2,56,57
 1301.12890625 641.071289062 1301.12890625 641.071289062 1310.32519531 602.95703125 c 1,58,59
 1317.64257812 637.103515625 1317.64257812 637.103515625 1324.95996094 591.25 c 1,60,61
 1329.95996094 627.25 1329.95996094 627.25 1334.95996094 583.25 c 1,62,63
 1344.11816406 615.922851562 1344.11816406 615.922851562 1353.27734375 568.595703125 c 1,64,65
 1351.37207031 597.028320312 1351.37207031 597.028320312 1349.46679688 545.461914062 c 2,66,67
 1336 463.696289062 1336 463.696289062 1336 300 c 0,68,69
 1336 208.745117188 1336 208.745117188 1347.63183594 123.4453125 c 2,70,71
 1348.74316406 155.295898438 1348.74316406 155.295898438 1349.85449219 107.147460938 c 1,72,73
 1344.93652344 140.590820312 1344.93652344 140.590820312 1340.01855469 94.033203125 c 1,74,75
 1337.01855469 130.033203125 1337.01855469 130.033203125 1334.01855469 86.033203125 c 1,76,77
 1328.89453125 119.201171875 1328.89453125 119.201171875 1323.77148438 72.369140625 c 1,78,79
 1315.34375 111.334960938 1315.34375 111.334960938 1306.91699219 70.2998046875 c 2,80,81
 1250.49609375 63.37109375 1250.49609375 63.37109375 1188.71386719 36.20703125 c 0,82,83
 1010.52050781 -37 1010.52050781 -37 793.9921875 -37 c 0,84,85
 607.668945312 -37 607.668945312 -37 453.790039062 17.416015625 c 0,86,87
 299.91015625 68.7314453125 299.91015625 68.7314453125 201.059570312 159.782226562 c 0,88,0
 106.641601562 250.833984375 106.641601562 250.833984375 55.8212890625 374.641601562 c 128,-1,1
EndSplineSet
Validated: 37
Position2: "'cpsp' Spaziatura delle maiuscole in Latino lookup 0 subtable" dx=10 dy=0 dh=20 dv=0
EndChar

StartChar: H
Encoding: 72 72 43
Width: 1575
GlyphClass: 2
Flags: W
LayerCount: 2
Fore
SplineSet
44.091796875 1234.24023438 m 2,0,1
 24.7470703125 1202.05175781 24.7470703125 1202.05175781 5.40234375 1235.41503906 c 1,2,3
 4.59765625 280.772460938 4.59765625 280.772460938 5.40234375 1318 c 2,4,5
 5.40234375 1299.7890625 5.40234375 1299.7890625 5.40234375 1361.57714844 c 1,6,7
 27.1298828125 1319.71484375 27.1298828125 1319.71484375 48.857421875 1357.85253906 c 2,8,9
 117.137695312 1352 117.137695312 1352 276.818359375 1352 c 0,10,11
 447.254882812 1352 447.254882812 1352 518.81640625 1357.84375 c 2,12,13
 542.346679688 1319.765625 542.346679688 1319.765625 565.876953125 1361.68652344 c 1,14,15
 565.876953125 1299.84375 565.876953125 1299.84375 565.876953125 1318 c 1,16,17
 565.876953125 1259.49121094 565.876953125 1259.49121094 565.876953125 1272.36230469 c 1,18,19
 565.876953125 1221.31933594 565.876953125 1221.31933594 565.876953125 1236.03320312 c 1,20,21
 544.821289062 1203.97558594 544.821289062 1203.97558594 523.765625 1235.11816406 c 2,22,23
 486.639648438 1234.31152344 486.639648438 1234.31152344 466.025390625 1229.0390625 c 128,-1,24
 445.412109375 1223.765625 445.412109375 1223.765625 437.5234375 1217.77050781 c 128,-1,25
 429.633789062 1211.77539062 429.633789062 1211.77539062 428.369140625 1202.85253906 c 0,26,27
 411.330078125 1069.60253906 411.330078125 1069.60253906 410.345703125 780.365234375 c 1,28,29
 538.55078125 775 538.55078125 775 787.84765625 775 c 128,-1,30
 1037.14550781 775 1037.14550781 775 1165.49121094 780.366210938 c 1,31,32
 1164.50683594 1069.8046875 1164.50683594 1069.8046875 1147.44824219 1203.01171875 c 0,33,34
 1146.56054688 1209.90136719 1146.56054688 1209.90136719 1143.41503906 1214.43164062 c 128,-1,35
 1140.26953125 1218.96289062 1140.26953125 1218.96289062 1132.51464844 1222.35839844 c 0,36,37
 1107 1233.53027344 1107 1233.53027344 1049.60253906 1235.12597656 c 2,38,39
 1028.70019531 1204.09765625 1028.70019531 1204.09765625 1007.79882812 1236.28808594 c 1,40,41
 1007.79882812 1221.43847656 1007.79882812 1221.43847656 1007.79882812 1272.36230469 c 1,42,43
 1007.79882812 1259.49121094 1007.79882812 1259.49121094 1007.79882812 1318 c 1,44,45
 1007.79882812 1299.7890625 1007.79882812 1299.7890625 1007.79882812 1361.57714844 c 1,46,47
 1031.27539062 1319.71484375 1031.27539062 1319.71484375 1054.75195312 1357.85253906 c 2,48,49
 1128.52832031 1352 1128.52832031 1352 1298.96386719 1352 c 0,50,51
 1458.6171875 1352 1458.6171875 1352 1524.84765625 1357.84375 c 2,52,53
 1546.625 1319.765625 1546.625 1319.765625 1568.40234375 1361.68652344 c 1,54,55
 1568.40234375 1299.84375 1568.40234375 1299.84375 1568.40234375 1318 c 1,56,57
 1568.40234375 1258.63574219 1568.40234375 1258.63574219 1568.40234375 1271.87402344 c 1,58,59
 1568.40234375 1219.64355469 1568.40234375 1219.64355469 1568.40234375 1235.15722656 c 1,60,61
 1548.91503906 1201.92675781 1548.91503906 1201.92675781 1529.42773438 1234.23242188 c 2,62,63
 1495.06738281 1233.41699219 1495.06738281 1233.41699219 1475.98925781 1228.08691406 c 128,-1,64
 1456.91113281 1222.7578125 1456.91113281 1222.7578125 1449.62109375 1216.70703125 c 128,-1,65
 1442.33007812 1210.65722656 1442.33007812 1210.65722656 1441.15039062 1201.71972656 c 0,66,67
 1424.40234375 1049.71582031 1424.40234375 1049.71582031 1424.40234375 675.67578125 c 128,-1,68
 1424.40234375 301.634765625 1424.40234375 301.634765625 1441.16894531 150.108398438 c 0,69,70
 1441.99902344 143.22265625 1441.99902344 143.22265625 1444.89941406 138.659179688 c 128,-1,71
 1447.79980469 134.095703125 1447.79980469 134.095703125 1454.97753906 130.6640625 c 0,72,73
 1478.59179688 119.373046875 1478.59179688 119.373046875 1531.71289062 117.759765625 c 2,74,75
 1551.05761719 149.948242188 1551.05761719 149.948242188 1570.40234375 116.584960938 c 1,76,77
 1570.40234375 132.235351562 1570.40234375 132.235351562 1570.40234375 80.1259765625 c 1,78,79
 1570.40234375 93.3642578125 1570.40234375 93.3642578125 1570.40234375 34 c 1,80,81
 1570.40234375 52.2109375 1570.40234375 52.2109375 1570.40234375 -9.5771484375 c 1,82,83
 1548.67480469 32.28515625 1548.67480469 32.28515625 1526.94726562 -5.8525390625 c 2,84,85
 1458.66796875 0 1458.66796875 0 1299.01855469 0 c 0,86,87
 1128.58300781 0 1128.58300781 0 1057.02050781 -5.84375 c 2,88,89
 1033.49023438 32.234375 1033.49023438 32.234375 1009.95996094 -9.6865234375 c 1,90,91
 1009.95996094 52.15625 1009.95996094 52.15625 1009.95996094 34 c 1,92,93
 1009.95996094 92.88671875 1009.95996094 92.88671875 1009.95996094 79.853515625 c 1,94,95
 1009.95996094 131.419921875 1009.95996094 131.419921875 1009.95996094 116.354492188 c 1,96,97
 1031.015625 148.928710938 1031.015625 148.928710938 1052.07128906 117.2734375 c 2,98,99
 1089.19726562 118.083984375 1089.19726562 118.083984375 1109.81152344 123.381835938 c 128,-1,100
 1130.42480469 128.6796875 1130.42480469 128.6796875 1138.31445312 134.703125 c 128,-1,101
 1146.203125 140.7265625 1146.203125 140.7265625 1147.46972656 149.69140625 c 0,102,103
 1164.60742188 284.3828125 1164.60742188 284.3828125 1165.50292969 611.408203125 c 1,104,105
 1024.20410156 617 1024.20410156 617 781.372070312 617 c 128,-1,106
 538.5390625 617 538.5390625 617 410.333984375 611.609375 c 1,107,108
 411.224609375 284.1953125 411.224609375 284.1953125 428.388671875 149.532226562 c 0,109,110
 429.27734375 142.610351562 429.27734375 142.610351562 432.421875 138.057617188 c 128,-1,111
 435.567382812 133.505859375 435.567382812 133.505859375 443.322265625 130.09375 c 0,112,113
 468.837890625 118.869140625 468.837890625 118.869140625 526.234375 117.265625 c 2,114,115
 547.13671875 148.8046875 547.13671875 148.8046875 568.038085938 116.09765625 c 1,116,117
 568.038085938 131.299804688 568.038085938 131.299804688 568.038085938 79.853515625 c 1,118,119
 568.038085938 92.88671875 568.038085938 92.88671875 568.038085938 34 c 1,120,121
 568.038085938 52.2109375 568.038085938 52.2109375 568.038085938 -9.5771484375 c 1,122,123
 544.561523438 32.28515625 544.561523438 32.28515625 521.084960938 -5.8525390625 c 2,124,125
 447.310546875 0 447.310546875 0 276.873046875 0 c 0,126,127
 117.188476562 0 117.188476562 0 50.95703125 -5.84375 c 2,128,129
 29.1796875 32.234375 29.1796875 32.234375 7.40234375 -9.6865234375 c 1,130,131
 7.40234375 52.15625 7.40234375 52.15625 7.40234375 34 c 1,132,133
 7.40234375 93.3642578125 7.40234375 93.3642578125 7.40234375 80.1259765625 c 1,134,135
 7.40234375 132.356445312 7.40234375 132.356445312 7.40234375 116.842773438 c 1,136,137
 26.8896484375 150.073242188 26.8896484375 150.073242188 46.376953125 117.767578125 c 2,138,139
 80.7373046875 118.583007812 80.7373046875 118.583007812 99.8154296875 123.913085938 c 128,-1,140
 118.893554688 129.2421875 118.893554688 129.2421875 126.184570312 135.29296875 c 128,-1,141
 133.475585938 141.34375 133.475585938 141.34375 134.655273438 150.284179688 c 0,142,143
 150.40234375 292.87109375 150.40234375 292.87109375 150.40234375 676.327148438 c 128,-1,144
 150.40234375 1059.78222656 150.40234375 1059.78222656 134.635742188 1201.88671875 c 0,145,146
 133.806640625 1208.77636719 133.806640625 1208.77636719 130.90625 1213.33984375 c 128,-1,147
 128.004882812 1217.90429688 128.004882812 1217.90429688 120.827148438 1221.3359375 c 0,148,149
 97.2138671875 1232.62695312 97.2138671875 1232.62695312 44.091796875 1234.24023438 c 2,0,1
EndSplineSet
Validated: 37
Position2: "'cpsp' Spaziatura delle maiuscole in Latino lookup 0 subtable" dx=10 dy=0 dh=20 dv=0
EndChar

StartChar: I
Encoding: 73 73 44
Width: 549
GlyphClass: 2
Flags: W
LayerCount: 2
Fore
SplineSet
44.091796875 1234.24023438 m 2,0,1
 24.7470703125 1202.05175781 24.7470703125 1202.05175781 5.40234375 1235.41503906 c 1,2,3
 4.59765625 280.772460938 4.59765625 280.772460938 5.40234375 1318 c 2,4,5
 5.40234375 1299.7890625 5.40234375 1299.7890625 5.40234375 1361.57714844 c 1,6,7
 27.1298828125 1319.71484375 27.1298828125 1319.71484375 48.857421875 1357.85253906 c 2,8,9
 117.137695312 1352 117.137695312 1352 274.876953125 1352 c 128,-1,10
 432.6171875 1352 432.6171875 1352 498.84765625 1357.84375 c 2,11,12
 520.625 1319.765625 520.625 1319.765625 542.40234375 1361.68652344 c 1,13,14
 542.40234375 1299.84375 542.40234375 1299.84375 542.40234375 1318 c 1,15,16
 542.40234375 1258.63574219 542.40234375 1258.63574219 542.40234375 1271.87402344 c 1,17,18
 542.40234375 1219.64355469 542.40234375 1219.64355469 542.40234375 1235.15722656 c 1,19,20
 522.915039062 1201.92675781 522.915039062 1201.92675781 503.427734375 1234.23242188 c 2,21,22
 469.067382812 1233.41699219 469.067382812 1233.41699219 449.989257812 1228.08691406 c 128,-1,23
 430.911132812 1222.7578125 430.911132812 1222.7578125 423.62109375 1216.70703125 c 128,-1,24
 416.330078125 1210.65722656 416.330078125 1210.65722656 415.150390625 1201.71972656 c 0,25,26
 398.40234375 1049.71582031 398.40234375 1049.71582031 398.40234375 675.67578125 c 128,-1,27
 398.40234375 301.634765625 398.40234375 301.634765625 415.168945312 150.108398438 c 0,28,29
 415.999023438 143.22265625 415.999023438 143.22265625 418.899414062 138.659179688 c 128,-1,30
 421.799804688 134.095703125 421.799804688 134.095703125 428.977539062 130.6640625 c 0,31,32
 452.591796875 119.373046875 452.591796875 119.373046875 505.712890625 117.759765625 c 2,33,34
 525.057617188 149.948242188 525.057617188 149.948242188 544.40234375 116.584960938 c 1,35,36
 544.40234375 132.235351562 544.40234375 132.235351562 544.40234375 80.1259765625 c 1,37,38
 544.40234375 93.3642578125 544.40234375 93.3642578125 544.40234375 34 c 1,39,40
 544.40234375 52.2109375 544.40234375 52.2109375 544.40234375 -9.5771484375 c 1,41,42
 522.674804688 32.28515625 522.674804688 32.28515625 500.947265625 -5.8525390625 c 2,43,44
 432.66796875 0 432.66796875 0 274.927734375 0 c 128,-1,45
 117.188476562 0 117.188476562 0 50.95703125 -5.84375 c 2,46,47
 29.1796875 32.234375 29.1796875 32.234375 7.40234375 -9.6865234375 c 1,48,49
 7.40234375 52.15625 7.40234375 52.15625 7.40234375 34 c 1,50,51
 7.40234375 93.3642578125 7.40234375 93.3642578125 7.40234375 80.1259765625 c 1,52,53
 7.40234375 132.356445312 7.40234375 132.356445312 7.40234375 116.842773438 c 1,54,55
 26.8896484375 150.073242188 26.8896484375 150.073242188 46.376953125 117.767578125 c 2,56,57
 80.7373046875 118.583007812 80.7373046875 118.583007812 99.8154296875 123.913085938 c 128,-1,58
 118.893554688 129.2421875 118.893554688 129.2421875 126.184570312 135.29296875 c 128,-1,59
 133.475585938 141.34375 133.475585938 141.34375 134.655273438 150.284179688 c 0,60,61
 150.40234375 292.87109375 150.40234375 292.87109375 150.40234375 676.327148438 c 128,-1,62
 150.40234375 1059.78222656 150.40234375 1059.78222656 134.635742188 1201.88671875 c 0,63,64
 133.806640625 1208.77636719 133.806640625 1208.77636719 130.90625 1213.33984375 c 128,-1,65
 128.004882812 1217.90429688 128.004882812 1217.90429688 120.827148438 1221.3359375 c 0,66,67
 97.2138671875 1232.62695312 97.2138671875 1232.62695312 44.091796875 1234.24023438 c 2,0,1
EndSplineSet
Validated: 37
Position2: "'cpsp' Spaziatura delle maiuscole in Latino lookup 0 subtable" dx=10 dy=0 dh=20 dv=0
EndChar

StartChar: J
Encoding: 74 74 45
Width: 885
GlyphClass: 2
Flags: W
LayerCount: 2
Fore
SplineSet
81.880859375 -1.4482421875 m 2,0,1
 148.149414062 -31 148.149414062 -31 217.62109375 -31 c 0,2,3
 272.44921875 -31 272.44921875 -31 311.275390625 -22.107421875 c 128,-1,4
 350.103515625 -13.2158203125 350.103515625 -13.2158203125 378.116210938 7.4453125 c 0,5,6
 406.12890625 26.91796875 406.12890625 26.91796875 422.670898438 65.513671875 c 128,-1,7
 439.213867188 104.110351562 439.213867188 104.110351562 442.739257812 168.678710938 c 0,8,9
 450.287109375 333.120117188 450.287109375 333.120117188 450.287109375 696.297851562 c 128,-1,10
 450.287109375 1059.47558594 450.287109375 1059.47558594 430.360351562 1201.74902344 c 0,11,12
 429.310546875 1208.64648438 429.310546875 1208.64648438 425.64453125 1213.21582031 c 128,-1,13
 421.977539062 1217.78515625 421.977539062 1217.78515625 412.905273438 1221.22070312 c 0,14,15
 383.059570312 1232.52539062 383.059570312 1232.52539062 315.916992188 1234.140625 c 2,16,17
 291.465820312 1201.8203125 291.465820312 1201.8203125 267.015625 1235.31640625 c 1,18,19
 267.015625 1219.57617188 267.015625 1219.57617188 267.015625 1271.81933594 c 1,20,21
 267.015625 1258.5390625 267.015625 1258.5390625 267.015625 1318 c 1,22,23
 267.015625 1299.7890625 267.015625 1299.7890625 267.015625 1361.57714844 c 1,24,25
 294.477539062 1319.71484375 294.477539062 1319.71484375 321.940429688 1357.85253906 c 2,26,27
 408.2421875 1352 408.2421875 1352 607.014648438 1352 c 0,28,29
 769.8359375 1352 769.8359375 1352 836.06640625 1357.84375 c 2,30,31
 857.84375 1319.765625 857.84375 1319.765625 879.62109375 1361.68652344 c 1,32,33
 879.62109375 1299.84375 879.62109375 1299.84375 879.62109375 1318 c 1,34,35
 879.62109375 1258.28808594 879.62109375 1258.28808594 879.62109375 1271.67578125 c 1,36,37
 879.62109375 1218.96484375 879.62109375 1218.96484375 879.62109375 1234.80957031 c 1,38,39
 860.138671875 1201.09570312 860.138671875 1201.09570312 840.655273438 1233.87304688 c 2,40,41
 796.344726562 1232.80859375 796.344726562 1232.80859375 772.993164062 1222.76367188 c 0,42,43
 763.654296875 1218.74707031 763.654296875 1218.74707031 758.956054688 1213.74414062 c 128,-1,44
 754.37890625 1208.87207031 754.37890625 1208.87207031 753.369140625 1201.21679688 c 0,45,46
 736.62109375 1048.56542969 736.62109375 1048.56542969 736.62109375 692.15625 c 0,47,48
 736.62109375 466.5078125 736.62109375 466.5078125 738.616210938 344.8515625 c 1,49,50
 738.616210938 360.044921875 738.616210938 360.044921875 738.616210938 344.552734375 c 2,51,52
 738.616210938 337.1640625 738.616210938 337.1640625 738.62109375 330.07421875 c 0,53,54
 738.62109375 92.9599609375 738.62109375 92.9599609375 598.674804688 -66.7685546875 c 0,55,56
 421.680664062 -244 421.680664062 -244 174.62109375 -244 c 0,57,58
 127.641601562 -244 127.641601562 -244 86.2431640625 -219.419921875 c 2,59,60
 80.0126953125 -175.720703125 80.0126953125 -175.720703125 73.783203125 -212.021484375 c 1,61,62
 39.3916015625 -75.5908203125 39.3916015625 -75.5908203125 5 -19.16015625 c 1,63,64
 22.89453125 27.998046875 22.89453125 27.998046875 40.7890625 -4.8447265625 c 1,65,66
 45.7890625 37.1552734375 45.7890625 37.1552734375 50.7890625 -0.8447265625 c 1,67,68
 58.6279296875 42.291015625 58.6279296875 42.291015625 66.4658203125 5.4267578125 c 1,69,70
 74.173828125 41.9892578125 74.173828125 41.9892578125 81.880859375 -1.4482421875 c 2,0,1
EndSplineSet
Validated: 5
Position2: "'cpsp' Spaziatura delle maiuscole in Latino lookup 0 subtable" dx=10 dy=0 dh=20 dv=0
EndChar

StartChar: K
Encoding: 75 75 46
Width: 1401
GlyphClass: 2
Flags: W
LayerCount: 2
Fore
SplineSet
854.033203125 1224.98828125 m 1,0,1
 854.033203125 1203.99414062 854.033203125 1203.99414062 854.033203125 1263 c 1,2,3
 854.033203125 1247.5 854.033203125 1247.5 854.033203125 1312 c 1,4,5
 854.033203125 1292 854.033203125 1292 854.033203125 1352 c 1,6,-1
 897.936523438 1352 l 2,7,8
 1264.60351562 1352 1264.60351562 1352 1352.82128906 1359.84179688 c 2,9,10
 1374.61230469 1321.77832031 1374.61230469 1321.77832031 1396.40234375 1363.71582031 c 1,11,12
 1396.40234375 1301.85742188 1396.40234375 1301.85742188 1396.40234375 1320 c 1,13,14
 1396.40234375 1260.47753906 1396.40234375 1260.47753906 1396.40234375 1273.78417969 c 1,15,16
 1396.40234375 1221.88085938 1396.40234375 1221.88085938 1396.40234375 1238.15820312 c 1,17,18
 1377.56445312 1204.11914062 1377.56445312 1204.11914062 1358.72558594 1236.11914062 c 2,19,20
 1251.89648438 1230.33789062 1251.89648438 1230.33789062 1183.68164062 1165.99804688 c 2,21,22
 1183.51757812 1136.87597656 1183.51757812 1136.87597656 1183.35351562 1165.69238281 c 2,23,24
 993.298828125 1003.38183594 993.298828125 1003.38183594 889.838867188 904.450195312 c 128,-1,25
 786.37890625 805.518554688 786.37890625 805.518554688 706.8828125 713.536132812 c 1,26,27
 752.256835938 677.048828125 752.256835938 677.048828125 797.958984375 625.919921875 c 0,28,29
 898.987304688 511.2421875 898.987304688 511.2421875 1092.19140625 291.938476562 c 0,30,31
 1178.2109375 190.595703125 1178.2109375 190.595703125 1230.37402344 158.07421875 c 128,-1,32
 1282.53710938 125.551757812 1282.53710938 125.551757812 1357.17285156 117.171875 c 2,33,34
 1374.78710938 145.916015625 1374.78710938 145.916015625 1392.40234375 113.215820312 c 1,35,36
 1392.40234375 86.8369140625 1392.40234375 86.8369140625 1392.40234375 -8.1044921875 c 1,37,38
 1371.36328125 32.974609375 1371.36328125 32.974609375 1350.32421875 -5.947265625 c 2,39,40
 1234.36132812 0 1234.36132812 0 962.693359375 0 c 2,41,42
 951.041992188 40 951.041992188 40 939.388671875 0 c 1,43,44
 752.657226562 291.56640625 752.657226562 291.56640625 565.924804688 503.131835938 c 2,45,46
 528.3359375 555.454101562 528.3359375 555.454101562 497.565429688 586.25 c 128,-1,47
 466.794921875 617.045898438 466.794921875 617.045898438 422.147460938 646.629882812 c 2,48,49
 417.5390625 689.68359375 417.5390625 689.68359375 412.9296875 652.73828125 c 1,50,51
 414.301757812 305.250976562 414.301757812 305.250976562 431.2109375 157.342773438 c 0,52,53
 432.122070312 150.02734375 432.122070312 150.02734375 435.305664062 145.1796875 c 128,-1,54
 438.489257812 140.333007812 438.489257812 140.333007812 446.3671875 136.686523438 c 0,55,56
 472.28515625 124.692382812 472.28515625 124.692382812 530.58984375 122.978515625 c 2,57,58
 551.822265625 162.354492188 551.822265625 162.354492188 573.0546875 121.73046875 c 1,59,60
 573.0546875 142.365234375 573.0546875 142.365234375 573.0546875 83 c 1,61,62
 573.0546875 98.5 573.0546875 98.5 573.0546875 34 c 1,63,64
 573.0546875 52.2109375 573.0546875 52.2109375 573.0546875 -9.5771484375 c 1,65,66
 549.20703125 32.28515625 549.20703125 32.28515625 525.359375 -5.8525390625 c 2,67,68
 450.41796875 0 450.41796875 0 277.286132812 0 c 0,69,70
 117.188476562 0 117.188476562 0 50.95703125 -5.84375 c 2,71,72
 29.1796875 32.234375 29.1796875 32.234375 7.40234375 -9.6865234375 c 1,73,74
 7.40234375 52.15625 7.40234375 52.15625 7.40234375 34 c 1,75,76
 7.40234375 93.3642578125 7.40234375 93.3642578125 7.40234375 80.1259765625 c 1,77,78
 7.40234375 132.356445312 7.40234375 132.356445312 7.40234375 116.842773438 c 1,79,80
 26.8896484375 150.073242188 26.8896484375 150.073242188 46.376953125 117.767578125 c 2,81,82
 80.7373046875 118.583007812 80.7373046875 118.583007812 99.8154296875 123.913085938 c 128,-1,83
 118.893554688 129.2421875 118.893554688 129.2421875 126.184570312 135.29296875 c 128,-1,84
 133.475585938 141.34375 133.475585938 141.34375 134.655273438 150.284179688 c 0,85,86
 150.40234375 292.87109375 150.40234375 292.87109375 150.40234375 676.327148438 c 128,-1,87
 150.40234375 1059.78222656 150.40234375 1059.78222656 134.635742188 1201.88671875 c 0,88,89
 133.806640625 1208.77636719 133.806640625 1208.77636719 130.90625 1213.33984375 c 128,-1,90
 128.004882812 1217.90429688 128.004882812 1217.90429688 120.827148438 1221.3359375 c 0,91,92
 97.2138671875 1232.62695312 97.2138671875 1232.62695312 44.091796875 1234.24023438 c 2,93,94
 24.7470703125 1202.05175781 24.7470703125 1202.05175781 5.40234375 1235.41503906 c 1,95,96
 4.59765625 280.772460938 4.59765625 280.772460938 5.40234375 1318 c 2,97,98
 5.40234375 1299.7890625 5.40234375 1299.7890625 5.40234375 1361.57714844 c 1,99,100
 27.1298828125 1319.71484375 27.1298828125 1319.71484375 48.857421875 1357.85253906 c 2,101,102
 117.137695312 1352 117.137695312 1352 277.23046875 1352 c 0,103,104
 450.362304688 1352 450.362304688 1352 523.0546875 1357.84375 c 2,105,106
 546.95703125 1319.765625 546.95703125 1319.765625 570.859375 1361.68652344 c 1,107,108
 570.859375 1299.84375 570.859375 1299.84375 570.859375 1318 c 1,109,110
 570.859375 1253.5 570.859375 1253.5 570.859375 1269 c 1,111,112
 570.859375 1209.49804688 570.859375 1209.49804688 570.859375 1229.99511719 c 1,113,114
 549.470703125 1189.50390625 549.470703125 1189.50390625 528.08203125 1229.01269531 c 2,115,116
 490.369140625 1228.14648438 490.369140625 1228.14648438 469.428710938 1222.48535156 c 128,-1,117
 448.489257812 1216.82421875 448.489257812 1216.82421875 440.48828125 1210.39648438 c 128,-1,118
 432.485351562 1203.96875 432.485351562 1203.96875 431.190429688 1194.47460938 c 0,119,120
 413.91015625 1042.6796875 413.91015625 1042.6796875 412.875 682.448242188 c 1,121,122
 413.174804688 642.672851562 413.174804688 642.672851562 413.475585938 682.897460938 c 2,123,124
 535.563476562 774.4453125 535.563476562 774.4453125 679.9375 910.434570312 c 128,-1,125
 824.311523438 1046.42382812 824.311523438 1046.42382812 917.491210938 1150.04492188 c 0,126,127
 952.9296875 1190.94824219 952.9296875 1190.94824219 960.412109375 1212.51953125 c 1,128,129
 941.543945312 1220.91992188 941.543945312 1220.91992188 895.66796875 1223.05273438 c 2,130,131
 874.8515625 1184.02050781 874.8515625 1184.02050781 854.033203125 1224.98828125 c 1,0,1
EndSplineSet
Validated: 37
Position2: "'cpsp' Spaziatura delle maiuscole in Latino lookup 0 subtable" dx=10 dy=0 dh=20 dv=0
EndChar

StartChar: L
Encoding: 76 76 47
Width: 1117
GlyphClass: 2
Flags: W
LayerCount: 2
Fore
SplineSet
44.091796875 1234.24023438 m 2,0,1
 24.7470703125 1202.05175781 24.7470703125 1202.05175781 5.40234375 1235.41503906 c 1,2,3
 4.59765625 280.772460938 4.59765625 280.772460938 5.40234375 1318 c 2,4,5
 5.40234375 1299.7890625 5.40234375 1299.7890625 5.40234375 1361.57714844 c 1,6,7
 27.1298828125 1319.71484375 27.1298828125 1319.71484375 48.857421875 1357.85253906 c 2,8,9
 117.137695312 1352 117.137695312 1352 278.478515625 1352 c 0,10,11
 459.7734375 1352 459.7734375 1352 535.893554688 1357.84375 c 2,12,13
 560.922851562 1319.765625 560.922851562 1319.765625 585.952148438 1361.68652344 c 1,14,15
 585.952148438 1299.84375 585.952148438 1299.84375 585.952148438 1318 c 1,16,17
 585.952148438 1259.1484375 585.952148438 1259.1484375 585.952148438 1272.16601562 c 1,18,19
 585.952148438 1220.64941406 585.952148438 1220.64941406 585.952148438 1235.68261719 c 1,20,21
 563.5546875 1203.15625 563.5546875 1203.15625 541.157226562 1234.76367188 c 2,22,23
 501.666015625 1233.953125 501.666015625 1233.953125 479.739257812 1228.65722656 c 128,-1,24
 457.8125 1223.36230469 457.8125 1223.36230469 449.43359375 1217.34960938 c 128,-1,25
 441.053710938 1211.33789062 441.053710938 1211.33789062 439.698242188 1202.45703125 c 0,26,27
 420.44921875 1051.41699219 420.44921875 1051.41699219 420.44921875 698.778320312 c 0,28,29
 420.44921875 381.923828125 420.44921875 381.923828125 439.354492188 258.739257812 c 0,30,31
 443.501953125 231.716796875 443.501953125 231.716796875 447.541015625 221.541992188 c 0,32,33
 455.76953125 200.815429688 455.76953125 200.815429688 471.688476562 188.888671875 c 0,34,35
 487.998046875 177.475585938 487.998046875 177.475585938 518.243164062 170.377929688 c 0,36,37
 562.469726562 160 562.469726562 160 631.924804688 160 c 0,38,39
 793.534179688 160 793.534179688 160 870.990234375 171.489257812 c 0,40,41
 896.564453125 175.423828125 896.564453125 175.423828125 912.569335938 192.68359375 c 0,42,43
 932.171875 213.82421875 932.171875 213.82421875 951.4453125 271.642578125 c 2,44,45
 955.75 324.557617188 955.75 324.557617188 960.0546875 297.47265625 c 1,46,47
 1036.15820312 341.586914062 1036.15820312 341.586914062 1112.26171875 305.700195312 c 1,48,49
 1107.47851562 320.591796875 1107.47851562 320.591796875 1102.69628906 255.482421875 c 2,50,51
 1079.28710938 132.588867188 1079.28710938 132.588867188 1076.38378906 36.7685546875 c 2,52,53
 1075.79101562 57.1962890625 1075.79101562 57.1962890625 1075.19726562 -2.376953125 c 1,54,55
 823.63671875 0 823.63671875 0 277.932617188 0 c 0,56,57
 115.241210938 0 115.241210938 0 51.0634765625 -5.833984375 c 2,58,59
 29.2333984375 32.1806640625 29.2333984375 32.1806640625 7.40234375 -9.8037109375 c 1,60,61
 7.40234375 52.0986328125 7.40234375 52.0986328125 7.40234375 34 c 1,62,63
 7.40234375 93.3642578125 7.40234375 93.3642578125 7.40234375 80.1259765625 c 1,64,65
 7.40234375 132.356445312 7.40234375 132.356445312 7.40234375 116.842773438 c 1,66,67
 26.8896484375 150.073242188 26.8896484375 150.073242188 46.376953125 117.767578125 c 2,68,69
 80.7373046875 118.583007812 80.7373046875 118.583007812 99.8154296875 123.913085938 c 128,-1,70
 118.893554688 129.2421875 118.893554688 129.2421875 126.184570312 135.29296875 c 128,-1,71
 133.475585938 141.34375 133.475585938 141.34375 134.655273438 150.284179688 c 0,72,73
 150.40234375 292.87109375 150.40234375 292.87109375 150.40234375 676.327148438 c 128,-1,74
 150.40234375 1059.78222656 150.40234375 1059.78222656 134.635742188 1201.88671875 c 0,75,76
 133.806640625 1208.77636719 133.806640625 1208.77636719 130.90625 1213.33984375 c 128,-1,77
 128.004882812 1217.90429688 128.004882812 1217.90429688 120.827148438 1221.3359375 c 0,78,79
 97.2138671875 1232.62695312 97.2138671875 1232.62695312 44.091796875 1234.24023438 c 2,0,1
EndSplineSet
Validated: 37
Position2: "'cpsp' Spaziatura delle maiuscole in Latino lookup 0 subtable" dx=10 dy=0 dh=20 dv=0
EndChar

StartChar: M
Encoding: 77 77 48
Width: 1866
GlyphClass: 2
Flags: W
LayerCount: 2
Fore
SplineSet
5 -9.8037109375 m 1,0,1
 5 52.0986328125 5 52.0986328125 5 34 c 1,2,3
 5 93.4951171875 5 93.4951171875 5 80.201171875 c 1,4,5
 5 132.668945312 5 132.668945312 5 117.092773438 c 1,6,7
 24.5517578125 150.444335938 24.5517578125 150.444335938 44.1025390625 117.90625 c 2,8,9
 124.388671875 119.576171875 124.388671875 119.576171875 143.420898438 149.706054688 c 0,10,11
 148.750976562 158.145507812 148.750976562 158.145507812 150.267578125 171.32421875 c 0,12,13
 226.094726562 788.4453125 226.094726562 788.4453125 246.022460938 1354.34960938 c 2,14,15
 246.629882812 1332.62890625 246.629882812 1332.62890625 247.237304688 1390.90917969 c 1,16,17
 319.830078125 1354.71679688 319.830078125 1354.71679688 392.641601562 1398.52539062 c 1,18,19
 398.35546875 1345.27148438 398.35546875 1345.27148438 404.069335938 1372.01757812 c 2,20,21
 558.537109375 1013.71582031 558.537109375 1013.71582031 910.821289062 394.815429688 c 1,22,23
 1021.93847656 549.362304688 1021.93847656 549.362304688 1142.2890625 738.6484375 c 128,-1,24
 1262.640625 927.93359375 1262.640625 927.93359375 1538.96972656 1397 c 1,25,-1
 1685.40332031 1397 l 1,26,27
 1678 1194.19921875 1678 1194.19921875 1678 1038.03613281 c 128,-1,28
 1678 881.873046875 1678 881.873046875 1682.98144531 732.23828125 c 0,29,30
 1692.94335938 418.892578125 1692.94335938 418.892578125 1718.82714844 155.600585938 c 0,31,32
 1719.49707031 148.41796875 1719.49707031 148.41796875 1723.96191406 143.489257812 c 128,-1,33
 1728.42578125 138.561523438 1728.42578125 138.561523438 1738.1640625 134.022460938 c 0,34,35
 1768.94824219 119.671875 1768.94824219 119.671875 1822.31054688 118.045898438 c 2,36,37
 1841.65527344 150.612304688 1841.65527344 150.612304688 1861 116.8671875 c 1,38,39
 1861 132.77734375 1861 132.77734375 1861 80.283203125 c 1,40,41
 1861 93.6416015625 1861 93.6416015625 1861 34 c 1,42,43
 1861 52.15625 1861 52.15625 1861 -9.6865234375 c 1,44,45
 1839.22265625 32.234375 1839.22265625 32.234375 1817.4453125 -5.84375 c 2,46,47
 1751.21484375 0 1751.21484375 0 1590.04980469 0 c 0,48,49
 1420.41601562 0 1420.41601562 0 1352.24121094 -5.833984375 c 2,50,51
 1329.05078125 32.1806640625 1329.05078125 32.1806640625 1305.86132812 -9.8037109375 c 1,52,53
 1305.86132812 52.0986328125 1305.86132812 52.0986328125 1305.86132812 34 c 1,54,55
 1305.86132812 98.5 1305.86132812 98.5 1305.86132812 83 c 1,56,57
 1305.86132812 142.471679688 1305.86132812 142.471679688 1305.86132812 121.943359375 c 1,58,59
 1326.52734375 162.463867188 1326.52734375 162.463867188 1347.1953125 122.985351562 c 2,60,61
 1389.77050781 124.05859375 1389.77050781 124.05859375 1410.78417969 134.952148438 c 0,62,63
 1420.35058594 139.912109375 1420.35058594 139.912109375 1424.00195312 146.485351562 c 128,-1,64
 1427.56933594 152.91015625 1427.56933594 152.91015625 1428.08789062 163.219726562 c 0,65,66
 1432.27246094 235.112304688 1432.27246094 235.112304688 1432.27246094 334.23828125 c 128,-1,67
 1432.27246094 433.364257812 1432.27246094 433.364257812 1427.09277344 588.663085938 c 128,-1,68
 1421.9140625 743.962890625 1421.9140625 743.962890625 1408.5625 895.185546875 c 1,69,70
 1300.1484375 743.270507812 1300.1484375 743.270507812 1219.95996094 612.989257812 c 0,71,72
 1115.99121094 444.072265625 1115.99121094 444.072265625 918.724609375 71.6142578125 c 1,73,74
 859.541992188 107.899414062 859.541992188 107.899414062 800.360351562 64.185546875 c 1,75,76
 794.490234375 117.381835938 794.490234375 117.381835938 788.62109375 90.578125 c 2,77,78
 629.088867188 449.239257812 629.088867188 449.239257812 384.2421875 864.881835938 c 1,79,80
 341.979492188 526.90234375 341.979492188 526.90234375 333.874023438 160.626953125 c 0,81,82
 333.975585938 143.151367188 333.975585938 143.151367188 344.678710938 135.737304688 c 0,83,84
 350.680664062 131.580078125 350.680664062 131.580078125 366.9921875 127.526367188 c 128,-1,85
 383.305664062 123.47265625 383.305664062 123.47265625 415.29296875 122.995117188 c 2,86,87
 436.1953125 162.682617188 436.1953125 162.682617188 457.09765625 122.370117188 c 1,88,89
 457.09765625 142.685546875 457.09765625 142.685546875 457.09765625 83 c 1,90,91
 457.09765625 98.5 457.09765625 98.5 457.09765625 34 c 1,92,93
 457.09765625 51.6982421875 457.09765625 51.6982421875 457.09765625 -10.603515625 c 1,94,95
 433.526367188 31.81640625 433.526367188 31.81640625 409.955078125 -5.7626953125 c 2,96,97
 353.840820312 0 353.840820312 0 230.318359375 0 c 0,98,99
 112.838867188 0 112.838867188 0 48.6611328125 -5.833984375 c 2,100,101
 26.830078125 32.1806640625 26.830078125 32.1806640625 5 -9.8037109375 c 1,0,1
EndSplineSet
Validated: 37
Position2: "'cpsp' Spaziatura delle maiuscole in Latino lookup 0 subtable" dx=10 dy=0 dh=20 dv=0
EndChar

StartChar: N
Encoding: 78 78 49
Width: 1530
GlyphClass: 2
Flags: W
LayerCount: 2
Fore
SplineSet
5 -9.6865234375 m 1,0,1
 5 52.15625 5 52.15625 5 34 c 1,2,3
 5 93.474609375 5 93.474609375 5 80.189453125 c 1,4,5
 5 132.59765625 5 132.59765625 5 117.0078125 c 1,6,7
 24.515625 150.364257812 24.515625 150.364257812 44.03125 117.883789062 c 2,8,9
 80.9326171875 118.711914062 80.9326171875 118.711914062 101.196289062 124.137695312 c 128,-1,10
 121.459960938 129.5625 121.459960938 129.5625 128.470703125 135.307617188 c 128,-1,11
 135.482421875 141.051757812 135.482421875 141.051757812 136.096679688 148.815429688 c 0,12,13
 148 310.57421875 148 310.57421875 148 695.728515625 c 0,14,15
 148 1007.40917969 148 1007.40917969 126.07421875 1348.54785156 c 2,16,17
 124.853515625 1328.68652344 124.853515625 1328.68652344 123.6328125 1388.82617188 c 1,18,19
 192.557617188 1352.45410156 192.557617188 1352.45410156 262.38671875 1396.08203125 c 1,20,21
 269.329101562 1347.34375 269.329101562 1347.34375 276.270507812 1378.60546875 c 2,22,23
 435.565429688 1178.10253906 435.565429688 1178.10253906 844.189453125 752.413085938 c 0,24,25
 1050.83789062 535.958007812 1050.83789062 535.958007812 1207.99023438 380.560546875 c 1,26,27
 1205.24414062 443 1205.24414062 443 1205.24414062 507 c 2,28,29
 1205.24414062 541.5 1205.24414062 541.5 1205.24414062 656 c 2,30,31
 1205.24414062 1024.6015625 1205.24414062 1024.6015625 1192.35351562 1195.98632812 c 0,32,33
 1191.68359375 1204.26367188 1191.68359375 1204.26367188 1183.921875 1210.39453125 c 128,-1,34
 1176.15820312 1216.52441406 1176.15820312 1216.52441406 1153.66503906 1222.32714844 c 128,-1,35
 1131.17089844 1228.12890625 1131.17089844 1228.12890625 1090.35449219 1229.01074219 c 2,36,37
 1069.18457031 1189.46875 1069.18457031 1189.46875 1048.01464844 1229.92675781 c 1,38,39
 1048.01464844 1209.46289062 1048.01464844 1209.46289062 1048.01464844 1269 c 1,40,41
 1048.01464844 1253.5 1048.01464844 1253.5 1048.01464844 1318 c 1,42,43
 1048.01464844 1299.7890625 1048.01464844 1299.7890625 1048.01464844 1361.57714844 c 1,44,45
 1071.57421875 1319.71484375 1071.57421875 1319.71484375 1095.13476562 1357.85253906 c 2,46,47
 1169.17382812 1352 1169.17382812 1352 1303.72460938 1352 c 0,48,49
 1429.71484375 1352 1429.71484375 1352 1480.45898438 1357.74414062 c 2,50,51
 1502.72949219 1320.265625 1502.72949219 1320.265625 1525 1362.78710938 c 1,52,53
 1525 1300.39355469 1525 1300.39355469 1525 1318 c 1,54,55
 1525 1258.56542969 1525 1258.56542969 1525 1271.83398438 c 1,56,57
 1525 1219.48046875 1525 1219.48046875 1525 1235.03320312 c 1,58,59
 1505.484375 1201.73242188 1505.484375 1201.73242188 1485.96875 1234.15820312 c 2,60,61
 1449.06738281 1233.33007812 1449.06738281 1233.33007812 1428.80371094 1227.90722656 c 128,-1,62
 1408.54003906 1222.484375 1408.54003906 1222.484375 1401.52929688 1216.74316406 c 128,-1,63
 1394.51757812 1211.00097656 1394.51757812 1211.00097656 1393.90234375 1203.22558594 c 0,64,65
 1382 1042.49609375 1382 1042.49609375 1382 694.284179688 c 0,66,67
 1382 245.647460938 1382 245.647460938 1391.96679688 14.6494140625 c 2,68,69
 1392.76757812 34.9482421875 1392.76757812 34.9482421875 1393.56835938 -24.7529296875 c 1,70,71
 1327.04589844 11.55078125 1327.04589844 11.55078125 1258.94433594 -32.14453125 c 1,72,73
 1251.98046875 16.6494140625 1251.98046875 16.6494140625 1245.015625 -14.5576171875 c 2,74,75
 1084.60644531 187.98046875 1084.60644531 187.98046875 689.927734375 601.818359375 c 0,76,77
 500.583007812 803.23828125 500.583007812 803.23828125 321.390625 971.43359375 c 1,78,79
 323.671875 913.02734375 323.671875 913.02734375 323.671875 847 c 2,80,81
 323.671875 831.5 323.671875 831.5 323.671875 736 c 2,82,83
 323.671875 341.40234375 323.671875 341.40234375 337.646484375 156.013671875 c 0,84,85
 338.31640625 147.736328125 338.31640625 147.736328125 346.078125 141.60546875 c 128,-1,86
 353.841796875 135.475585938 353.841796875 135.475585938 376.334960938 129.672851562 c 128,-1,87
 398.829101562 123.87109375 398.829101562 123.87109375 439.645507812 122.989257812 c 2,88,89
 460.815429688 162.53125 460.815429688 162.53125 481.985351562 122.073242188 c 1,90,91
 481.985351562 142.537109375 481.985351562 142.537109375 481.985351562 83 c 1,92,93
 481.985351562 98.5 481.985351562 98.5 481.985351562 34 c 1,94,95
 481.985351562 51.6982421875 481.985351562 51.6982421875 481.985351562 -10.603515625 c 1,96,97
 457.924804688 31.81640625 457.924804688 31.81640625 433.86328125 -5.7626953125 c 2,98,99
 376.583984375 0 376.583984375 0 240.791015625 0 c 0,100,101
 114.78515625 0 114.78515625 0 48.5546875 -5.84375 c 2,102,103
 26.77734375 32.234375 26.77734375 32.234375 5 -9.6865234375 c 1,0,1
EndSplineSet
Validated: 37
Position2: "'cpsp' Spaziatura delle maiuscole in Latino lookup 0 subtable" dx=10 dy=0 dh=20 dv=0
EndChar

StartChar: O
Encoding: 79 79 50
Width: 1530
GlyphClass: 2
Flags: W
LayerCount: 2
Fore
SplineSet
41.33984375 421.624023438 m 128,-1,1
 5 536.2421875 5 536.2421875 5 669.564453125 c 0,2,3
 5 880.661132812 5 880.661132812 100.556640625 1048.51074219 c 128,-1,4
 196.11328125 1216.359375 196.11328125 1216.359375 372.623046875 1308.6796875 c 0,5,6
 553.740234375 1401 553.740234375 1401 778.01171875 1401 c 0,7,8
 902.326171875 1401 902.326171875 1401 1016.60839844 1370.8125 c 0,9,10
 1130.890625 1342.3125 1130.890625 1342.3125 1227.37988281 1283.45605469 c 0,11,12
 1320.20019531 1224.73046875 1320.20019531 1224.73046875 1386.24902344 1141.25488281 c 128,-1,13
 1452.29785156 1057.77929688 1452.29785156 1057.77929688 1488.64941406 943.384765625 c 128,-1,14
 1525 828.990234375 1525 828.990234375 1525 695.970703125 c 0,15,16
 1525 537.848632812 1525 537.848632812 1469.20898438 401.698242188 c 128,-1,17
 1413.41796875 265.547851562 1413.41796875 265.547851562 1315.80566406 169.887695312 c 0,18,19
 1212.92480469 74.1201171875 1212.92480469 74.1201171875 1065.92773438 20.126953125 c 0,20,21
 919.09375 -37 919.09375 -37 750.903320312 -37 c 0,22,23
 626.560546875 -37 626.560546875 -37 512.852539062 -6.8125 c 0,24,25
 399.14453125 21.751953125 399.14453125 21.751953125 302.178710938 80.681640625 c 0,26,27
 208.768554688 139.6015625 208.768554688 139.6015625 143.223632812 223.303710938 c 128,-1,0
 77.6787109375 307.004882812 77.6787109375 307.004882812 41.33984375 421.624023438 c 128,-1,1
423.438476562 1086.60253906 m 0,28,29
 299.815429688 945.203125 299.815429688 945.203125 299.815429688 682 c 0,30,31
 299.815429688 433.5 299.815429688 433.5 427.48046875 284.5625 c 0,32,33
 495.983398438 204.643554688 495.983398438 204.643554688 592.899414062 169.43359375 c 0,34,35
 671.163085938 141 671.163085938 141 768.9921875 141 c 128,-1,36
 866.8203125 141 866.8203125 141 944.118164062 168.134765625 c 0,37,38
 1039.49414062 201.6171875 1039.49414062 201.6171875 1106.0703125 277.456054688 c 0,39,40
 1230.18457031 418.836914062 1230.18457031 418.836914062 1230.18457031 682 c 0,41,42
 1230.18457031 930.4609375 1230.18457031 930.4609375 1102.02734375 1079.38085938 c 0,43,44
 1033.21972656 1159.33398438 1033.21972656 1159.33398438 936.141601562 1194.55957031 c 0,45,46
 857.762695312 1223 857.762695312 1223 759.93359375 1223 c 128,-1,47
 662.104492188 1223 662.104492188 1223 584.922851562 1195.87109375 c 0,48,49
 489.711914062 1162.40527344 489.711914062 1162.40527344 423.438476562 1086.60253906 c 0,28,29
EndSplineSet
Validated: 1
Position2: "'cpsp' Spaziatura delle maiuscole in Latino lookup 0 subtable" dx=10 dy=0 dh=20 dv=0
EndChar

StartChar: P
Encoding: 80 80 51
Width: 1100
GlyphClass: 2
Flags: W
LayerCount: 2
Fore
SplineSet
44.091796875 1234.24023438 m 2,0,1
 24.7470703125 1202.05175781 24.7470703125 1202.05175781 5.40234375 1235.41503906 c 1,2,3
 4.59765625 280.772460938 4.59765625 280.772460938 5.40234375 1318 c 2,4,5
 5.40234375 1299.7890625 5.40234375 1299.7890625 5.40234375 1361.57714844 c 1,6,7
 27.1298828125 1319.71484375 27.1298828125 1319.71484375 48.857421875 1357.85253906 c 2,8,9
 117.137695312 1352 117.137695312 1352 193.94921875 1352 c 0,10,11
 268.415039062 1352 268.415039062 1352 412.099609375 1367.70800781 c 0,12,13
 529.145507812 1380 529.145507812 1380 616.221679688 1380 c 0,14,15
 850.286132812 1380 850.286132812 1380 970.66796875 1289.62890625 c 0,16,17
 1095.40234375 1195.99121094 1095.40234375 1195.99121094 1095.40234375 1015.08105469 c 0,18,19
 1095.40234375 947.962890625 1095.40234375 947.962890625 1074.79101562 890.258789062 c 128,-1,20
 1054.13964844 832.444335938 1054.13964844 832.444335938 1020.93066406 791.79296875 c 128,-1,21
 987.72265625 751.140625 987.72265625 751.140625 943.296875 719.346679688 c 128,-1,22
 898.87109375 687.552734375 898.87109375 687.552734375 854.512695312 668.532226562 c 0,23,24
 804.065429688 649.510742188 804.065429688 649.510742188 750.03515625 636.873046875 c 0,25,26
 656.525390625 615 656.525390625 615 573.516601562 615 c 0,27,28
 509.721679688 615 509.721679688 615 455.758789062 632.532226562 c 2,29,-1
 431.1328125 640.534179688 l 1,30,-1
 426.505859375 662.913085938 l 1,31,-1
 421.16796875 688.740234375 l 1,32,33
 421.338867188 299.974609375 421.338867188 299.974609375 440.517578125 149.397460938 c 0,34,35
 441.475585938 142.553710938 441.475585938 142.553710938 444.822265625 138.018554688 c 128,-1,36
 448.169921875 133.483398438 448.169921875 133.483398438 456.455078125 130.072265625 c 0,37,38
 483.709960938 118.850585938 483.709960938 118.850585938 545.020507812 117.248046875 c 2,39,40
 567.348632812 148.762695312 567.348632812 148.762695312 589.67578125 116.080078125 c 1,41,42
 589.67578125 131.265625 589.67578125 131.265625 589.67578125 79.84375 c 1,43,44
 589.67578125 92.869140625 589.67578125 92.869140625 589.67578125 34 c 1,45,46
 589.67578125 52.2109375 589.67578125 52.2109375 589.67578125 -9.5771484375 c 1,47,48
 564.59765625 32.28515625 564.59765625 32.28515625 539.520507812 -5.8525390625 c 2,49,50
 460.713867188 0 460.713867188 0 278.654296875 0 c 0,51,52
 117.188476562 0 117.188476562 0 50.95703125 -5.84375 c 2,53,54
 29.1796875 32.234375 29.1796875 32.234375 7.40234375 -9.6865234375 c 1,55,56
 7.40234375 52.15625 7.40234375 52.15625 7.40234375 34 c 1,57,58
 7.40234375 93.3642578125 7.40234375 93.3642578125 7.40234375 80.1259765625 c 1,59,60
 7.40234375 132.356445312 7.40234375 132.356445312 7.40234375 116.842773438 c 1,61,62
 26.8896484375 150.073242188 26.8896484375 150.073242188 46.376953125 117.767578125 c 2,63,64
 80.7373046875 118.583007812 80.7373046875 118.583007812 99.8154296875 123.913085938 c 128,-1,65
 118.893554688 129.2421875 118.893554688 129.2421875 126.184570312 135.29296875 c 128,-1,66
 133.475585938 141.34375 133.475585938 141.34375 134.655273438 150.284179688 c 0,67,68
 150.40234375 292.87109375 150.40234375 292.87109375 150.40234375 676.327148438 c 128,-1,69
 150.40234375 1059.78222656 150.40234375 1059.78222656 134.635742188 1201.88671875 c 0,70,71
 133.806640625 1208.77636719 133.806640625 1208.77636719 130.90625 1213.33984375 c 128,-1,72
 128.004882812 1217.90429688 128.004882812 1217.90429688 120.827148438 1221.3359375 c 0,73,74
 97.2138671875 1232.62695312 97.2138671875 1232.62695312 44.091796875 1234.24023438 c 2,0,1
460.75 782.045898438 m 1,75,76
 468.481445312 780.190429688 468.481445312 780.190429688 476.2109375 779.651367188 c 2,77,78
 519.153320312 773 519.153320312 773 563.564453125 773 c 0,79,80
 657.358398438 773 657.358398438 773 730.532226562 824.293945312 c 0,81,82
 766.10546875 849.229492188 766.10546875 849.229492188 788.69140625 898.631835938 c 128,-1,83
 811.27734375 948.034179688 811.27734375 948.034179688 811.27734375 1017.61035156 c 0,84,85
 811.27734375 1110.20703125 811.27734375 1110.20703125 751.725585938 1160.10351562 c 128,-1,86
 692.172851562 1210 692.172851562 1210 573.516601562 1210 c 0,87,88
 504.719726562 1210 504.719726562 1210 432.174804688 1202.140625 c 1,89,90
 422.407226562 1014.1484375 422.407226562 1014.1484375 421.305664062 765.786132812 c 1,91,-1
 437.497070312 772.80078125 l 1,92,-1
 446.731445312 776.481445312 l 1,93,94
 453.740234375 778.73828125 453.740234375 778.73828125 460.75 782.045898438 c 1,75,76
EndSplineSet
Validated: 37
Position2: "'cpsp' Spaziatura delle maiuscole in Latino lookup 0 subtable" dx=10 dy=0 dh=20 dv=0
EndChar

StartChar: Q
Encoding: 81 81 52
Width: 1771
GlyphClass: 2
Flags: W
LayerCount: 2
Fore
SplineSet
56.22265625 380.860351562 m 128,-1,1
 5 511.600585938 5 511.600585938 5 670.533203125 c 0,2,3
 5 881.350585938 5 881.350585938 100.556640625 1048.97753906 c 128,-1,4
 196.11328125 1216.60449219 196.11328125 1216.60449219 370.69921875 1308.80175781 c 0,5,6
 548.958007812 1401 548.958007812 1401 769.689453125 1401 c 0,7,8
 892.041992188 1401 892.041992188 1401 1004.51953125 1370.8125 c 0,9,10
 1116.99804688 1342.31152344 1116.99804688 1342.31152344 1211.96484375 1283.45507812 c 0,11,12
 1306.71972656 1224.72851562 1306.71972656 1224.72851562 1377.20898438 1141.25097656 c 128,-1,13
 1447.69824219 1057.77441406 1447.69824219 1057.77441406 1486.49414062 943.377929688 c 0,14,15
 1525 828.981445312 1525 828.981445312 1525 695.959960938 c 0,16,17
 1525 436.583007812 1525 436.583007812 1374.43847656 248.365234375 c 0,18,19
 1248.22363281 90.884765625 1248.22363281 90.884765625 1053.47265625 19.7421875 c 1,20,21
 1186.31640625 -65.869140625 1186.31640625 -65.869140625 1292.68945312 -106.43359375 c 0,22,23
 1422.66894531 -156 1422.66894531 -156 1558 -156 c 0,24,25
 1613.82226562 -156 1613.82226562 -156 1661.93066406 -129.8359375 c 2,26,27
 1677.29394531 -81.48046875 1677.29394531 -81.48046875 1692.65722656 -113.125 c 1,28,29
 1702.99511719 -87.291015625 1702.99511719 -87.291015625 1713.33203125 -141.45703125 c 1,30,31
 1726.83203125 -119.95703125 1726.83203125 -119.95703125 1740.33203125 -178.45703125 c 1,32,33
 1753.40136719 -156.366210938 1753.40136719 -156.366210938 1766.46972656 -214.275390625 c 1,34,35
 1682.71484375 -222.969726562 1682.71484375 -222.969726562 1598.95996094 -311.665039062 c 2,36,37
 1518.58691406 -358 1518.58691406 -358 1433.50683594 -358 c 0,38,39
 1357.14941406 -358 1357.14941406 -358 1301.77539062 -348.811523438 c 128,-1,40
 1246.40039062 -339.623046875 1246.40039062 -339.623046875 1159.48828125 -305.69140625 c 128,-1,41
 1072.57519531 -271.758789062 1072.57519531 -271.758789062 959.651367188 -207.069335938 c 128,-1,42
 846.727539062 -142.37890625 846.727539062 -142.37890625 678.313476562 -34.1640625 c 1,43,44
 538.655273438 -24.341796875 538.655273438 -24.341796875 415.026367188 27.0849609375 c 0,45,46
 291.397460938 75.6826171875 291.397460938 75.6826171875 198.141601562 162.901367188 c 0,47,0
 107.444335938 250.120117188 107.444335938 250.120117188 56.22265625 380.860351562 c 128,-1,1
420.712890625 1076.51757812 m 0,48,49
 299.041015625 924.6640625 299.041015625 924.6640625 299.041015625 642 c 0,50,51
 299.041015625 375.125976562 299.041015625 375.125976562 424.69140625 215.176757812 c 0,52,53
 492.11328125 129.349609375 492.11328125 129.349609375 587.499023438 91.5361328125 c 0,54,55
 664.52734375 61 664.52734375 61 760.8125 61 c 128,-1,56
 857.096679688 61 857.096679688 61 933.173828125 90.1416015625 c 0,57,58
 1027.04394531 126.098632812 1027.04394531 126.098632812 1092.56933594 207.544921875 c 0,59,60
 1214.72460938 359.379882812 1214.72460938 359.379882812 1214.72460938 642 c 0,61,62
 1214.72460938 908.83203125 1214.72460938 908.83203125 1088.58984375 1068.76171875 c 0,63,64
 1020.86914062 1154.62695312 1020.86914062 1154.62695312 925.323242188 1192.45703125 c 0,65,66
 848.181640625 1223 848.181640625 1223 751.897460938 1223 c 128,-1,67
 655.612304688 1223 655.612304688 1223 579.647460938 1193.86523438 c 0,68,69
 485.940429688 1157.92480469 485.940429688 1157.92480469 420.712890625 1076.51757812 c 0,48,49
EndSplineSet
Validated: 1
Position2: "'cpsp' Spaziatura delle maiuscole in Latino lookup 0 subtable" dx=10 dy=0 dh=20 dv=0
EndChar

StartChar: R
Encoding: 82 82 53
Width: 1294
GlyphClass: 2
Flags: W
LayerCount: 2
Fore
SplineSet
44.091796875 1234.24023438 m 2,0,1
 24.7470703125 1202.05175781 24.7470703125 1202.05175781 5.40234375 1235.41503906 c 1,2,3
 4.59765625 280.772460938 4.59765625 280.772460938 5.40234375 1318 c 2,4,5
 5.40234375 1299.7890625 5.40234375 1299.7890625 5.40234375 1361.57714844 c 1,6,7
 27.1298828125 1319.71484375 27.1298828125 1319.71484375 48.857421875 1357.85253906 c 2,8,9
 117.137695312 1352 117.137695312 1352 193.940429688 1352 c 0,10,11
 267.80078125 1352 267.80078125 1352 388.461914062 1365.70996094 c 0,12,13
 520.149414062 1380 520.149414062 1380 587.365234375 1380 c 0,14,15
 734.16796875 1380 734.16796875 1380 850.711914062 1342.34277344 c 0,16,17
 967.255859375 1306.79199219 967.255859375 1306.79199219 1042.01855469 1224.13378906 c 0,18,19
 1109.40234375 1141.47460938 1109.40234375 1141.47460938 1109.40234375 1021.03417969 c 0,20,21
 1109.40234375 937.590820312 1109.40234375 937.590820312 1072.82128906 867.98828125 c 0,22,23
 1035.40820312 798.384765625 1035.40820312 798.384765625 969.470703125 754.334960938 c 128,-1,24
 903.533203125 710.28515625 903.533203125 710.28515625 836.875 683.005859375 c 0,25,26
 798.240234375 667.194335938 798.240234375 667.194335938 757.571289062 655.461914062 c 1,27,28
 898.569335938 483.63671875 898.569335938 483.63671875 1039.56738281 290.073242188 c 2,29,30
 1110.23242188 187.897460938 1110.23242188 187.897460938 1153.36035156 156.545898438 c 128,-1,31
 1196.48828125 125.194335938 1196.48828125 125.194335938 1255.1796875 117.1640625 c 2,32,33
 1272.29101562 145.7109375 1272.29101562 145.7109375 1289.40234375 112.481445312 c 1,34,35
 1289.40234375 86.5791015625 1289.40234375 86.5791015625 1289.40234375 -8.1044921875 c 1,36,37
 1268.36328125 32.974609375 1268.36328125 32.974609375 1247.32421875 -5.947265625 c 2,38,39
 1131.36132812 0 1131.36132812 0 911.021484375 0 c 2,40,-1
 884.115234375 0 l 1,41,42
 877.85546875 50.7314453125 877.85546875 50.7314453125 871.595703125 21.4619140625 c 2,43,44
 788.754882812 163.474609375 788.754882812 163.474609375 663.7109375 351.516601562 c 128,-1,45
 538.647460938 539.587890625 538.647460938 539.587890625 430.826171875 683.470703125 c 1,46,47
 429.922851562 725.591796875 429.922851562 725.591796875 429.01953125 687.713867188 c 1,48,49
 421.998046875 744.196289062 421.998046875 744.196289062 414.977539062 720.678710938 c 1,50,51
 415.325195312 315.259765625 415.325195312 315.259765625 433.619140625 157.342773438 c 0,52,53
 434.541992188 150.02734375 434.541992188 150.02734375 437.768554688 145.1796875 c 128,-1,54
 440.994140625 140.333007812 440.994140625 140.333007812 448.977539062 136.686523438 c 0,55,56
 475.241210938 124.692382812 475.241210938 124.692382812 534.32421875 122.978515625 c 2,57,58
 555.83984375 162.354492188 555.83984375 162.354492188 577.35546875 121.73046875 c 1,59,60
 577.35546875 142.365234375 577.35546875 142.365234375 577.35546875 83 c 1,61,62
 577.35546875 98.5 577.35546875 98.5 577.35546875 34 c 1,63,64
 577.35546875 52.2109375 577.35546875 52.2109375 577.35546875 -9.5771484375 c 1,65,66
 553.189453125 32.28515625 553.189453125 32.28515625 529.0234375 -5.8525390625 c 2,67,68
 453.08203125 0 453.08203125 0 277.639648438 0 c 0,69,70
 117.188476562 0 117.188476562 0 50.95703125 -5.84375 c 2,71,72
 29.1796875 32.234375 29.1796875 32.234375 7.40234375 -9.6865234375 c 1,73,74
 7.40234375 52.15625 7.40234375 52.15625 7.40234375 34 c 1,75,76
 7.40234375 93.3642578125 7.40234375 93.3642578125 7.40234375 80.1259765625 c 1,77,78
 7.40234375 132.356445312 7.40234375 132.356445312 7.40234375 116.842773438 c 1,79,80
 26.8896484375 150.073242188 26.8896484375 150.073242188 46.376953125 117.767578125 c 2,81,82
 80.7373046875 118.583007812 80.7373046875 118.583007812 99.8154296875 123.913085938 c 128,-1,83
 118.893554688 129.2421875 118.893554688 129.2421875 126.184570312 135.29296875 c 128,-1,84
 133.475585938 141.34375 133.475585938 141.34375 134.655273438 150.284179688 c 0,85,86
 150.40234375 292.87109375 150.40234375 292.87109375 150.40234375 676.327148438 c 128,-1,87
 150.40234375 1059.78222656 150.40234375 1059.78222656 134.635742188 1201.88671875 c 0,88,89
 133.806640625 1208.77636719 133.806640625 1208.77636719 130.90625 1213.33984375 c 128,-1,90
 128.004882812 1217.90429688 128.004882812 1217.90429688 120.827148438 1221.3359375 c 0,91,92
 97.2138671875 1232.62695312 97.2138671875 1232.62695312 44.091796875 1234.24023438 c 2,0,1
783.662109375 867.911132812 m 128,-1,94
 806.47265625 917.903320312 806.47265625 917.903320312 806.47265625 990 c 0,95,96
 806.47265625 1089.26269531 806.47265625 1089.26269531 732.286132812 1149.63085938 c 128,-1,97
 658.099609375 1210 658.099609375 1210 537.315429688 1210 c 0,98,99
 482.450195312 1210 482.450195312 1210 425.594726562 1203.33203125 c 1,100,101
 415.612304688 983.84765625 415.612304688 983.84765625 415.009765625 693.592773438 c 1,102,103
 417.059570312 655.435546875 417.059570312 655.435546875 419.110351562 697.278320312 c 1,104,105
 423.55859375 661.278320312 423.55859375 661.278320312 428.0078125 705.278320312 c 1,106,107
 433.41015625 670.13671875 433.41015625 670.13671875 438.814453125 714.994140625 c 1,108,109
 490.737304688 680.830078125 490.737304688 680.830078125 542.661132812 726.666015625 c 2,110,111
 595.426757812 733.0703125 595.426757812 733.0703125 638.772460938 747.685546875 c 128,-1,112
 682.119140625 762.299804688 682.119140625 762.299804688 721.484375 790.109375 c 128,-1,93
 760.850585938 817.918945312 760.850585938 817.918945312 783.662109375 867.911132812 c 128,-1,94
EndSplineSet
Validated: 37
Position2: "'cpsp' Spaziatura delle maiuscole in Latino lookup 0 subtable" dx=10 dy=0 dh=20 dv=0
EndChar

StartChar: S
Encoding: 83 83 54
Width: 1001
GlyphClass: 2
Flags: W
LayerCount: 2
Fore
SplineSet
207.74609375 287.28515625 m 1,0,1
 207.74609375 306.142578125 207.74609375 306.142578125 207.74609375 245 c 1,2,3
 207.74609375 280 207.74609375 280 207.74609375 235 c 2,4,5
 207.74609375 201.899414062 207.74609375 201.899414062 223.643554688 185.6640625 c 0,6,7
 251.752929688 159.533203125 251.752929688 159.533203125 304.752929688 146.266601562 c 128,-1,8
 357.75390625 133 357.75390625 133 410.314453125 133 c 0,9,10
 554.8046875 133 554.8046875 133 636.771484375 192.846679688 c 128,-1,11
 718.739257812 252.692382812 718.739257812 252.692382812 718.739257812 348.034179688 c 0,12,13
 718.739257812 436.353515625 718.739257812 436.353515625 640.666015625 501.243164062 c 0,14,15
 574.733398438 556.041992188 574.733398438 556.041992188 452.856445312 595.95703125 c 0,16,17
 255.951171875 660.240234375 255.951171875 660.240234375 171.03515625 747.799804688 c 0,18,19
 82.74609375 839.739257812 82.74609375 839.739257812 82.74609375 976.234375 c 0,20,21
 82.74609375 1061.71875 82.74609375 1061.71875 116.3203125 1137.17578125 c 128,-1,22
 149.896484375 1212.63769531 149.896484375 1212.63769531 213.344726562 1271.69921875 c 0,23,24
 281.76171875 1330.75976562 281.76171875 1330.75976562 398.94140625 1364.77539062 c 0,25,26
 516.119140625 1401 516.119140625 1401 659.197265625 1401 c 0,27,28
 769.220703125 1401 769.220703125 1401 849.243164062 1370.09472656 c 128,-1,29
 929.266601562 1339.18945312 929.266601562 1339.18945312 974.3828125 1292.91601562 c 2,30,31
 983.4453125 1243.62109375 983.4453125 1243.62109375 992.506835938 1274.32714844 c 1,32,33
 987.719726562 1222.28613281 987.719726562 1222.28613281 982.931640625 1250.24414062 c 2,34,35
 951.245117188 1170.546875 951.245117188 1170.546875 935.950195312 1095.02929688 c 2,36,37
 932.70703125 1039.01464844 932.70703125 1039.01464844 929.462890625 1063 c 1,38,-1
 777.063476562 1063 l 1,39,40
 781.208984375 1046.49316406 781.208984375 1046.49316406 785.35546875 1109.98730469 c 2,41,42
 787.74609375 1123.53417969 787.74609375 1123.53417969 787.74609375 1134 c 0,43,44
 787.74609375 1160.93945312 787.74609375 1160.93945312 775.850585938 1173.3515625 c 0,45,46
 715.079101562 1231 715.079101562 1231 599.793945312 1231 c 128,-1,47
 484.510742188 1231 484.510742188 1231 423.759765625 1175.55761719 c 0,48,49
 360.299804688 1117.64160156 360.299804688 1117.64160156 360.299804688 1026.53515625 c 0,50,51
 360.299804688 947.118164062 360.299804688 947.118164062 432.815429688 892.076171875 c 0,52,53
 494.137695312 845.53125 494.137695312 845.53125 610.78515625 813.36328125 c 0,54,55
 817.717773438 752.013671875 817.717773438 752.013671875 905.065429688 660.420898438 c 0,56,57
 995.74609375 565.333984375 995.74609375 565.333984375 995.74609375 421.583007812 c 0,58,59
 995.74609375 289.45703125 995.74609375 289.45703125 914.891601562 183.904296875 c 128,-1,60
 834.037109375 78.3515625 834.037109375 78.3515625 695.541015625 22.5234375 c 0,61,62
 541.00390625 -37 541.00390625 -37 361.490234375 -37 c 0,63,64
 262.0390625 -37 262.0390625 -37 172.928710938 -17.1826171875 c 0,65,66
 85.625 2.634765625 85.625 2.634765625 30.44140625 39.798828125 c 2,67,68
 17.720703125 88.3662109375 17.720703125 88.3662109375 5 56.93359375 c 1,69,70
 9.9375 111.416015625 9.9375 111.416015625 14.8740234375 85.8984375 c 2,71,72
 43.7998046875 170.74609375 43.7998046875 170.74609375 56.2646484375 247.454101562 c 2,73,74
 58.8408203125 303.3046875 58.8408203125 303.3046875 61.416015625 279.155273438 c 1,75,76
 134.581054688 323.219726562 134.581054688 323.219726562 207.74609375 287.28515625 c 1,0,1
EndSplineSet
Validated: 37
Position2: "'cpsp' Spaziatura delle maiuscole in Latino lookup 0 subtable" dx=10 dy=0 dh=20 dv=0
EndChar

StartChar: T
Encoding: 84 84 55
Width: 1442
GlyphClass: 2
Flags: W
LayerCount: 2
Fore
SplineSet
70.009765625 1361.72753906 m 1,0,1
 88.3505859375 1320.83984375 88.3505859375 1320.83984375 106.692382812 1359.953125 c 2,2,3
 363.287109375 1348 363.287109375 1348 703.564453125 1348 c 128,-1,4
 1043.83984375 1348 1043.83984375 1348 1382.25585938 1367.92480469 c 2,5,6
 1409.57714844 1329.59570312 1409.57714844 1329.59570312 1436.89746094 1371.26660156 c 1,7,8
 1430.20898438 1304.73535156 1430.20898438 1304.73535156 1423.52050781 1318.20507812 c 2,9,10
 1394.20703125 1201.92675781 1394.20703125 1201.92675781 1379.50488281 1063.72753906 c 2,11,12
 1377.70800781 1006.83789062 1377.70800781 1006.83789062 1375.91113281 1029.94726562 c 1,13,14
 1298.09472656 985.624023438 1298.09472656 985.624023438 1220.27929688 1021.30078125 c 1,15,16
 1224.26367188 1005.87109375 1224.26367188 1005.87109375 1228.24804688 1070.44140625 c 2,17,18
 1233.73046875 1104.25390625 1233.73046875 1104.25390625 1233.73046875 1126.87597656 c 0,19,20
 1233.73046875 1149.10351562 1233.73046875 1149.10351562 1229.62402344 1158.84667969 c 128,-1,21
 1225.51660156 1168.58984375 1225.51660156 1168.58984375 1220.12011719 1172.26660156 c 128,-1,22
 1214.72363281 1175.94238281 1214.72363281 1175.94238281 1205.99511719 1177.5625 c 0,23,24
 1107.04785156 1192 1107.04785156 1192 952.422851562 1192 c 2,25,-1
 863.143554688 1192 l 1,26,27
 852.9609375 977.869140625 852.9609375 977.869140625 852.9609375 690.63671875 c 0,28,29
 852.9609375 299.938476562 852.9609375 299.938476562 871.288085938 149.372070312 c 0,30,31
 872.194335938 142.529296875 872.194335938 142.529296875 875.364257812 137.995117188 c 128,-1,32
 878.534179688 133.4609375 878.534179688 133.4609375 886.37890625 130.05078125 c 0,33,34
 912.189453125 118.83203125 912.189453125 118.83203125 970.25 117.229492188 c 2,35,36
 991.392578125 148.719726562 991.392578125 148.719726562 1012.53613281 116.061523438 c 1,37,38
 1012.53613281 131.23046875 1012.53613281 131.23046875 1012.53613281 79.833984375 c 1,39,40
 1012.53613281 92.8515625 1012.53613281 92.8515625 1012.53613281 34 c 1,41,42
 1012.53613281 52.2109375 1012.53613281 52.2109375 1012.53613281 -9.5771484375 c 1,43,44
 988.7890625 32.28515625 988.7890625 32.28515625 965.041992188 -5.8525390625 c 2,45,46
 890.413085938 0 890.413085938 0 718.005859375 0 c 128,-1,47
 545.599609375 0 545.599609375 0 473.2109375 -5.84375 c 2,48,49
 449.407226562 32.234375 449.407226562 32.234375 425.604492188 -9.6865234375 c 1,50,51
 425.604492188 52.15625 425.604492188 52.15625 425.604492188 34 c 1,52,53
 425.604492188 92.8515625 425.604492188 92.8515625 425.604492188 79.833984375 c 1,54,55
 425.604492188 131.350585938 425.604492188 131.350585938 425.604492188 116.317382812 c 1,56,57
 446.904296875 148.84375 446.904296875 148.84375 468.204101562 117.236328125 c 2,58,59
 505.758789062 118.046875 505.758789062 118.046875 526.610351562 123.342773438 c 128,-1,60
 547.462890625 128.637695312 547.462890625 128.637695312 555.431640625 134.650390625 c 128,-1,61
 563.401367188 140.663085938 563.401367188 140.663085938 564.690429688 149.546875 c 0,62,63
 581.901367188 291.229492188 581.901367188 291.229492188 581.901367188 690.63671875 c 0,64,65
 581.901367188 994.517578125 581.901367188 994.517578125 572.786132812 1192 c 1,66,-1
 431.0703125 1192 l 2,67,68
 324.537109375 1192 324.537109375 1192 271.831054688 1178.47949219 c 0,69,70
 228.833984375 1166.92675781 228.833984375 1166.92675781 207.895507812 1140.93457031 c 0,71,72
 184.095703125 1111.38964844 184.095703125 1111.38964844 165.291015625 1043.33691406 c 2,73,74
 161.469726562 989.506835938 161.469726562 989.506835938 157.6484375 1015.67773438 c 1,75,76
 81.32421875 971.377929688 81.32421875 971.377929688 5 1007.07714844 c 1,77,78
 10.857421875 992.96484375 10.857421875 992.96484375 16.7158203125 1058.85253906 c 2,79,80
 47.3291015625 1194.14453125 47.3291015625 1194.14453125 65.09375 1325.40527344 c 2,81,82
 67.5517578125 1303.56640625 67.5517578125 1303.56640625 70.009765625 1361.72753906 c 1,0,1
EndSplineSet
Validated: 37
Position2: "'cpsp' Spaziatura delle maiuscole in Latino lookup 0 subtable" dx=10 dy=0 dh=20 dv=0
EndChar

StartChar: U
Encoding: 85 85 56
Width: 1462
GlyphClass: 2
Flags: W
LayerCount: 2
Fore
SplineSet
5.064453125 1230.26757812 m 0,0,1
 5.0322265625 1230.26757812 5.0322265625 1230.26757812 5 1230.26953125 c 1,2,3
 5.771484375 258.1953125 5.771484375 258.1953125 5.064453125 1230.26757812 c 0,0,1
43.689453125 1233.94042969 m 2,4,5
 24.376953125 1201.35546875 24.376953125 1201.35546875 5.064453125 1235.1171875 c 1,6,7
 5.033203125 1274.84082031 5.033203125 1274.84082031 5 1318 c 2,8,9
 5 1299.7890625 5 1299.7890625 5 1361.57714844 c 1,10,11
 26.7275390625 1319.71484375 26.7275390625 1319.71484375 48.455078125 1357.85253906 c 2,12,13
 116.735351562 1352 116.735351562 1352 276.62890625 1352 c 0,14,15
 448.702148438 1352 448.702148438 1352 520.950195312 1357.84375 c 2,16,17
 544.706054688 1319.765625 544.706054688 1319.765625 568.461914062 1361.68652344 c 1,18,19
 568.461914062 1299.84375 568.461914062 1299.84375 568.461914062 1318 c 1,20,21
 568.461914062 1259.13964844 568.461914062 1259.13964844 568.461914062 1272.16113281 c 1,22,23
 568.461914062 1220.63183594 568.461914062 1220.63183594 568.461914062 1235.67285156 c 1,24,25
 547.204101562 1203.13574219 547.204101562 1203.13574219 525.946289062 1234.75390625 c 2,26,27
 488.463867188 1233.94335938 488.463867188 1233.94335938 467.65234375 1228.64746094 c 128,-1,28
 446.840820312 1223.3515625 446.840820312 1223.3515625 438.88671875 1217.33886719 c 128,-1,29
 430.934570312 1211.32617188 430.934570312 1211.32617188 429.647460938 1202.44335938 c 0,30,31
 411.377929688 1051.38671875 411.377929688 1051.38671875 411.377929688 698.709960938 c 0,32,33
 411.377929688 565.662109375 411.377929688 565.662109375 415.713867188 468.986328125 c 0,34,35
 421.6796875 324.040039062 421.6796875 324.040039062 513.190429688 241.01953125 c 128,-1,36
 604.701171875 158 604.701171875 158 792.087890625 158 c 0,37,38
 959.92578125 158 959.92578125 158 1042.3203125 238.750976562 c 0,39,40
 1127.56933594 322.302734375 1127.56933594 322.302734375 1133.5546875 464.3125 c 0,41,42
 1137.890625 569.350585938 1137.890625 569.350585938 1137.890625 698.709960938 c 0,43,44
 1137.890625 1030.43066406 1137.890625 1030.43066406 1123.83203125 1203.85839844 c 0,45,46
 1123.15722656 1211.6015625 1123.15722656 1211.6015625 1115.34863281 1217.3359375 c 128,-1,47
 1107.5390625 1223.07128906 1107.5390625 1223.07128906 1084.91015625 1228.49902344 c 128,-1,48
 1062.28125 1233.92675781 1062.28125 1233.92675781 1021.21972656 1234.75195312 c 2,49,50
 999.922851562 1203.10449219 999.922851562 1203.10449219 978.625 1235.60839844 c 1,51,52
 978.625 1220.6015625 978.625 1220.6015625 978.625 1272.16113281 c 1,53,54
 978.625 1259.13964844 978.625 1259.13964844 978.625 1318 c 1,55,56
 978.625 1299.7890625 978.625 1299.7890625 978.625 1361.57714844 c 1,57,58
 1002.32714844 1319.71484375 1002.32714844 1319.71484375 1026.02832031 1357.85253906 c 2,59,60
 1100.51269531 1352 1100.51269531 1352 1235.72460938 1352 c 0,61,62
 1361.71484375 1352 1361.71484375 1352 1412.45898438 1357.74414062 c 2,63,64
 1434.72949219 1320.265625 1434.72949219 1320.265625 1457 1362.78710938 c 1,65,66
 1457 1300.39355469 1457 1300.39355469 1457 1318 c 1,67,68
 1457 1258.49316406 1457 1258.49316406 1457 1271.79296875 c 1,69,70
 1457 1219.34082031 1457 1219.34082031 1457 1234.95996094 c 1,71,72
 1437.484375 1201.56054688 1437.484375 1201.56054688 1417.96875 1234.08398438 c 2,73,74
 1381.06738281 1233.25585938 1381.06738281 1233.25585938 1360.80371094 1227.828125 c 128,-1,75
 1340.54003906 1222.40039062 1340.54003906 1222.40039062 1333.52929688 1216.65332031 c 128,-1,76
 1326.51757812 1210.90722656 1326.51757812 1210.90722656 1325.90234375 1203.125 c 0,77,78
 1314 1042.25390625 1314 1042.25390625 1314 693.735351562 c 0,79,80
 1314 565.189453125 1314 565.189453125 1317.97753906 453.615234375 c 2,81,82
 1317.98828125 464.560546875 1317.98828125 464.560546875 1318 452.328125 c 1,83,84
 1318 456.39453125 1318 456.39453125 1318 436.296875 c 2,85,86
 1318 346.727539062 1318 346.727539062 1287.64257812 266.981445312 c 0,87,88
 1253.99609375 178.958007812 1253.99609375 178.958007812 1183.31542969 107.28125 c 0,89,90
 1108.75097656 35.603515625 1108.75097656 35.603515625 985.017578125 -5.45703125 c 0,91,92
 861.28515625 -49 861.28515625 -49 705.91015625 -49 c 0,93,94
 440.51953125 -49 440.51953125 -49 284.788085938 82.7783203125 c 0,95,96
 146 209.14453125 146 209.14453125 146 418.6328125 c 2,97,98
 146 440.384765625 146 440.384765625 146 439.416992188 c 1,99,100
 146 450.512695312 146 450.512695312 146 440.073242188 c 1,101,102
 150 550.60546875 150 550.60546875 150 692.599609375 c 0,103,104
 150 1058.859375 150 1058.859375 134.233398438 1201.47265625 c 0,105,106
 133.404296875 1208.38574219 133.404296875 1208.38574219 130.50390625 1212.96582031 c 128,-1,107
 127.602539062 1217.54589844 127.602539062 1217.54589844 120.424804688 1220.99023438 c 0,108,109
 96.8115234375 1232.32128906 96.8115234375 1232.32128906 43.689453125 1233.94042969 c 2,4,5
EndSplineSet
Validated: 5
Position2: "'cpsp' Spaziatura delle maiuscole in Latino lookup 0 subtable" dx=10 dy=0 dh=20 dv=0
EndChar

StartChar: V
Encoding: 86 86 57
Width: 1530
GlyphClass: 2
Flags: W
LayerCount: 2
Fore
SplineSet
5 1235.01074219 m 1,0,1
 5 1219.30371094 5 1219.30371094 5 1271.76953125 c 1,2,3
 5 1258.453125 5 1258.453125 5 1318 c 1,4,5
 5 1298.36035156 5 1298.36035156 5 1358.72070312 c 1,6,7
 101.36328125 1357 101.36328125 1357 151 1357 c 0,8,9
 303.635742188 1357 303.635742188 1357 406.140625 1363.89257812 c 2,10,11
 423.759765625 1325.078125 423.759765625 1325.078125 441.377929688 1366.26269531 c 1,12,13
 446.21484375 1310.62011719 446.21484375 1310.62011719 451.052734375 1334.97753906 c 2,14,15
 534.182617188 1066.15429688 534.182617188 1066.15429688 644.4296875 772.581054688 c 0,16,17
 733.024414062 536.68359375 733.024414062 536.68359375 810.40234375 356.586914062 c 1,18,19
 994.103515625 722.258789062 994.103515625 722.258789062 1168.421875 1203.64257812 c 0,20,21
 1170.16113281 1208.45214844 1170.16113281 1208.45214844 1170.16113281 1210.24511719 c 128,-1,22
 1170.16113281 1212.03808594 1170.16113281 1212.03808594 1169.85253906 1212.58105469 c 128,-1,23
 1169.54589844 1213.125 1169.54589844 1213.125 1164.9453125 1216.20996094 c 128,-1,24
 1160.34667969 1219.29492188 1160.34667969 1219.29492188 1143.37109375 1223.68066406 c 128,-1,25
 1126.39550781 1228.06640625 1126.39550781 1228.06640625 1094.3046875 1229.02148438 c 2,26,27
 1073.328125 1189.64550781 1073.328125 1189.64550781 1052.3515625 1230.26953125 c 1,28,29
 1052.3515625 1209.63476562 1052.3515625 1209.63476562 1052.3515625 1269 c 1,30,31
 1052.3515625 1253.5 1052.3515625 1253.5 1052.3515625 1318 c 1,32,33
 1052.3515625 1300.30175781 1052.3515625 1300.30175781 1052.3515625 1362.60351562 c 1,34,35
 1076.41210938 1320.18359375 1076.41210938 1320.18359375 1100.47363281 1357.76269531 c 2,36,37
 1157.75292969 1352 1157.75292969 1352 1292.18164062 1352 c 0,38,39
 1417.16113281 1352 1417.16113281 1352 1481.33886719 1357.83398438 c 2,40,41
 1503.16992188 1319.81933594 1503.16992188 1319.81933594 1525 1361.80371094 c 1,42,43
 1525 1299.90136719 1525 1299.90136719 1525 1318 c 1,44,45
 1525 1258.46289062 1525 1258.46289062 1525 1271.77539062 c 1,46,47
 1525 1219.34082031 1525 1219.34082031 1525 1235.05664062 c 1,48,49
 1505.5546875 1201.54882812 1505.5546875 1201.54882812 1486.10839844 1234.05566406 c 2,50,51
 1446.40039062 1233.03417969 1446.40039062 1233.03417969 1419.25488281 1219.72851562 c 0,52,53
 1387.38183594 1204.10449219 1387.38183594 1204.10449219 1370.37695312 1169.28417969 c 0,54,55
 1101.30175781 644.465820312 1101.30175781 644.465820312 835.2109375 -14.25 c 2,56,57
 830.393554688 13.1064453125 830.393554688 13.1064453125 825.575195312 -39.537109375 c 1,58,59
 753.178710938 -3.05078125 753.178710938 -3.05078125 680.784179688 -46.564453125 c 1,60,61
 675.673828125 8.099609375 675.673828125 8.099609375 670.563476562 -17.2353515625 c 2,62,63
 409.0703125 690.712890625 409.0703125 690.712890625 158.850585938 1183.88964844 c 0,64,65
 145.409179688 1209.24804688 145.409179688 1209.24804688 116.161132812 1221.11230469 c 128,-1,66
 86.9140625 1232.9765625 86.9140625 1232.9765625 43.9296875 1234.04394531 c 2,67,68
 24.46484375 1201.50683594 24.46484375 1201.50683594 5 1235.01074219 c 1,0,1
1170.10253906 1252.26269531 m 1,69,-1
 1170.10253906 1252.26269531 l 1,69,-1
EndSplineSet
Validated: 37
Position2: "'cpsp' Spaziatura delle maiuscole in Latino lookup 0 subtable" dx=10 dy=0 dh=20 dv=0
EndChar

StartChar: W
Encoding: 87 87 58
Width: 2196
GlyphClass: 2
Flags: W
LayerCount: 2
Fore
SplineSet
5 1234.9375 m 1,0,1
 5 1219.28710938 5 1219.28710938 5 1271.77636719 c 1,2,3
 5 1258.46484375 5 1258.46484375 5 1318 c 1,4,5
 5 1298.37402344 5 1298.37402344 5 1358.74804688 c 1,6,7
 99.376953125 1357 99.376953125 1357 148 1357 c 0,8,9
 295.641601562 1357 295.641601562 1357 409.25 1364.89257812 c 1,10,11
 415.221679688 1321.09960938 415.221679688 1321.09960938 421.194335938 1357.30566406 c 1,12,13
 425.916992188 1314.30566406 425.916992188 1314.30566406 430.639648438 1351.30566406 c 1,14,15
 437.875 1306.70996094 437.875 1306.70996094 445.110351562 1342.11523438 c 1,16,17
 551.088867188 843.60546875 551.088867188 843.60546875 678.046875 446.266601562 c 1,18,19
 922.368164062 994.026367188 922.368164062 994.026367188 1031.51660156 1343.41503906 c 2,20,21
 1035.63769531 1316.60839844 1035.63769531 1316.60839844 1039.75878906 1369.80078125 c 1,22,23
 1112.34960938 1335.05371094 1112.34960938 1335.05371094 1184.93847656 1380.30664062 c 1,24,25
 1300.46484375 1022.84570312 1300.46484375 1022.84570312 1374.94433594 831.615234375 c 128,-1,26
 1449.42285156 640.384765625 1449.42285156 640.384765625 1568.40917969 377.939453125 c 1,27,28
 1714.25 775.791015625 1714.25 775.791015625 1831.85253906 1200.79003906 c 0,29,30
 1833.42578125 1209.36523438 1833.42578125 1209.36523438 1832.56835938 1211.16113281 c 128,-1,31
 1831.70898438 1212.95605469 1831.70898438 1212.95605469 1826.91503906 1216.1953125 c 128,-1,32
 1822.12109375 1219.43457031 1822.12109375 1219.43457031 1805.57617188 1223.74804688 c 128,-1,33
 1789.03125 1228.0625 1789.03125 1228.0625 1757.84179688 1229.02148438 c 2,34,35
 1737.5390625 1189.64550781 1737.5390625 1189.64550781 1717.23535156 1230.26953125 c 1,36,37
 1717.23535156 1209.63476562 1717.23535156 1209.63476562 1717.23535156 1269 c 1,38,39
 1717.23535156 1253.5 1717.23535156 1253.5 1717.23535156 1318 c 1,40,41
 1717.23535156 1300.30175781 1717.23535156 1300.30175781 1717.23535156 1362.60351562 c 1,42,43
 1740.52441406 1320.18359375 1740.52441406 1320.18359375 1763.81347656 1357.76269531 c 2,44,45
 1819.25488281 1352 1819.25488281 1352 1954.18164062 1352 c 0,46,47
 2083.16113281 1352 2083.16113281 1352 2147.33886719 1357.83398438 c 2,48,49
 2169.16992188 1319.81933594 2169.16992188 1319.81933594 2191 1361.80371094 c 1,50,51
 2191 1299.90136719 2191 1299.90136719 2191 1318 c 1,52,53
 2191 1258.47460938 2191 1258.47460938 2191 1271.78222656 c 1,54,55
 2191 1219.3359375 2191 1219.3359375 2191 1235.00878906 c 1,56,57
 2171.52148438 1201.54882812 2171.52148438 1201.54882812 2152.04296875 1234.06640625 c 2,58,59
 2109.12792969 1233.02832031 2109.12792969 1233.02832031 2081.37890625 1219.63476562 c 0,60,61
 2050.140625 1204.55761719 2050.140625 1204.55761719 2036.27441406 1171.29980469 c 0,62,63
 1788.79003906 591.515625 1788.79003906 591.515625 1619.40039062 -10.8173828125 c 2,64,65
 1615.61035156 14.8935546875 1615.61035156 14.8935546875 1611.8203125 -39.3955078125 c 1,66,67
 1540.69726562 -2.9619140625 1540.69726562 -2.9619140625 1469.57421875 -46.5283203125 c 1,68,69
 1344.01855469 299.306640625 1344.01855469 299.306640625 1257.0234375 515.274414062 c 128,-1,70
 1170.02929688 731.241210938 1170.02929688 731.241210938 1066.11230469 956.322265625 c 1,71,72
 983.696289062 779.62890625 983.696289062 779.62890625 902.733398438 570.765625 c 128,-1,73
 821.770507812 361.903320312 821.770507812 361.903320312 685.07421875 -39.5 c 1,74,75
 613.083984375 -3.1103515625 613.083984375 -3.1103515625 541.09375 -46.7197265625 c 1,76,77
 537.205078125 9.7333984375 537.205078125 9.7333984375 533.315429688 -13.8125 c 2,78,79
 366.999023438 649.940429688 366.999023438 649.940429688 157.333007812 1187.36523438 c 0,80,81
 148.831054688 1210.25195312 148.831054688 1210.25195312 120.395507812 1221.61035156 c 128,-1,82
 91.9609375 1232.96875 91.9609375 1232.96875 44.0234375 1234.0546875 c 2,83,84
 24.51171875 1201.49414062 24.51171875 1201.49414062 5 1234.9375 c 1,0,1
EndSplineSet
Validated: 37
Position2: "'cpsp' Spaziatura delle maiuscole in Latino lookup 0 subtable" dx=10 dy=0 dh=20 dv=0
EndChar

StartChar: X
Encoding: 88 88 59
Width: 1429
GlyphClass: 2
Flags: W
LayerCount: 2
Fore
SplineSet
5 -11.044921875 m 1,0,1
 5 50.4775390625 5 50.4775390625 5 32 c 1,2,3
 5 91.47265625 5 91.47265625 5 78.1875 c 1,4,5
 5 128.342773438 5 128.342773438 5 110.228515625 c 1,6,7
 21.7509765625 145.879882812 21.7509765625 145.879882812 38.5029296875 115.396484375 c 2,8,9
 86.923828125 122.865234375 86.923828125 122.865234375 118.828125 139.088867188 c 128,-1,10
 150.732421875 155.313476562 150.732421875 155.313476562 184.9375 191.655273438 c 0,11,12
 354.569335938 365.811523438 354.569335938 365.811523438 597.819335938 672.376953125 c 1,13,14
 527.135742188 796.65234375 527.135742188 796.65234375 423.8671875 953.430664062 c 128,-1,15
 320.596679688 1110.20996094 320.596679688 1110.20996094 270.995117188 1165.65917969 c 0,16,17
 242.424804688 1198.60644531 242.424804688 1198.60644531 215.98828125 1209.80273438 c 128,-1,18
 189.551757812 1220.99804688 189.551757812 1220.99804688 131.15625 1223.5 c 2,19,20
 112.078125 1193.59570312 112.078125 1193.59570312 93 1225.13476562 c 1,21,22
 93 1251.33105469 93 1251.33105469 93 1346 c 1,23,-1
 133 1346 l 2,24,25
 353.112304688 1346 353.112304688 1346 480.390625 1355.85546875 c 2,26,27
 496.626953125 1317.11328125 496.626953125 1317.11328125 512.862304688 1358.37011719 c 1,28,29
 518.856445312 1304.53515625 518.856445312 1304.53515625 524.849609375 1330.69921875 c 2,30,31
 565.8515625 1236.05273438 565.8515625 1236.05273438 642.1953125 1091.67871094 c 128,-1,32
 718.5390625 947.3046875 718.5390625 947.3046875 777.482421875 848.291015625 c 1,33,34
 895.005859375 992.288085938 895.005859375 992.288085938 968.291015625 1095.70019531 c 0,35,36
 1036.88867188 1192.49902344 1036.88867188 1192.49902344 1047.43066406 1224.39550781 c 1,37,38
 1032.68457031 1229.32128906 1032.68457031 1229.32128906 1004.23535156 1231.09375 c 2,39,40
 983.85546875 1192.36328125 983.85546875 1192.36328125 963.475585938 1233.6328125 c 1,41,42
 963.475585938 1212.31640625 963.475585938 1212.31640625 963.475585938 1271 c 1,43,44
 963.475585938 1251.5 963.475585938 1251.5 963.475585938 1312 c 1,45,46
 963.475585938 1292 963.475585938 1292 963.475585938 1352 c 1,47,-1
 1007.25097656 1352 l 2,48,49
 1290.20117188 1352 1290.20117188 1352 1378.41894531 1359.84179688 c 2,50,51
 1400.20996094 1321.77832031 1400.20996094 1321.77832031 1422 1363.71582031 c 1,52,53
 1422 1301.85742188 1422 1301.85742188 1422 1320 c 1,54,55
 1422 1260.62109375 1422 1260.62109375 1422 1273.86523438 c 1,56,57
 1422 1222.13085938 1422 1222.13085938 1422 1238.23828125 c 1,58,59
 1403.125 1204.42871094 1403.125 1204.42871094 1384.25 1236.26367188 c 2,60,61
 1339.44726562 1233.91992188 1339.44726562 1233.91992188 1312.72265625 1219.859375 c 128,-1,62
 1285.99902344 1205.79882812 1285.99902344 1205.79882812 1246.78808594 1161.33007812 c 0,63,64
 1246.53808594 1132.68652344 1246.53808594 1132.68652344 1246.28808594 1160.7734375 c 1,65,66
 1061.82910156 970.532226562 1061.82910156 970.532226562 876.70703125 726.376953125 c 1,67,68
 1027.3125 495.852539062 1027.3125 495.852539062 1100.53417969 393.603515625 c 128,-1,69
 1173.75488281 291.354492188 1173.75488281 291.354492188 1232.07324219 218.321289062 c 0,70,71
 1280.83789062 156.815429688 1280.83789062 156.815429688 1309.0625 139.352539062 c 128,-1,72
 1337.28613281 121.889648438 1337.28613281 121.889648438 1389.2421875 115.474609375 c 2,73,74
 1406.62109375 146.233398438 1406.62109375 146.233398438 1424 111.182617188 c 1,75,76
 1424 128.655273438 1424 128.655273438 1424 78.134765625 c 1,77,78
 1424 91.37890625 1424 91.37890625 1424 32 c 1,79,80
 1424 52 1424 52 1424 -8 c 1,81,-1
 1384 -8 l 2,82,83
 1206.58886719 -8 1206.58886719 -8 1043.546875 -19.8759765625 c 2,84,85
 1028.48828125 19.044921875 1028.48828125 19.044921875 1013.4296875 -22.03515625 c 1,86,87
 1006.96386719 30.4384765625 1006.96386719 30.4384765625 1000.49707031 2.912109375 c 2,88,89
 849.76953125 293.668945312 849.76953125 293.668945312 696.448242188 542.79296875 c 1,90,91
 576.4296875 398.223632812 576.4296875 398.223632812 492.750976562 276.736328125 c 0,92,93
 418.548828125 169.005859375 418.548828125 169.005859375 403.107421875 126.235351562 c 1,94,95
 417.344726562 121.916015625 417.344726562 121.916015625 444.250976562 120.969726562 c 2,96,97
 465.284179688 160.23046875 465.284179688 160.23046875 486.318359375 119.491210938 c 1,98,99
 486.318359375 140.24609375 486.318359375 140.24609375 486.318359375 81 c 1,100,101
 486.318359375 100.5 486.318359375 100.5 486.318359375 40 c 1,102,103
 486.318359375 60 486.318359375 60 486.318359375 0 c 1,104,-1
 442.541992188 0 l 2,105,106
 155.487304688 0 155.487304688 0 47.9638671875 -7.8916015625 c 2,107,108
 26.482421875 30.53125 26.482421875 30.53125 5 -11.044921875 c 1,0,1
EndSplineSet
Validated: 5
Position2: "'cpsp' Spaziatura delle maiuscole in Latino lookup 0 subtable" dx=10 dy=0 dh=20 dv=0
EndChar

StartChar: Y
Encoding: 89 89 60
Width: 1442
GlyphClass: 2
Flags: W
LayerCount: 2
Fore
SplineSet
5 1234.88574219 m 1,0,1
 5 1219.51660156 5 1219.51660156 5 1271.87402344 c 1,2,3
 5 1258.63574219 5 1258.63574219 5 1318 c 1,4,5
 5 1298.42089844 5 1298.42089844 5 1358.84179688 c 1,6,7
 93.423828125 1357 93.423828125 1357 137 1357 c 0,8,9
 269.14453125 1357 269.14453125 1357 376.90234375 1363.90136719 c 2,10,11
 391.897460938 1324.86132812 391.897460938 1324.86132812 406.892578125 1365.82226562 c 1,12,13
 413.256835938 1313.36230469 413.256835938 1313.36230469 419.623046875 1340.90234375 c 2,14,15
 512.793945312 1158.51464844 512.793945312 1158.51464844 590.373046875 1036.375 c 128,-1,16
 667.950195312 914.236328125 667.950195312 914.236328125 775.014648438 769.772460938 c 1,17,18
 945.467773438 982.1953125 945.467773438 982.1953125 1074.38085938 1209.09472656 c 0,19,20
 1076.35644531 1212.75097656 1076.35644531 1212.75097656 1077.1796875 1215.45703125 c 0,21,22
 1070.71386719 1219.6015625 1070.71386719 1219.6015625 1054.24804688 1223.83300781 c 128,-1,23
 1037.78320312 1228.06445312 1037.78320312 1228.06445312 1004.85546875 1229.02050781 c 2,24,25
 983.701171875 1189.63476562 983.701171875 1189.63476562 962.546875 1230.24902344 c 1,26,27
 962.546875 1209.625 962.546875 1209.625 962.546875 1269 c 1,28,29
 962.546875 1253.5 962.546875 1253.5 962.546875 1318 c 1,30,31
 962.546875 1300.30175781 962.546875 1300.30175781 962.546875 1362.60351562 c 1,32,33
 986.798828125 1320.18359375 986.798828125 1320.18359375 1011.05175781 1357.76269531 c 2,34,35
 1068.78710938 1352 1068.78710938 1352 1204.18164062 1352 c 0,36,37
 1329.16113281 1352 1329.16113281 1352 1393.33886719 1357.83398438 c 2,38,39
 1415.16992188 1319.81933594 1415.16992188 1319.81933594 1437 1361.80371094 c 1,40,41
 1437 1299.90136719 1437 1299.90136719 1437 1318 c 1,42,43
 1437 1258.63574219 1437 1258.63574219 1437 1271.87402344 c 1,44,45
 1437 1219.52148438 1437 1219.52148438 1437 1234.8984375 c 1,46,47
 1417.37011719 1201.80175781 1417.37011719 1201.80175781 1397.74023438 1234.2265625 c 2,48,49
 1354.76074219 1233.49023438 1354.76074219 1233.49023438 1334.14550781 1220.12890625 c 0,50,51
 1309.23535156 1203.984375 1309.23535156 1203.984375 1277.26953125 1163.02734375 c 0,52,53
 1162.5 1018.92480469 1162.5 1018.92480469 1072.88574219 900.146484375 c 128,-1,54
 983.270507812 781.369140625 983.270507812 781.369140625 855.440429688 594.216796875 c 1,55,56
 855.733398438 298.993164062 855.733398438 298.993164062 872.680664062 150.010742188 c 0,57,58
 873.595703125 143.193359375 873.595703125 143.193359375 876.754882812 138.64453125 c 128,-1,59
 879.915039062 134.095703125 879.915039062 134.095703125 887.760742188 130.6640625 c 0,60,61
 913.569335938 119.373046875 913.569335938 119.373046875 971.629882812 117.759765625 c 2,62,63
 992.7734375 149.948242188 992.7734375 149.948242188 1013.91601562 116.584960938 c 1,64,65
 1013.91601562 132.235351562 1013.91601562 132.235351562 1013.91601562 80.1259765625 c 1,66,67
 1013.91601562 93.3642578125 1013.91601562 93.3642578125 1013.91601562 34 c 1,68,69
 1013.91601562 52.2109375 1013.91601562 52.2109375 1013.91601562 -9.5771484375 c 1,70,71
 990.168945312 32.28515625 990.168945312 32.28515625 966.420898438 -5.8525390625 c 2,72,73
 891.79296875 0 891.79296875 0 719.907226562 0 c 128,-1,74
 548.076171875 0 548.076171875 0 475.6875 -5.84375 c 2,75,76
 451.885742188 32.234375 451.885742188 32.234375 428.083984375 -9.6865234375 c 1,77,78
 428.083984375 52.15625 428.083984375 52.15625 428.083984375 34 c 1,79,80
 428.083984375 93.3642578125 428.083984375 93.3642578125 428.083984375 80.1259765625 c 1,81,82
 428.083984375 132.352539062 428.083984375 132.352539062 428.083984375 116.834960938 c 1,83,84
 449.37890625 150.069335938 449.37890625 150.069335938 470.671875 117.767578125 c 2,85,86
 519.103515625 118.828125 519.103515625 118.828125 544.625976562 128.830078125 c 0,87,88
 554.833007812 132.829101562 554.833007812 132.829101562 559.967773438 137.810546875 c 128,-1,89
 564.947265625 142.640625 564.947265625 142.640625 566.060546875 150.189453125 c 0,90,91
 584.0703125 308.451171875 584.0703125 308.451171875 584.373046875 594.740234375 c 1,92,93
 391.024414062 895.124023438 391.024414062 895.124023438 161.551757812 1178.31933594 c 0,94,95
 140.551757812 1205.69140625 140.551757812 1205.69140625 115.212890625 1219.57519531 c 128,-1,96
 89.875 1233.45996094 89.875 1233.45996094 44.2734375 1234.22558594 c 2,97,98
 24.63671875 1201.79589844 24.63671875 1201.79589844 5 1234.88574219 c 1,0,1
EndSplineSet
Validated: 5
Position2: "'cpsp' Spaziatura delle maiuscole in Latino lookup 0 subtable" dx=10 dy=0 dh=20 dv=0
EndChar

